<?xml version="1.0" encoding="UTF-8" standalone="no"?>
<!DOCTYPE svg PUBLIC "-//W3C//DTD SVG 1.1//EN"
 "http://www.w3.org/Graphics/SVG/1.1/DTD/svg11.dtd">
<!-- Generated by graphviz version 14.1.4 (20260321.0153)
 -->
<!-- Title: snakemake_dag Pages: 1 -->
<svg width="1832pt" height="1196pt"
 viewBox="0.00 0.00 1832.00 1196.00" xmlns="http://www.w3.org/2000/svg" xmlns:xlink="http://www.w3.org/1999/xlink">
<g id="graph0" class="graph" transform="scale(1 1) rotate(0) translate(4 1192)">
<title>snakemake_dag</title>
<polygon fill="white" stroke="none" points="-4,4 -4,-1192 1828.12,-1192 1828.12,4 -4,4"/>
<!-- 0 -->
<g id="node1" class="node">
<title>0</title>
<path fill="none" stroke="#d88556" stroke-width="2" d="M1691.25,-36C1691.25,-36 1598.75,-36 1598.75,-36 1592.75,-36 1586.75,-30 1586.75,-24 1586.75,-24 1586.75,-12 1586.75,-12 1586.75,-6 1592.75,0 1598.75,0 1598.75,0 1691.25,0 1691.25,0 1697.25,0 1703.25,-6 1703.25,-12 1703.25,-12 1703.25,-24 1703.25,-24 1703.25,-30 1697.25,-36 1691.25,-36"/>
<text xml:space="preserve" text-anchor="middle" x="1645" y="-14.12" font-family="sans" font-size="10.00">solve_sector_networks</text>
</g>
<!-- 1 -->
<g id="node2" class="node">
<title>1</title>
<path fill="none" stroke="#ced856" stroke-width="2" d="M1688.62,-108C1688.62,-108 1601.38,-108 1601.38,-108 1595.38,-108 1589.38,-102 1589.38,-96 1589.38,-96 1589.38,-84 1589.38,-84 1589.38,-78 1595.38,-72 1601.38,-72 1601.38,-72 1688.62,-72 1688.62,-72 1694.62,-72 1700.62,-78 1700.62,-84 1700.62,-84 1700.62,-96 1700.62,-96 1700.62,-102 1694.62,-108 1688.62,-108"/>
<text xml:space="preserve" text-anchor="middle" x="1645" y="-86.12" font-family="sans" font-size="10.00">solve_sector_network</text>
</g>
<!-- 1&#45;&gt;0 -->
<g id="edge1" class="edge">
<title>1&#45;&gt;0</title>
<path fill="none" stroke="grey" stroke-width="2" d="M1645,-71.34C1645,-64.75 1645,-57.08 1645,-49.67"/>
<polygon fill="grey" stroke="grey" stroke-width="2" points="1648.5,-49.93 1645,-39.93 1641.5,-49.93 1648.5,-49.93"/>
</g>
<!-- 2 -->
<g id="node3" class="node">
<title>2</title>
<path fill="none" stroke="#56d8c1" stroke-width="2" d="M1665,-180C1665,-180 1625,-180 1625,-180 1619,-180 1613,-174 1613,-168 1613,-168 1613,-156 1613,-156 1613,-150 1619,-144 1625,-144 1625,-144 1665,-144 1665,-144 1671,-144 1677,-150 1677,-156 1677,-156 1677,-168 1677,-168 1677,-174 1671,-180 1665,-180"/>
<text xml:space="preserve" text-anchor="middle" x="1645" y="-158.12" font-family="sans" font-size="10.00">add_export</text>
</g>
<!-- 2&#45;&gt;1 -->
<g id="edge3" class="edge">
<title>2&#45;&gt;1</title>
<path fill="none" stroke="grey" stroke-width="2" d="M1645,-143.34C1645,-136.75 1645,-129.08 1645,-121.67"/>
<polygon fill="grey" stroke="grey" stroke-width="2" points="1648.5,-121.93 1645,-111.93 1641.5,-121.93 1648.5,-121.93"/>
</g>
<!-- 3 -->
<g id="node4" class="node">
<title>3</title>
<path fill="none" stroke="#61d856" stroke-width="2" d="M1694.62,-324C1694.62,-324 1643.38,-324 1643.38,-324 1637.38,-324 1631.38,-318 1631.38,-312 1631.38,-312 1631.38,-300 1631.38,-300 1631.38,-294 1637.38,-288 1643.38,-288 1643.38,-288 1694.62,-288 1694.62,-288 1700.62,-288 1706.62,-294 1706.62,-300 1706.62,-300 1706.62,-312 1706.62,-312 1706.62,-318 1700.62,-324 1694.62,-324"/>
<text xml:space="preserve" text-anchor="middle" x="1669" y="-302.12" font-family="sans" font-size="10.00">prepare_ports</text>
</g>
<!-- 3&#45;&gt;2 -->
<g id="edge9" class="edge">
<title>3&#45;&gt;2</title>
<path fill="none" stroke="grey" stroke-width="2" d="M1707.55,-303.03C1742.57,-298.96 1792.41,-286.92 1817,-252 1826.21,-238.92 1826.7,-228.72 1817,-216 1782.76,-171.07 1747.91,-195.86 1690.24,-180.8"/>
<polygon fill="grey" stroke="grey" stroke-width="2" points="1691.46,-177.52 1680.88,-177.97 1689.43,-184.22 1691.46,-177.52"/>
</g>
<!-- 13 -->
<g id="node14" class="node">
<title>13</title>
<path fill="none" stroke="#5682d8" stroke-width="2" d="M1083.12,-252C1083.12,-252 986.88,-252 986.88,-252 980.88,-252 974.88,-246 974.88,-240 974.88,-240 974.88,-228 974.88,-228 974.88,-222 980.88,-216 986.88,-216 986.88,-216 1083.12,-216 1083.12,-216 1089.12,-216 1095.12,-222 1095.12,-228 1095.12,-228 1095.12,-240 1095.12,-240 1095.12,-246 1089.12,-252 1083.12,-252"/>
<text xml:space="preserve" text-anchor="middle" x="1035" y="-230.12" font-family="sans" font-size="10.00">prepare_sector_network</text>
</g>
<!-- 3&#45;&gt;13 -->
<g id="edge27" class="edge">
<title>3&#45;&gt;13</title>
<path fill="none" stroke="grey" stroke-width="2" d="M1630.58,-300.44C1601.15,-296.97 1559.52,-292.11 1523,-288 1376.05,-271.47 1204.1,-252.99 1108.56,-242.81"/>
<polygon fill="grey" stroke="grey" stroke-width="2" points="1109.2,-239.36 1098.89,-241.78 1108.46,-246.32 1109.2,-239.36"/>
</g>
<!-- 4 -->
<g id="node5" class="node">
<title>4</title>
<path fill="none" stroke="#d88d56" stroke-width="2" d="M1278.25,-756C1278.25,-756 1203.75,-756 1203.75,-756 1197.75,-756 1191.75,-750 1191.75,-744 1191.75,-744 1191.75,-732 1191.75,-732 1191.75,-726 1197.75,-720 1203.75,-720 1203.75,-720 1278.25,-720 1278.25,-720 1284.25,-720 1290.25,-726 1290.25,-732 1290.25,-732 1290.25,-744 1290.25,-744 1290.25,-750 1284.25,-756 1278.25,-756"/>
<text xml:space="preserve" text-anchor="middle" x="1241" y="-734.12" font-family="sans" font-size="10.00">process_cost_data</text>
</g>
<!-- 4&#45;&gt;1 -->
<g id="edge4" class="edge">
<title>4&#45;&gt;1</title>
<path fill="none" stroke="grey" stroke-width="2" d="M1190.91,-725.38C1145.29,-714.76 1076.07,-698.53 1016,-684 951.46,-668.39 936.62,-658.17 871,-648 470.63,-585.92 0,-784.15 0,-379 0,-379 0,-379 0,-233 0,-152.64 1262.59,-104.09 1575.49,-93.3"/>
<polygon fill="grey" stroke="grey" stroke-width="2" points="1575.48,-96.8 1585.35,-92.96 1575.24,-89.81 1575.48,-96.8"/>
</g>
<!-- 4&#45;&gt;2 -->
<g id="edge7" class="edge">
<title>4&#45;&gt;2</title>
<path fill="none" stroke="grey" stroke-width="2" d="M1291.09,-733.31C1416.68,-722.68 1735,-686.69 1735,-595 1735,-595 1735,-595 1735,-377 1735,-305.83 1692.18,-231.03 1665.62,-191.47"/>
<polygon fill="grey" stroke="grey" stroke-width="2" points="1668.55,-189.56 1660,-183.31 1662.79,-193.53 1668.55,-189.56"/>
</g>
<!-- 4&#45;&gt;13 -->
<g id="edge21" class="edge">
<title>4&#45;&gt;13</title>
<path fill="none" stroke="grey" stroke-width="2" d="M1226.9,-719.36C1207.78,-693.62 1176,-643.53 1176,-595 1176,-595 1176,-595 1176,-521 1176,-474.03 1153.93,-463.41 1119,-432 1092.4,-408.08 1065.81,-426.43 1047,-396 1038.59,-382.39 1037.05,-372.53 1047,-360 1090.99,-304.62 1158.01,-379.38 1202,-324 1211.95,-311.47 1211.45,-300.91 1202,-288 1180.48,-258.59 1142.54,-245.1 1108.25,-239.07"/>
<polygon fill="grey" stroke="grey" stroke-width="2" points="1109.22,-235.68 1098.81,-237.63 1108.17,-242.6 1109.22,-235.68"/>
</g>
<!-- 15 -->
<g id="node16" class="node">
<title>15</title>
<path fill="none" stroke="#9fd856" stroke-width="2" d="M850.5,-540C850.5,-540 789.5,-540 789.5,-540 783.5,-540 777.5,-534 777.5,-528 777.5,-528 777.5,-516 777.5,-516 777.5,-510 783.5,-504 789.5,-504 789.5,-504 850.5,-504 850.5,-504 856.5,-504 862.5,-510 862.5,-516 862.5,-516 862.5,-528 862.5,-528 862.5,-534 856.5,-540 850.5,-540"/>
<text xml:space="preserve" text-anchor="middle" x="820" y="-518.12" font-family="sans" font-size="10.00">cluster_network</text>
</g>
<!-- 4&#45;&gt;15 -->
<g id="edge38" class="edge">
<title>4&#45;&gt;15</title>
<path fill="none" stroke="grey" stroke-width="2" d="M1209.24,-719.03C1154.65,-688.38 1039.24,-624.6 939,-576 917.91,-565.77 894.38,-555.14 873.86,-546.1"/>
<polygon fill="grey" stroke="grey" stroke-width="2" points="875.5,-543 864.93,-542.2 872.69,-549.41 875.5,-543"/>
</g>
<!-- 16 -->
<g id="node17" class="node">
<title>16</title>
<path fill="none" stroke="#97d856" stroke-width="2" d="M917.75,-612C917.75,-612 852.25,-612 852.25,-612 846.25,-612 840.25,-606 840.25,-600 840.25,-600 840.25,-588 840.25,-588 840.25,-582 846.25,-576 852.25,-576 852.25,-576 917.75,-576 917.75,-576 923.75,-576 929.75,-582 929.75,-588 929.75,-588 929.75,-600 929.75,-600 929.75,-606 923.75,-612 917.75,-612"/>
<text xml:space="preserve" text-anchor="middle" x="885" y="-590.12" font-family="sans" font-size="10.00">simplify_network</text>
</g>
<!-- 4&#45;&gt;16 -->
<g id="edge41" class="edge">
<title>4&#45;&gt;16</title>
<path fill="none" stroke="grey" stroke-width="2" d="M1194,-719.04C1167.52,-708.87 1133.87,-695.85 1104,-684 1048.21,-661.87 984.69,-635.98 940.48,-617.85"/>
<polygon fill="grey" stroke="grey" stroke-width="2" points="941.92,-614.66 931.34,-614.1 939.26,-621.13 941.92,-614.66"/>
</g>
<!-- 17 -->
<g id="node18" class="node">
<title>17</title>
<path fill="none" stroke="#78d856" stroke-width="2" d="M850.5,-684C850.5,-684 795.5,-684 795.5,-684 789.5,-684 783.5,-678 783.5,-672 783.5,-672 783.5,-660 783.5,-660 783.5,-654 789.5,-648 795.5,-648 795.5,-648 850.5,-648 850.5,-648 856.5,-648 862.5,-654 862.5,-660 862.5,-660 862.5,-672 862.5,-672 862.5,-678 856.5,-684 850.5,-684"/>
<text xml:space="preserve" text-anchor="middle" x="823" y="-662.12" font-family="sans" font-size="10.00">add_electricity</text>
</g>
<!-- 4&#45;&gt;17 -->
<g id="edge44" class="edge">
<title>4&#45;&gt;17</title>
<path fill="none" stroke="grey" stroke-width="2" d="M1190.99,-728.63C1111.57,-715.33 957.3,-689.49 876.03,-675.88"/>
<polygon fill="grey" stroke="grey" stroke-width="2" points="876.82,-672.46 866.38,-674.26 875.66,-679.37 876.82,-672.46"/>
</g>
<!-- 36 -->
<g id="node37" class="node">
<title>36</title>
<path fill="none" stroke="#566bd8" stroke-width="2" d="M1454,-396C1454,-396 1390,-396 1390,-396 1384,-396 1378,-390 1378,-384 1378,-384 1378,-372 1378,-372 1378,-366 1384,-360 1390,-360 1390,-360 1454,-360 1454,-360 1460,-360 1466,-366 1466,-372 1466,-372 1466,-384 1466,-384 1466,-390 1460,-396 1454,-396"/>
<text xml:space="preserve" text-anchor="middle" x="1422" y="-374.12" font-family="sans" font-size="10.00">prepare_network</text>
</g>
<!-- 4&#45;&gt;36 -->
<g id="edge91" class="edge">
<title>4&#45;&gt;36</title>
<path fill="none" stroke="grey" stroke-width="2" d="M1267.66,-719.06C1299.93,-694.98 1350,-648.92 1350,-595 1350,-595 1350,-595 1350,-521 1350,-480.03 1354.37,-467.96 1374,-432 1379.02,-422.81 1385.94,-413.92 1392.97,-406.13"/>
<polygon fill="grey" stroke="grey" stroke-width="2" points="1395.32,-408.74 1399.7,-399.1 1390.26,-403.9 1395.32,-408.74"/>
</g>
<!-- 37 -->
<g id="node38" class="node">
<title>37</title>
<path fill="none" stroke="#d8b456" stroke-width="2" d="M1309.62,-468C1309.62,-468 1216.38,-468 1216.38,-468 1210.38,-468 1204.38,-462 1204.38,-456 1204.38,-456 1204.38,-444 1204.38,-444 1204.38,-438 1210.38,-432 1216.38,-432 1216.38,-432 1309.62,-432 1309.62,-432 1315.62,-432 1321.62,-438 1321.62,-444 1321.62,-444 1321.62,-456 1321.62,-456 1321.62,-462 1315.62,-468 1309.62,-468"/>
<text xml:space="preserve" text-anchor="middle" x="1263" y="-446.12" font-family="sans" font-size="10.00">add_extra_components</text>
</g>
<!-- 4&#45;&gt;37 -->
<g id="edge92" class="edge">
<title>4&#45;&gt;37</title>
<path fill="none" stroke="grey" stroke-width="2" d="M1242.38,-719.11C1246.03,-671.56 1256.03,-541.6 1260.63,-481.83"/>
<polygon fill="grey" stroke="grey" stroke-width="2" points="1264.11,-482.14 1261.39,-471.9 1257.14,-481.6 1264.11,-482.14"/>
</g>
<!-- 38 -->
<g id="node39" class="node">
<title>38</title>
<path fill="none" stroke="#56d87b" stroke-width="2" d="M1501.88,-324C1501.88,-324 1410.12,-324 1410.12,-324 1404.12,-324 1398.12,-318 1398.12,-312 1398.12,-312 1398.12,-300 1398.12,-300 1398.12,-294 1404.12,-288 1410.12,-288 1410.12,-288 1501.88,-288 1501.88,-288 1507.88,-288 1513.88,-294 1513.88,-300 1513.88,-300 1513.88,-312 1513.88,-312 1513.88,-318 1507.88,-324 1501.88,-324"/>
<text xml:space="preserve" text-anchor="middle" x="1456" y="-302.12" font-family="sans" font-size="10.00">build_industry_demand</text>
</g>
<!-- 4&#45;&gt;38 -->
<g id="edge96" class="edge">
<title>4&#45;&gt;38</title>
<path fill="none" stroke="grey" stroke-width="2" d="M1281.56,-719.13C1325.07,-696.88 1388,-654.43 1388,-595 1388,-595 1388,-595 1388,-521 1388,-480.55 1382.62,-464.27 1407,-432 1427.62,-404.72 1457.36,-425.3 1475,-396 1485.79,-378.07 1480.33,-354.88 1472.55,-336.66"/>
<polygon fill="grey" stroke="grey" stroke-width="2" points="1475.74,-335.21 1468.27,-327.7 1469.42,-338.23 1475.74,-335.21"/>
</g>
<!-- 5 -->
<g id="node6" class="node">
<title>5</title>
<path fill="none" stroke="#afd856" stroke-width="2" d="M870.38,-900C870.38,-900 817.62,-900 817.62,-900 811.62,-900 805.62,-894 805.62,-888 805.62,-888 805.62,-876 805.62,-876 805.62,-870 811.62,-864 817.62,-864 817.62,-864 870.38,-864 870.38,-864 876.38,-864 882.38,-870 882.38,-876 882.38,-876 882.38,-888 882.38,-888 882.38,-894 876.38,-900 870.38,-900"/>
<text xml:space="preserve" text-anchor="middle" x="844" y="-878.12" font-family="sans" font-size="10.00">base_network</text>
</g>
<!-- 5&#45;&gt;4 -->
<g id="edge10" class="edge">
<title>5&#45;&gt;4</title>
<path fill="none" stroke="grey" stroke-width="2" d="M882.9,-881.14C942.62,-879.86 1059.09,-871.41 1146,-828 1175.1,-813.47 1201.5,-787.15 1219.05,-766.89"/>
<polygon fill="grey" stroke="grey" stroke-width="2" points="1221.7,-769.17 1225.44,-759.26 1216.33,-764.68 1221.7,-769.17"/>
</g>
<!-- 5&#45;&gt;17 -->
<g id="edge43" class="edge">
<title>5&#45;&gt;17</title>
<path fill="none" stroke="grey" stroke-width="2" d="M816.99,-863.11C805.8,-854.06 794.03,-842.02 788,-828 769.06,-784.01 789.87,-728.69 806.53,-695.68"/>
<polygon fill="grey" stroke="grey" stroke-width="2" points="809.4,-697.74 810.99,-687.26 803.22,-694.47 809.4,-697.74"/>
</g>
<!-- 20 -->
<g id="node21" class="node">
<title>20</title>
<path fill="none" stroke="#569ad8" stroke-width="2" d="M1125,-828C1125,-828 1055,-828 1055,-828 1049,-828 1043,-822 1043,-816 1043,-816 1043,-804 1043,-804 1043,-798 1049,-792 1055,-792 1055,-792 1125,-792 1125,-792 1131,-792 1137,-798 1137,-804 1137,-804 1137,-816 1137,-816 1137,-822 1131,-828 1125,-828"/>
<text xml:space="preserve" text-anchor="middle" x="1090" y="-806.12" font-family="sans" font-size="10.00">build_bus_regions</text>
</g>
<!-- 5&#45;&gt;20 -->
<g id="edge54" class="edge">
<title>5&#45;&gt;20</title>
<path fill="none" stroke="grey" stroke-width="2" d="M883.15,-870.22C918.79,-860.37 973.19,-845.22 1029.67,-828.94"/>
<polygon fill="grey" stroke="grey" stroke-width="2" points="1030.58,-832.32 1039.21,-826.18 1028.64,-825.59 1030.58,-832.32"/>
</g>
<!-- 22 -->
<g id="node23" class="node">
<title>22</title>
<path fill="none" stroke="#56d8d8" stroke-width="2" d="M879,-828C879,-828 809,-828 809,-828 803,-828 797,-822 797,-816 797,-816 797,-804 797,-804 797,-798 803,-792 809,-792 809,-792 879,-792 879,-792 885,-792 891,-798 891,-804 891,-804 891,-816 891,-816 891,-822 885,-828 879,-828"/>
<text xml:space="preserve" text-anchor="middle" x="844" y="-806.12" font-family="sans" font-size="10.00">build_powerplants</text>
</g>
<!-- 5&#45;&gt;22 -->
<g id="edge58" class="edge">
<title>5&#45;&gt;22</title>
<path fill="none" stroke="grey" stroke-width="2" d="M844,-863.34C844,-856.75 844,-849.08 844,-841.67"/>
<polygon fill="grey" stroke="grey" stroke-width="2" points="847.5,-841.93 844,-831.93 840.5,-841.93 847.5,-841.93"/>
</g>
<!-- 23 -->
<g id="node24" class="node">
<title>23</title>
<path fill="none" stroke="#56d8a2" stroke-width="2" d="M745.38,-756C745.38,-756 656.62,-756 656.62,-756 650.62,-756 644.62,-750 644.62,-744 644.62,-744 644.62,-732 644.62,-732 644.62,-726 650.62,-720 656.62,-720 656.62,-720 745.38,-720 745.38,-720 751.38,-720 757.38,-726 757.38,-732 757.38,-732 757.38,-744 757.38,-744 757.38,-750 751.38,-756 745.38,-756"/>
<text xml:space="preserve" text-anchor="middle" x="701" y="-734.12" font-family="sans" font-size="10.00">build_demand_profiles</text>
</g>
<!-- 5&#45;&gt;23 -->
<g id="edge60" class="edge">
<title>5&#45;&gt;23</title>
<path fill="none" stroke="grey" stroke-width="2" d="M804.77,-863.02C788.12,-854.1 769.3,-842.18 755,-828 737.71,-810.86 723.67,-787.11 714.24,-768.46"/>
<polygon fill="grey" stroke="grey" stroke-width="2" points="717.41,-766.99 709.91,-759.51 711.11,-770.03 717.41,-766.99"/>
</g>
<!-- 6 -->
<g id="node7" class="node">
<title>6</title>
<path fill="none" stroke="#68d856" stroke-width="2" d="M885,-972C885,-972 809,-972 809,-972 803,-972 797,-966 797,-960 797,-960 797,-948 797,-948 797,-942 803,-936 809,-936 809,-936 885,-936 885,-936 891,-936 897,-942 897,-948 897,-948 897,-960 897,-960 897,-966 891,-972 885,-972"/>
<text xml:space="preserve" text-anchor="middle" x="847" y="-950.12" font-family="sans" font-size="10.00">build_osm_network</text>
</g>
<!-- 6&#45;&gt;5 -->
<g id="edge13" class="edge">
<title>6&#45;&gt;5</title>
<path fill="none" stroke="grey" stroke-width="2" d="M846.24,-935.34C845.96,-928.75 845.63,-921.08 845.31,-913.67"/>
<polygon fill="grey" stroke="grey" stroke-width="2" points="848.82,-913.77 844.9,-903.93 841.83,-914.07 848.82,-913.77"/>
</g>
<!-- 7 -->
<g id="node8" class="node">
<title>7</title>
<path fill="none" stroke="#b6d856" stroke-width="2" d="M910.62,-1044C910.62,-1044 847.38,-1044 847.38,-1044 841.38,-1044 835.38,-1038 835.38,-1032 835.38,-1032 835.38,-1020 835.38,-1020 835.38,-1014 841.38,-1008 847.38,-1008 847.38,-1008 910.62,-1008 910.62,-1008 916.62,-1008 922.62,-1014 922.62,-1020 922.62,-1020 922.62,-1032 922.62,-1032 922.62,-1038 916.62,-1044 910.62,-1044"/>
<text xml:space="preserve" text-anchor="middle" x="879" y="-1022.12" font-family="sans" font-size="10.00">clean_osm_data</text>
</g>
<!-- 7&#45;&gt;6 -->
<g id="edge14" class="edge">
<title>7&#45;&gt;6</title>
<path fill="none" stroke="grey" stroke-width="2" d="M870.93,-1007.34C867.77,-1000.43 864.06,-992.31 860.51,-984.56"/>
<polygon fill="grey" stroke="grey" stroke-width="2" points="863.78,-983.29 856.44,-975.65 857.42,-986.2 863.78,-983.29"/>
</g>
<!-- 7&#45;&gt;22 -->
<g id="edge57" class="edge">
<title>7&#45;&gt;22</title>
<path fill="none" stroke="grey" stroke-width="2" d="M890.75,-1007.19C896.58,-997.28 903.01,-984.45 906,-972 909.73,-956.44 907.64,-951.92 906,-936 902.65,-903.49 905.67,-893.21 891,-864 886.39,-854.83 879.8,-846.01 873,-838.28"/>
<polygon fill="grey" stroke="grey" stroke-width="2" points="875.57,-835.9 866.17,-831.02 870.47,-840.7 875.57,-835.9"/>
</g>
<!-- 8 -->
<g id="node9" class="node">
<title>8</title>
<path fill="none" stroke="#d85656" stroke-width="2" d="M919.62,-1116C919.62,-1116 838.38,-1116 838.38,-1116 832.38,-1116 826.38,-1110 826.38,-1104 826.38,-1104 826.38,-1092 826.38,-1092 826.38,-1086 832.38,-1080 838.38,-1080 838.38,-1080 919.62,-1080 919.62,-1080 925.62,-1080 931.62,-1086 931.62,-1092 931.62,-1092 931.62,-1104 931.62,-1104 931.62,-1110 925.62,-1116 919.62,-1116"/>
<text xml:space="preserve" text-anchor="middle" x="879" y="-1094.12" font-family="sans" font-size="10.00">download_osm_data</text>
</g>
<!-- 8&#45;&gt;7 -->
<g id="edge16" class="edge">
<title>8&#45;&gt;7</title>
<path fill="none" stroke="grey" stroke-width="2" d="M879,-1079.34C879,-1072.75 879,-1065.08 879,-1057.67"/>
<polygon fill="grey" stroke="grey" stroke-width="2" points="882.5,-1057.93 879,-1047.93 875.5,-1057.93 882.5,-1057.93"/>
</g>
<!-- 9 -->
<g id="node10" class="node">
<title>9</title>
<path fill="none" stroke="#56d8d0" stroke-width="2" d="M736.5,-1116C736.5,-1116 687.5,-1116 687.5,-1116 681.5,-1116 675.5,-1110 675.5,-1104 675.5,-1104 675.5,-1092 675.5,-1092 675.5,-1086 681.5,-1080 687.5,-1080 687.5,-1080 736.5,-1080 736.5,-1080 742.5,-1080 748.5,-1086 748.5,-1092 748.5,-1092 748.5,-1104 748.5,-1104 748.5,-1110 742.5,-1116 736.5,-1116"/>
<text xml:space="preserve" text-anchor="middle" x="712" y="-1094.12" font-family="sans" font-size="10.00">build_shapes</text>
</g>
<!-- 9&#45;&gt;5 -->
<g id="edge12" class="edge">
<title>9&#45;&gt;5</title>
<path fill="none" stroke="grey" stroke-width="2" d="M724.12,-1079.31C730.75,-1069.22 738.84,-1056.19 745,-1044 768.3,-997.89 759,-978.76 788,-936 794.43,-926.52 802.81,-917.46 811.12,-909.6"/>
<polygon fill="grey" stroke="grey" stroke-width="2" points="813.38,-912.27 818.48,-902.99 808.7,-907.07 813.38,-912.27"/>
</g>
<!-- 9&#45;&gt;6 -->
<g id="edge15" class="edge">
<title>9&#45;&gt;6</title>
<path fill="none" stroke="grey" stroke-width="2" d="M739.87,-1079.17C753.66,-1069.64 770.06,-1057.17 783,-1044 800.92,-1025.76 817.66,-1002.15 829.52,-983.84"/>
<polygon fill="grey" stroke="grey" stroke-width="2" points="832.4,-985.82 834.79,-975.5 826.49,-982.08 832.4,-985.82"/>
</g>
<!-- 9&#45;&gt;7 -->
<g id="edge17" class="edge">
<title>9&#45;&gt;7</title>
<path fill="none" stroke="grey" stroke-width="2" d="M749.48,-1081.29C771.63,-1072.01 800.06,-1060.09 824.64,-1049.79"/>
<polygon fill="grey" stroke="grey" stroke-width="2" points="825.69,-1053.14 833.56,-1046.05 822.98,-1046.69 825.69,-1053.14"/>
</g>
<!-- 9&#45;&gt;15 -->
<g id="edge37" class="edge">
<title>9&#45;&gt;15</title>
<path fill="none" stroke="grey" stroke-width="2" d="M677.06,-1079.13C637.65,-1056.2 579,-1012.42 579,-955 579,-955 579,-955 579,-665 579,-579.62 692.66,-544.54 763.87,-530.94"/>
<polygon fill="grey" stroke="grey" stroke-width="2" points="764.43,-534.39 773.66,-529.18 763.19,-527.5 764.43,-534.39"/>
</g>
<!-- 9&#45;&gt;17 -->
<g id="edge46" class="edge">
<title>9&#45;&gt;17</title>
<path fill="none" stroke="grey" stroke-width="2" d="M689.97,-1079.36C661.9,-1054.74 617,-1007.2 617,-955 617,-955 617,-955 617,-809 617,-768.55 608.36,-749.53 636,-720 670.2,-683.47 727.54,-671.48 769.72,-667.85"/>
<polygon fill="grey" stroke="grey" stroke-width="2" points="769.81,-671.35 779.54,-667.17 769.32,-664.37 769.81,-671.35"/>
</g>
<!-- 18 -->
<g id="node19" class="node">
<title>18</title>
<path fill="none" stroke="#56d86b" stroke-width="2" d="M961.25,-756C961.25,-756 862.75,-756 862.75,-756 856.75,-756 850.75,-750 850.75,-744 850.75,-744 850.75,-732 850.75,-732 850.75,-726 856.75,-720 862.75,-720 862.75,-720 961.25,-720 961.25,-720 967.25,-720 973.25,-726 973.25,-732 973.25,-732 973.25,-744 973.25,-744 973.25,-750 967.25,-756 961.25,-756"/>
<text xml:space="preserve" text-anchor="middle" x="912" y="-734.12" font-family="sans" font-size="10.00">build_renewable_profiles</text>
</g>
<!-- 9&#45;&gt;18 -->
<g id="edge51" class="edge">
<title>9&#45;&gt;18</title>
<path fill="none" stroke="grey" stroke-width="2" d="M749.31,-1090.28C809.89,-1079.19 926.89,-1057.01 967,-1044 1058.77,-1014.23 1165,-1051.48 1165,-955 1165,-955 1165,-955 1165,-881 1165,-840.55 1174.42,-820.78 1146,-792 1123.95,-769.67 1046.77,-755.26 987.02,-747.19"/>
<polygon fill="grey" stroke="grey" stroke-width="2" points="987.54,-743.73 977.17,-745.91 986.64,-750.67 987.54,-743.73"/>
</g>
<!-- 9&#45;&gt;20 -->
<g id="edge55" class="edge">
<title>9&#45;&gt;20</title>
<path fill="none" stroke="grey" stroke-width="2" d="M749.15,-1091.38C803.81,-1082.55 902.61,-1064.35 932,-1044 1007.41,-991.78 1057.16,-890.91 1078.35,-840.78"/>
<polygon fill="grey" stroke="grey" stroke-width="2" points="1081.52,-842.29 1082.09,-831.71 1075.05,-839.63 1081.52,-842.29"/>
</g>
<!-- 21 -->
<g id="node22" class="node">
<title>21</title>
<path fill="none" stroke="#d87d56" stroke-width="2" d="M531.25,-828C531.25,-828 474.75,-828 474.75,-828 468.75,-828 462.75,-822 462.75,-816 462.75,-816 462.75,-804 462.75,-804 462.75,-798 468.75,-792 474.75,-792 474.75,-792 531.25,-792 531.25,-792 537.25,-792 543.25,-798 543.25,-804 543.25,-804 543.25,-816 543.25,-816 543.25,-822 537.25,-828 531.25,-828"/>
<text xml:space="preserve" text-anchor="middle" x="503" y="-806.12" font-family="sans" font-size="10.00">retrieve_cutout</text>
</g>
<!-- 9&#45;&gt;21 -->
<g id="edge56" class="edge">
<title>9&#45;&gt;21</title>
<path fill="none" stroke="grey" stroke-width="2" d="M674.69,-1093.23C641.32,-1087.88 593.43,-1074.98 565,-1044 512.6,-986.89 503.57,-890.5 502.58,-841.53"/>
<polygon fill="grey" stroke="grey" stroke-width="2" points="506.08,-841.78 502.51,-831.8 499.08,-841.83 506.08,-841.78"/>
</g>
<!-- 9&#45;&gt;22 -->
<g id="edge59" class="edge">
<title>9&#45;&gt;22</title>
<path fill="none" stroke="grey" stroke-width="2" d="M715.72,-1079.17C724.79,-1038.52 750.7,-936.87 797,-864 802.66,-855.1 809.8,-846.21 816.8,-838.33"/>
<polygon fill="grey" stroke="grey" stroke-width="2" points="819.19,-840.89 823.41,-831.18 814.05,-836.14 819.19,-840.89"/>
</g>
<!-- 9&#45;&gt;23 -->
<g id="edge61" class="edge">
<title>9&#45;&gt;23</title>
<path fill="none" stroke="grey" stroke-width="2" d="M708.06,-1079.17C702.5,-1052.36 693,-1000.02 693,-955 693,-955 693,-955 693,-881 693,-842.59 695.95,-798.43 698.27,-769.69"/>
<polygon fill="grey" stroke="grey" stroke-width="2" points="701.74,-770.19 699.09,-759.93 694.77,-769.6 701.74,-770.19"/>
</g>
<!-- 28 -->
<g id="node29" class="node">
<title>28</title>
<path fill="none" stroke="#8fd856" stroke-width="2" d="M428.25,-540C428.25,-540 329.75,-540 329.75,-540 323.75,-540 317.75,-534 317.75,-528 317.75,-528 317.75,-516 317.75,-516 317.75,-510 323.75,-504 329.75,-504 329.75,-504 428.25,-504 428.25,-504 434.25,-504 440.25,-510 440.25,-516 440.25,-516 440.25,-528 440.25,-528 440.25,-534 434.25,-540 428.25,-540"/>
<text xml:space="preserve" text-anchor="middle" x="379" y="-518.12" font-family="sans" font-size="10.00">build_population_layouts</text>
</g>
<!-- 9&#45;&gt;28 -->
<g id="edge69" class="edge">
<title>9&#45;&gt;28</title>
<path fill="none" stroke="grey" stroke-width="2" d="M674.82,-1092.51C572.27,-1079.12 293,-1035.26 293,-955 293,-955 293,-955 293,-665 293,-624.55 290.65,-610.36 312,-576 318.56,-565.43 328.02,-556.1 337.76,-548.33"/>
<polygon fill="grey" stroke="grey" stroke-width="2" points="339.53,-551.38 345.49,-542.61 335.37,-545.75 339.53,-551.38"/>
</g>
<!-- 10 -->
<g id="node11" class="node">
<title>10</title>
<path fill="none" stroke="#d8bc56" stroke-width="2" d="M648,-1188C648,-1188 548,-1188 548,-1188 542,-1188 536,-1182 536,-1176 536,-1176 536,-1164 536,-1164 536,-1158 542,-1152 548,-1152 548,-1152 648,-1152 648,-1152 654,-1152 660,-1158 660,-1164 660,-1164 660,-1176 660,-1176 660,-1182 654,-1188 648,-1188"/>
<text xml:space="preserve" text-anchor="middle" x="598" y="-1166.12" font-family="sans" font-size="10.00">retrieve_databundle_light</text>
</g>
<!-- 10&#45;&gt;9 -->
<g id="edge18" class="edge">
<title>10&#45;&gt;9</title>
<path fill="none" stroke="grey" stroke-width="2" d="M627.06,-1151.15C640.73,-1142.76 657.24,-1132.62 672.06,-1123.52"/>
<polygon fill="grey" stroke="grey" stroke-width="2" points="673.72,-1126.61 680.41,-1118.4 670.06,-1120.65 673.72,-1126.61"/>
</g>
<!-- 10&#45;&gt;18 -->
<g id="edge50" class="edge">
<title>10&#45;&gt;18</title>
<path fill="none" stroke="grey" stroke-width="2" d="M660.75,-1167.5C815.52,-1162.09 1203,-1137.52 1203,-1027 1203,-1027 1203,-1027 1203,-881 1203,-838.81 1202.02,-819.47 1170,-792 1142.92,-768.76 1052.94,-754.16 986.84,-746.3"/>
<polygon fill="grey" stroke="grey" stroke-width="2" points="987.3,-742.83 976.97,-745.16 986.5,-749.78 987.3,-742.83"/>
</g>
<!-- 10&#45;&gt;23 -->
<g id="edge63" class="edge">
<title>10&#45;&gt;23</title>
<path fill="none" stroke="grey" stroke-width="2" d="M575.97,-1151.36C547.9,-1126.74 503,-1079.2 503,-1027 503,-1027 503,-1027 503,-953 503,-864.5 595.36,-797.07 653.92,-763.2"/>
<polygon fill="grey" stroke="grey" stroke-width="2" points="655.51,-766.32 662.51,-758.37 652.08,-760.22 655.51,-766.32"/>
</g>
<!-- 35 -->
<g id="node36" class="node">
<title>35</title>
<path fill="none" stroke="#56d892" stroke-width="2" d="M135.75,-468C135.75,-468 40.25,-468 40.25,-468 34.25,-468 28.25,-462 28.25,-456 28.25,-456 28.25,-444 28.25,-444 28.25,-438 34.25,-432 40.25,-432 40.25,-432 135.75,-432 135.75,-432 141.75,-432 147.75,-438 147.75,-444 147.75,-444 147.75,-456 147.75,-456 147.75,-462 141.75,-468 135.75,-468"/>
<text xml:space="preserve" text-anchor="middle" x="88" y="-446.12" font-family="sans" font-size="10.00">cluster_global_buildings</text>
</g>
<!-- 10&#45;&gt;35 -->
<g id="edge89" class="edge">
<title>10&#45;&gt;35</title>
<path fill="none" stroke="grey" stroke-width="2" d="M535.19,-1164.62C399.68,-1153.46 92,-1118.07 92,-1027 92,-1027 92,-1027 92,-593 92,-554.64 90.52,-510.47 89.36,-481.71"/>
<polygon fill="grey" stroke="grey" stroke-width="2" points="92.87,-481.8 88.96,-471.95 85.88,-482.09 92.87,-481.8"/>
</g>
<!-- 11 -->
<g id="node12" class="node">
<title>11</title>
<path fill="none" stroke="#59d856" stroke-width="2" d="M1353.12,-828C1353.12,-828 1280.88,-828 1280.88,-828 1274.88,-828 1268.88,-822 1268.88,-816 1268.88,-816 1268.88,-804 1268.88,-804 1268.88,-798 1274.88,-792 1280.88,-792 1280.88,-792 1353.12,-792 1353.12,-792 1359.12,-792 1365.12,-798 1365.12,-804 1365.12,-804 1365.12,-816 1365.12,-816 1365.12,-822 1359.12,-828 1353.12,-828"/>
<text xml:space="preserve" text-anchor="middle" x="1317" y="-806.12" font-family="sans" font-size="10.00">retrieve_cost_data</text>
</g>
<!-- 11&#45;&gt;4 -->
<g id="edge11" class="edge">
<title>11&#45;&gt;4</title>
<path fill="none" stroke="grey" stroke-width="2" d="M1297.82,-791.34C1289.34,-783.52 1279.18,-774.16 1269.81,-765.53"/>
<polygon fill="grey" stroke="grey" stroke-width="2" points="1272.39,-763.15 1262.66,-758.95 1267.65,-768.3 1272.39,-763.15"/>
</g>
<!-- 12 -->
<g id="node13" class="node">
<title>12</title>
<path fill="none" stroke="#56d89a" stroke-width="2" d="M1795.5,-252C1795.5,-252 1728.5,-252 1728.5,-252 1722.5,-252 1716.5,-246 1716.5,-240 1716.5,-240 1716.5,-228 1716.5,-228 1716.5,-222 1722.5,-216 1728.5,-216 1728.5,-216 1795.5,-216 1795.5,-216 1801.5,-216 1807.5,-222 1807.5,-228 1807.5,-228 1807.5,-240 1807.5,-240 1807.5,-246 1801.5,-252 1795.5,-252"/>
<text xml:space="preserve" text-anchor="middle" x="1762" y="-230.12" font-family="sans" font-size="10.00">build_ship_profile</text>
</g>
<!-- 12&#45;&gt;2 -->
<g id="edge5" class="edge">
<title>12&#45;&gt;2</title>
<path fill="none" stroke="grey" stroke-width="2" d="M1732.17,-215.15C1718.01,-206.68 1700.86,-196.42 1685.54,-187.25"/>
<polygon fill="grey" stroke="grey" stroke-width="2" points="1687.75,-184.5 1677.37,-182.37 1684.15,-190.5 1687.75,-184.5"/>
</g>
<!-- 13&#45;&gt;2 -->
<g id="edge8" class="edge">
<title>13&#45;&gt;2</title>
<path fill="none" stroke="grey" stroke-width="2" d="M1096,-226C1218.38,-211.96 1491.38,-180.63 1599.57,-168.21"/>
<polygon fill="grey" stroke="grey" stroke-width="2" points="1599.68,-171.72 1609.22,-167.11 1598.88,-164.77 1599.68,-171.72"/>
</g>
<!-- 14 -->
<g id="node15" class="node">
<title>14</title>
<path fill="none" stroke="#5673d8" stroke-width="2" d="M772.88,-324C772.88,-324 681.12,-324 681.12,-324 675.12,-324 669.12,-318 669.12,-312 669.12,-312 669.12,-300 669.12,-300 669.12,-294 675.12,-288 681.12,-288 681.12,-288 772.88,-288 772.88,-288 778.88,-288 784.88,-294 784.88,-300 784.88,-300 784.88,-312 784.88,-312 784.88,-318 778.88,-324 772.88,-324"/>
<text xml:space="preserve" text-anchor="middle" x="727" y="-302.12" font-family="sans" font-size="10.00">prepare_transport_data</text>
</g>
<!-- 14&#45;&gt;13 -->
<g id="edge26" class="edge">
<title>14&#45;&gt;13</title>
<path fill="none" stroke="grey" stroke-width="2" d="M785.66,-291.67C835.59,-280.32 907.56,-263.96 961.36,-251.74"/>
<polygon fill="grey" stroke="grey" stroke-width="2" points="962,-255.18 970.97,-249.55 960.45,-248.35 962,-255.18"/>
</g>
<!-- 15&#45;&gt;2 -->
<g id="edge6" class="edge">
<title>15&#45;&gt;2</title>
<path fill="none" stroke="grey" stroke-width="2" d="M863.25,-520.66C1012.11,-519.13 1497.14,-510.86 1551,-468 1594.8,-433.15 1628.01,-263.35 1640.07,-193.3"/>
<polygon fill="grey" stroke="grey" stroke-width="2" points="1643.48,-194.12 1641.69,-183.68 1636.58,-192.96 1643.48,-194.12"/>
</g>
<!-- 15&#45;&gt;13 -->
<g id="edge23" class="edge">
<title>15&#45;&gt;13</title>
<path fill="none" stroke="grey" stroke-width="2" d="M836.1,-503.31C856.89,-479.9 893.44,-436.83 919,-396 947.27,-350.84 938.17,-329.96 971,-288 978.79,-278.05 988.73,-268.7 998.46,-260.71"/>
<polygon fill="grey" stroke="grey" stroke-width="2" points="1000.31,-263.71 1006.02,-254.78 995.99,-258.2 1000.31,-263.71"/>
</g>
<!-- 15&#45;&gt;14 -->
<g id="edge32" class="edge">
<title>15&#45;&gt;14</title>
<path fill="none" stroke="grey" stroke-width="2" d="M819.17,-503.26C817.64,-484.52 813.3,-454.63 801,-432 790.19,-412.12 777.67,-414.75 765,-396 752.66,-377.74 742.99,-354.83 736.49,-336.83"/>
<polygon fill="grey" stroke="grey" stroke-width="2" points="739.87,-335.9 733.31,-327.58 733.25,-338.18 739.87,-335.9"/>
</g>
<!-- 27 -->
<g id="node28" class="node">
<title>27</title>
<path fill="none" stroke="#56d863" stroke-width="2" d="M779.75,-468C779.75,-468 636.25,-468 636.25,-468 630.25,-468 624.25,-462 624.25,-456 624.25,-456 624.25,-444 624.25,-444 624.25,-438 630.25,-432 636.25,-432 636.25,-432 779.75,-432 779.75,-432 785.75,-432 791.75,-438 791.75,-444 791.75,-444 791.75,-456 791.75,-456 791.75,-462 785.75,-468 779.75,-468"/>
<text xml:space="preserve" text-anchor="middle" x="708" y="-446.12" font-family="sans" font-size="10.00">build_clustered_population_layouts</text>
</g>
<!-- 15&#45;&gt;27 -->
<g id="edge67" class="edge">
<title>15&#45;&gt;27</title>
<path fill="none" stroke="grey" stroke-width="2" d="M791.45,-503.15C778.02,-494.76 761.79,-484.62 747.24,-475.52"/>
<polygon fill="grey" stroke="grey" stroke-width="2" points="749.4,-472.75 739.07,-470.42 745.69,-478.68 749.4,-472.75"/>
</g>
<!-- 30 -->
<g id="node31" class="node">
<title>30</title>
<path fill="none" stroke="#56d0d8" stroke-width="2" d="M556,-468C556,-468 450,-468 450,-468 444,-468 438,-462 438,-456 438,-456 438,-444 438,-444 438,-438 444,-432 450,-432 450,-432 556,-432 556,-432 562,-432 568,-438 568,-444 568,-444 568,-456 568,-456 568,-462 562,-468 556,-468"/>
<text xml:space="preserve" text-anchor="middle" x="503" y="-446.12" font-family="sans" font-size="10.00">build_temperature_profiles</text>
</g>
<!-- 15&#45;&gt;30 -->
<g id="edge73" class="edge">
<title>15&#45;&gt;30</title>
<path fill="none" stroke="grey" stroke-width="2" d="M776.59,-511.41C726.38,-500.33 642.74,-481.86 581.13,-468.25"/>
<polygon fill="grey" stroke="grey" stroke-width="2" points="582.21,-464.91 571.69,-466.17 580.7,-471.74 582.21,-464.91"/>
</g>
<!-- 31 -->
<g id="node32" class="node">
<title>31</title>
<path fill="none" stroke="#d6d856" stroke-width="2" d="M451.12,-324C451.12,-324 378.88,-324 378.88,-324 372.88,-324 366.88,-318 366.88,-312 366.88,-312 366.88,-300 366.88,-300 366.88,-294 372.88,-288 378.88,-288 378.88,-288 451.12,-288 451.12,-288 457.12,-288 463.12,-294 463.12,-300 463.12,-300 463.12,-312 463.12,-312 463.12,-318 457.12,-324 451.12,-324"/>
<text xml:space="preserve" text-anchor="middle" x="415" y="-302.12" font-family="sans" font-size="10.00">prepare_heat_data</text>
</g>
<!-- 15&#45;&gt;31 -->
<g id="edge77" class="edge">
<title>15&#45;&gt;31</title>
<path fill="none" stroke="grey" stroke-width="2" d="M776.84,-516.25C733.67,-510.07 666.46,-496.49 615,-468 594.65,-456.73 596.9,-444.05 577,-432 534.8,-406.45 510.8,-426.47 472,-396 452.14,-380.4 437.16,-355.85 427.55,-336.48"/>
<polygon fill="grey" stroke="grey" stroke-width="2" points="430.83,-335.24 423.42,-327.67 424.5,-338.21 430.83,-335.24"/>
</g>
<!-- 33 -->
<g id="node34" class="node">
<title>33</title>
<path fill="none" stroke="#56d873" stroke-width="2" d="M290.38,-468C290.38,-468 177.62,-468 177.62,-468 171.62,-468 165.62,-462 165.62,-456 165.62,-456 165.62,-444 165.62,-444 165.62,-438 171.62,-432 177.62,-432 177.62,-432 290.38,-432 290.38,-432 296.38,-432 302.38,-438 302.38,-444 302.38,-444 302.38,-456 302.38,-456 302.38,-462 296.38,-468 290.38,-468"/>
<text xml:space="preserve" text-anchor="middle" x="234" y="-446.12" font-family="sans" font-size="10.00">build_solar_thermal_profiles</text>
</g>
<!-- 15&#45;&gt;33 -->
<g id="edge84" class="edge">
<title>15&#45;&gt;33</title>
<path fill="none" stroke="grey" stroke-width="2" d="M776.54,-518.15C690.43,-512.13 491.84,-496.48 315.82,-468.69"/>
<polygon fill="grey" stroke="grey" stroke-width="2" points="316.61,-465.27 306.18,-467.14 315.5,-472.18 316.61,-465.27"/>
</g>
<!-- 34 -->
<g id="node35" class="node">
<title>34</title>
<path fill="none" stroke="#d86e56" stroke-width="2" d="M408,-468C408,-468 332,-468 332,-468 326,-468 320,-462 320,-456 320,-456 320,-444 320,-444 320,-438 326,-432 332,-432 332,-432 408,-432 408,-432 414,-432 420,-438 420,-444 420,-444 420,-456 420,-456 420,-462 414,-468 408,-468"/>
<text xml:space="preserve" text-anchor="middle" x="370" y="-446.12" font-family="sans" font-size="10.00">build_heat_demand</text>
</g>
<!-- 15&#45;&gt;34 -->
<g id="edge87" class="edge">
<title>15&#45;&gt;34</title>
<path fill="none" stroke="grey" stroke-width="2" d="M776.54,-517.2C706.26,-510.6 563.15,-495.3 433.26,-468.73"/>
<polygon fill="grey" stroke="grey" stroke-width="2" points="434.2,-465.35 423.69,-466.74 432.77,-472.21 434.2,-465.35"/>
</g>
<!-- 15&#45;&gt;35 -->
<g id="edge88" class="edge">
<title>15&#45;&gt;35</title>
<path fill="none" stroke="grey" stroke-width="2" d="M776.66,-519.96C672.26,-516.94 398.52,-505.94 161.17,-468.52"/>
<polygon fill="grey" stroke="grey" stroke-width="2" points="161.88,-465.09 151.46,-466.96 160.78,-472 161.88,-465.09"/>
</g>
<!-- 15&#45;&gt;37 -->
<g id="edge93" class="edge">
<title>15&#45;&gt;37</title>
<path fill="none" stroke="grey" stroke-width="2" d="M863.28,-514.16C939.39,-502.14 1097.89,-477.09 1190.81,-462.41"/>
<polygon fill="grey" stroke="grey" stroke-width="2" points="1191.15,-465.9 1200.48,-460.88 1190.05,-458.98 1191.15,-465.9"/>
</g>
<!-- 39 -->
<g id="node40" class="node">
<title>39</title>
<path fill="none" stroke="#d86656" stroke-width="2" d="M1348,-396C1348,-396 1218,-396 1218,-396 1212,-396 1206,-390 1206,-384 1206,-384 1206,-372 1206,-372 1206,-366 1212,-360 1218,-360 1218,-360 1348,-360 1348,-360 1354,-360 1360,-366 1360,-372 1360,-372 1360,-384 1360,-384 1360,-390 1354,-396 1348,-396"/>
<text xml:space="preserve" text-anchor="middle" x="1283" y="-374.12" font-family="sans" font-size="10.00">build_industrial_distribution_key</text>
</g>
<!-- 15&#45;&gt;39 -->
<g id="edge101" class="edge">
<title>15&#45;&gt;39</title>
<path fill="none" stroke="grey" stroke-width="2" d="M863.44,-517.7C922.63,-512.23 1031.29,-498.66 1119,-468 1143.55,-459.42 1201.8,-426.6 1241.83,-403.32"/>
<polygon fill="grey" stroke="grey" stroke-width="2" points="1243.36,-406.48 1250.23,-398.41 1239.83,-400.43 1243.36,-406.48"/>
</g>
<!-- 46 -->
<g id="node47" class="node">
<title>46</title>
<path fill="none" stroke="#d8a456" stroke-width="2" d="M1077.5,-324C1077.5,-324 992.5,-324 992.5,-324 986.5,-324 980.5,-318 980.5,-312 980.5,-312 980.5,-300 980.5,-300 980.5,-294 986.5,-288 992.5,-288 992.5,-288 1077.5,-288 1077.5,-288 1083.5,-288 1089.5,-294 1089.5,-300 1089.5,-300 1089.5,-312 1089.5,-312 1089.5,-318 1083.5,-324 1077.5,-324"/>
<text xml:space="preserve" text-anchor="middle" x="1035" y="-302.12" font-family="sans" font-size="10.00">prepare_gas_network</text>
</g>
<!-- 15&#45;&gt;46 -->
<g id="edge106" class="edge">
<title>15&#45;&gt;46</title>
<path fill="none" stroke="grey" stroke-width="2" d="M863.47,-507C885.72,-498.3 912.22,-485.41 932,-468 974.37,-430.7 1005.91,-371.88 1022.3,-336.61"/>
<polygon fill="grey" stroke="grey" stroke-width="2" points="1025.48,-338.08 1026.41,-327.53 1019.1,-335.2 1025.48,-338.08"/>
</g>
<!-- 16&#45;&gt;15 -->
<g id="edge36" class="edge">
<title>16&#45;&gt;15</title>
<path fill="none" stroke="grey" stroke-width="2" d="M868.6,-575.34C861.57,-567.77 853.2,-558.75 845.4,-550.35"/>
<polygon fill="grey" stroke="grey" stroke-width="2" points="848.05,-548.07 838.68,-543.12 842.92,-552.83 848.05,-548.07"/>
</g>
<!-- 17&#45;&gt;16 -->
<g id="edge39" class="edge">
<title>17&#45;&gt;16</title>
<path fill="none" stroke="grey" stroke-width="2" d="M838.65,-647.34C845.28,-639.85 853.16,-630.95 860.53,-622.63"/>
<polygon fill="grey" stroke="grey" stroke-width="2" points="863.13,-624.97 867.14,-615.17 857.89,-620.33 863.13,-624.97"/>
</g>
<!-- 18&#45;&gt;17 -->
<g id="edge42" class="edge">
<title>18&#45;&gt;17</title>
<path fill="none" stroke="grey" stroke-width="2" d="M889.54,-719.34C879.29,-711.27 866.95,-701.57 855.7,-692.72"/>
<polygon fill="grey" stroke="grey" stroke-width="2" points="858.16,-690.2 848.14,-686.77 853.84,-695.71 858.16,-690.2"/>
</g>
<!-- 19 -->
<g id="node20" class="node">
<title>19</title>
<path fill="none" stroke="#56d85b" stroke-width="2" d="M1012.5,-828C1012.5,-828 921.5,-828 921.5,-828 915.5,-828 909.5,-822 909.5,-816 909.5,-816 909.5,-804 909.5,-804 909.5,-798 915.5,-792 921.5,-792 921.5,-792 1012.5,-792 1012.5,-792 1018.5,-792 1024.5,-798 1024.5,-804 1024.5,-804 1024.5,-816 1024.5,-816 1024.5,-822 1018.5,-828 1012.5,-828"/>
<text xml:space="preserve" text-anchor="middle" x="967" y="-806.12" font-family="sans" font-size="10.00">copy_defaultnatura_tiff</text>
</g>
<!-- 19&#45;&gt;18 -->
<g id="edge53" class="edge">
<title>19&#45;&gt;18</title>
<path fill="none" stroke="grey" stroke-width="2" d="M953.12,-791.34C947.3,-783.93 940.4,-775.14 933.92,-766.9"/>
<polygon fill="grey" stroke="grey" stroke-width="2" points="936.87,-764.98 927.94,-759.28 931.36,-769.31 936.87,-764.98"/>
</g>
<!-- 20&#45;&gt;16 -->
<g id="edge40" class="edge">
<title>20&#45;&gt;16</title>
<path fill="none" stroke="grey" stroke-width="2" d="M1072.87,-791.12C1037,-753.67 953.76,-666.78 911.15,-622.3"/>
<polygon fill="grey" stroke="grey" stroke-width="2" points="913.76,-619.96 904.32,-615.16 908.71,-624.81 913.76,-619.96"/>
</g>
<!-- 20&#45;&gt;18 -->
<g id="edge49" class="edge">
<title>20&#45;&gt;18</title>
<path fill="none" stroke="grey" stroke-width="2" d="M1044.62,-791.15C1021.8,-782.18 993.89,-771.21 969.58,-761.64"/>
<polygon fill="grey" stroke="grey" stroke-width="2" points="971.01,-758.44 960.42,-758.04 968.45,-764.96 971.01,-758.44"/>
</g>
<!-- 20&#45;&gt;23 -->
<g id="edge62" class="edge">
<title>20&#45;&gt;23</title>
<path fill="none" stroke="grey" stroke-width="2" d="M1042.23,-794.26C1039.12,-793.45 1036.02,-792.69 1033,-792 943.31,-771.56 838.23,-756.2 770.7,-747.41"/>
<polygon fill="grey" stroke="grey" stroke-width="2" points="771.49,-743.99 761.13,-746.18 770.6,-750.93 771.49,-743.99"/>
</g>
<!-- 21&#45;&gt;18 -->
<g id="edge48" class="edge">
<title>21&#45;&gt;18</title>
<path fill="none" stroke="grey" stroke-width="2" d="M544.09,-801.97C612.59,-790.24 751.08,-766.54 837.24,-751.8"/>
<polygon fill="grey" stroke="grey" stroke-width="2" points="837.83,-755.25 847.09,-750.11 836.65,-748.35 837.83,-755.25"/>
</g>
<!-- 21&#45;&gt;27 -->
<g id="edge66" class="edge">
<title>21&#45;&gt;27</title>
<path fill="none" stroke="grey" stroke-width="2" d="M511.06,-791.03C522.21,-764.48 541,-712.94 541,-667 541,-667 541,-667 541,-593 541,-535.64 598.89,-496.6 646.5,-474.19"/>
<polygon fill="grey" stroke="grey" stroke-width="2" points="647.91,-477.39 655.59,-470.09 645.03,-471.01 647.91,-477.39"/>
</g>
<!-- 21&#45;&gt;28 -->
<g id="edge68" class="edge">
<title>21&#45;&gt;28</title>
<path fill="none" stroke="grey" stroke-width="2" d="M498.25,-791.35C495.5,-781.06 492,-767.81 489,-756 468.7,-676.18 489.23,-645.47 445,-576 438.39,-565.62 429.05,-556.36 419.46,-548.6"/>
<polygon fill="grey" stroke="grey" stroke-width="2" points="421.6,-545.83 411.51,-542.61 417.39,-551.42 421.6,-545.83"/>
</g>
<!-- 21&#45;&gt;30 -->
<g id="edge72" class="edge">
<title>21&#45;&gt;30</title>
<path fill="none" stroke="grey" stroke-width="2" d="M503,-791.07C503,-764.13 503,-711.62 503,-667 503,-667 503,-667 503,-593 503,-554.65 503,-510.48 503,-481.72"/>
<polygon fill="grey" stroke="grey" stroke-width="2" points="506.5,-481.96 503,-471.96 499.5,-481.96 506.5,-481.96"/>
</g>
<!-- 21&#45;&gt;33 -->
<g id="edge83" class="edge">
<title>21&#45;&gt;33</title>
<path fill="none" stroke="grey" stroke-width="2" d="M461.97,-809.19C374.78,-807.23 179,-789.22 179,-667 179,-667 179,-667 179,-593 179,-551.59 199.59,-507.7 215.57,-479.86"/>
<polygon fill="grey" stroke="grey" stroke-width="2" points="218.4,-481.95 220.52,-471.57 212.39,-478.37 218.4,-481.95"/>
</g>
<!-- 21&#45;&gt;34 -->
<g id="edge86" class="edge">
<title>21&#45;&gt;34</title>
<path fill="none" stroke="grey" stroke-width="2" d="M475.81,-791.13C431.96,-760.52 346.98,-693.41 312,-612 293.04,-567.88 289.08,-547.69 309,-504 313.68,-493.72 321.45,-484.67 329.91,-477.09"/>
<polygon fill="grey" stroke="grey" stroke-width="2" points="332.1,-479.81 337.65,-470.78 327.68,-474.38 332.1,-479.81"/>
</g>
<!-- 22&#45;&gt;17 -->
<g id="edge47" class="edge">
<title>22&#45;&gt;17</title>
<path fill="none" stroke="grey" stroke-width="2" d="M841.34,-791.02C837.87,-767.54 831.74,-726.11 827.53,-697.64"/>
<polygon fill="grey" stroke="grey" stroke-width="2" points="831.01,-697.21 826.08,-687.83 824.08,-698.24 831.01,-697.21"/>
</g>
<!-- 22&#45;&gt;18 -->
<g id="edge52" class="edge">
<title>22&#45;&gt;18</title>
<path fill="none" stroke="grey" stroke-width="2" d="M861.16,-791.34C868.59,-783.69 877.46,-774.56 885.69,-766.08"/>
<polygon fill="grey" stroke="grey" stroke-width="2" points="888.04,-768.68 892.5,-759.07 883.02,-763.81 888.04,-768.68"/>
</g>
<!-- 23&#45;&gt;17 -->
<g id="edge45" class="edge">
<title>23&#45;&gt;17</title>
<path fill="none" stroke="grey" stroke-width="2" d="M732.1,-719.15C746.87,-710.68 764.75,-700.42 780.73,-691.25"/>
<polygon fill="grey" stroke="grey" stroke-width="2" points="782.4,-694.33 789.33,-686.32 778.91,-688.26 782.4,-694.33"/>
</g>
<!-- 24 -->
<g id="node25" class="node">
<title>24</title>
<path fill="none" stroke="#567bd8" stroke-width="2" d="M874,-396C874,-396 786,-396 786,-396 780,-396 774,-390 774,-384 774,-384 774,-372 774,-372 774,-366 780,-360 786,-360 786,-360 874,-360 874,-360 880,-360 886,-366 886,-372 886,-372 886,-384 886,-384 886,-390 880,-396 874,-396"/>
<text xml:space="preserve" text-anchor="middle" x="830" y="-374.12" font-family="sans" font-size="10.00">prepare_energy_totals</text>
</g>
<!-- 24&#45;&gt;13 -->
<g id="edge25" class="edge">
<title>24&#45;&gt;13</title>
<path fill="none" stroke="grey" stroke-width="2" d="M839.95,-359.31C851.89,-339.49 873.65,-307.58 900,-288 918.41,-274.31 940.82,-263.65 962.05,-255.6"/>
<polygon fill="grey" stroke="grey" stroke-width="2" points="962.97,-258.99 971.18,-252.31 960.59,-252.41 962.97,-258.99"/>
</g>
<!-- 24&#45;&gt;14 -->
<g id="edge33" class="edge">
<title>24&#45;&gt;14</title>
<path fill="none" stroke="grey" stroke-width="2" d="M803.74,-359.15C791.64,-350.93 777.06,-341.02 763.87,-332.06"/>
<polygon fill="grey" stroke="grey" stroke-width="2" points="765.95,-329.24 755.71,-326.51 762.02,-335.03 765.95,-329.24"/>
</g>
<!-- 24&#45;&gt;31 -->
<g id="edge78" class="edge">
<title>24&#45;&gt;31</title>
<path fill="none" stroke="grey" stroke-width="2" d="M773.17,-367.41C695.57,-354.33 556.99,-330.95 476.86,-317.43"/>
<polygon fill="grey" stroke="grey" stroke-width="2" points="477.47,-313.99 467.03,-315.78 476.31,-320.89 477.47,-313.99"/>
</g>
<!-- 25 -->
<g id="node26" class="node">
<title>25</title>
<path fill="none" stroke="#56a9d8" stroke-width="2" d="M1098.12,-468C1098.12,-468 995.88,-468 995.88,-468 989.88,-468 983.88,-462 983.88,-456 983.88,-456 983.88,-444 983.88,-444 983.88,-438 989.88,-432 995.88,-432 995.88,-432 1098.12,-432 1098.12,-432 1104.12,-432 1110.12,-438 1110.12,-444 1110.12,-444 1110.12,-456 1110.12,-456 1110.12,-462 1104.12,-468 1098.12,-468"/>
<text xml:space="preserve" text-anchor="middle" x="1047" y="-446.12" font-family="sans" font-size="10.00">build_base_energy_totals</text>
</g>
<!-- 25&#45;&gt;24 -->
<g id="edge64" class="edge">
<title>25&#45;&gt;24</title>
<path fill="none" stroke="grey" stroke-width="2" d="M991.4,-431.06C962.81,-421.84 927.74,-410.53 897.6,-400.81"/>
<polygon fill="grey" stroke="grey" stroke-width="2" points="898.93,-397.56 888.34,-397.82 896.78,-404.22 898.93,-397.56"/>
</g>
<!-- 44 -->
<g id="node45" class="node">
<title>44</title>
<path fill="none" stroke="#568ad8" stroke-width="2" d="M1175.75,-396C1175.75,-396 1068.25,-396 1068.25,-396 1062.25,-396 1056.25,-390 1056.25,-384 1056.25,-384 1056.25,-372 1056.25,-372 1056.25,-366 1062.25,-360 1068.25,-360 1068.25,-360 1175.75,-360 1175.75,-360 1181.75,-360 1187.75,-366 1187.75,-372 1187.75,-372 1187.75,-384 1187.75,-384 1187.75,-390 1181.75,-396 1175.75,-396"/>
<text xml:space="preserve" text-anchor="middle" x="1122" y="-374.12" font-family="sans" font-size="10.00">build_base_industry_totals</text>
</g>
<!-- 25&#45;&gt;44 -->
<g id="edge105" class="edge">
<title>25&#45;&gt;44</title>
<path fill="none" stroke="grey" stroke-width="2" d="M1065.93,-431.34C1074.3,-423.52 1084.33,-414.16 1093.57,-405.53"/>
<polygon fill="grey" stroke="grey" stroke-width="2" points="1095.68,-408.35 1100.61,-398.97 1090.91,-403.23 1095.68,-408.35"/>
</g>
<!-- 26 -->
<g id="node27" class="node">
<title>26</title>
<path fill="none" stroke="#d89c56" stroke-width="2" d="M668,-396C668,-396 550,-396 550,-396 544,-396 538,-390 538,-384 538,-384 538,-372 538,-372 538,-366 544,-360 550,-360 550,-360 668,-360 668,-360 674,-360 680,-366 680,-372 680,-372 680,-384 680,-384 680,-390 674,-396 668,-396"/>
<text xml:space="preserve" text-anchor="middle" x="609" y="-374.12" font-family="sans" font-size="10.00">prepare_transport_data_input</text>
</g>
<!-- 26&#45;&gt;14 -->
<g id="edge31" class="edge">
<title>26&#45;&gt;14</title>
<path fill="none" stroke="grey" stroke-width="2" d="M639.08,-359.15C653.37,-350.68 670.66,-340.42 686.11,-331.25"/>
<polygon fill="grey" stroke="grey" stroke-width="2" points="687.55,-334.47 694.37,-326.36 683.98,-328.45 687.55,-334.47"/>
</g>
<!-- 27&#45;&gt;13 -->
<g id="edge30" class="edge">
<title>27&#45;&gt;13</title>
<path fill="none" stroke="grey" stroke-width="2" d="M792.3,-441.59C827.64,-434.63 866.94,-421.32 895,-396 933.36,-361.39 903.75,-326.68 938,-288 948.44,-276.22 962.14,-266.54 975.96,-258.83"/>
<polygon fill="grey" stroke="grey" stroke-width="2" points="977.57,-261.94 984.83,-254.22 974.34,-255.73 977.57,-261.94"/>
</g>
<!-- 27&#45;&gt;14 -->
<g id="edge35" class="edge">
<title>27&#45;&gt;14</title>
<path fill="none" stroke="grey" stroke-width="2" d="M710.41,-431.02C713.55,-407.54 719.09,-366.11 722.9,-337.64"/>
<polygon fill="grey" stroke="grey" stroke-width="2" points="726.35,-338.21 724.21,-327.84 719.42,-337.29 726.35,-338.21"/>
</g>
<!-- 27&#45;&gt;31 -->
<g id="edge80" class="edge">
<title>27&#45;&gt;31</title>
<path fill="none" stroke="grey" stroke-width="2" d="M623.97,-431.08C593.12,-422.73 558.54,-411.2 529,-396 496.81,-379.43 464.73,-353.3 442.83,-333.63"/>
<polygon fill="grey" stroke="grey" stroke-width="2" points="445.2,-331.06 435.47,-326.88 440.47,-336.22 445.2,-331.06"/>
</g>
<!-- 27&#45;&gt;39 -->
<g id="edge100" class="edge">
<title>27&#45;&gt;39</title>
<path fill="none" stroke="grey" stroke-width="2" d="M792.66,-442.08C887.62,-433.81 1046.5,-418.46 1192.51,-396.61"/>
<polygon fill="grey" stroke="grey" stroke-width="2" points="1192.88,-400.1 1202.24,-395.14 1191.83,-393.18 1192.88,-400.1"/>
</g>
<!-- 28&#45;&gt;27 -->
<g id="edge65" class="edge">
<title>28&#45;&gt;27</title>
<path fill="none" stroke="grey" stroke-width="2" d="M440.88,-507.83C488.72,-497.66 555.83,-483.38 610.81,-471.68"/>
<polygon fill="grey" stroke="grey" stroke-width="2" points="611.41,-475.13 620.46,-469.62 609.95,-468.28 611.41,-475.13"/>
</g>
<!-- 28&#45;&gt;30 -->
<g id="edge71" class="edge">
<title>28&#45;&gt;30</title>
<path fill="none" stroke="grey" stroke-width="2" d="M410.61,-503.15C425.77,-494.6 444.15,-484.22 460.51,-474.99"/>
<polygon fill="grey" stroke="grey" stroke-width="2" points="461.82,-478.26 468.81,-470.3 458.38,-472.17 461.82,-478.26"/>
</g>
<!-- 28&#45;&gt;33 -->
<g id="edge82" class="edge">
<title>28&#45;&gt;33</title>
<path fill="none" stroke="grey" stroke-width="2" d="M342.04,-503.15C324.04,-494.47 302.16,-483.91 282.81,-474.56"/>
<polygon fill="grey" stroke="grey" stroke-width="2" points="284.4,-471.45 273.88,-470.25 281.36,-477.75 284.4,-471.45"/>
</g>
<!-- 28&#45;&gt;34 -->
<g id="edge85" class="edge">
<title>28&#45;&gt;34</title>
<path fill="none" stroke="grey" stroke-width="2" d="M376.73,-503.34C375.88,-496.75 374.9,-489.08 373.94,-481.67"/>
<polygon fill="grey" stroke="grey" stroke-width="2" points="377.43,-481.38 372.69,-471.9 370.49,-482.27 377.43,-481.38"/>
</g>
<!-- 29 -->
<g id="node30" class="node">
<title>29</title>
<path fill="none" stroke="#d89556" stroke-width="2" d="M424.5,-612C424.5,-612 333.5,-612 333.5,-612 327.5,-612 321.5,-606 321.5,-600 321.5,-600 321.5,-588 321.5,-588 321.5,-582 327.5,-576 333.5,-576 333.5,-576 424.5,-576 424.5,-576 430.5,-576 436.5,-582 436.5,-588 436.5,-588 436.5,-600 436.5,-600 436.5,-606 430.5,-612 424.5,-612"/>
<text xml:space="preserve" text-anchor="middle" x="379" y="-590.12" font-family="sans" font-size="10.00">prepare_urban_percent</text>
</g>
<!-- 29&#45;&gt;28 -->
<g id="edge70" class="edge">
<title>29&#45;&gt;28</title>
<path fill="none" stroke="grey" stroke-width="2" d="M379,-575.34C379,-568.75 379,-561.08 379,-553.67"/>
<polygon fill="grey" stroke="grey" stroke-width="2" points="382.5,-553.93 379,-543.93 375.5,-553.93 382.5,-553.93"/>
</g>
<!-- 30&#45;&gt;14 -->
<g id="edge34" class="edge">
<title>30&#45;&gt;14</title>
<path fill="none" stroke="grey" stroke-width="2" d="M503.27,-431.02C504.57,-410.94 509.78,-378.79 529,-360 562.44,-327.31 613.72,-314.22 655.71,-309.21"/>
<polygon fill="grey" stroke="grey" stroke-width="2" points="655.82,-312.72 665.41,-308.22 655.1,-305.76 655.82,-312.72"/>
</g>
<!-- 30&#45;&gt;31 -->
<g id="edge79" class="edge">
<title>30&#45;&gt;31</title>
<path fill="none" stroke="grey" stroke-width="2" d="M459.02,-431.12C444.06,-422.75 428.89,-411.2 420,-396 409.79,-378.54 408.7,-355.72 410.08,-337.55"/>
<polygon fill="grey" stroke="grey" stroke-width="2" points="413.54,-338.07 411.17,-327.74 406.59,-337.29 413.54,-338.07"/>
</g>
<!-- 32 -->
<g id="node33" class="node">
<title>32</title>
<path fill="none" stroke="#bed856" stroke-width="2" d="M356,-396C356,-396 286,-396 286,-396 280,-396 274,-390 274,-384 274,-384 274,-372 274,-372 274,-366 280,-360 286,-360 286,-360 356,-360 356,-360 362,-360 368,-366 368,-372 368,-372 368,-384 368,-384 368,-390 362,-396 356,-396"/>
<text xml:space="preserve" text-anchor="middle" x="321" y="-374.12" font-family="sans" font-size="10.00">build_cop_profiles</text>
</g>
<!-- 30&#45;&gt;32 -->
<g id="edge81" class="edge">
<title>30&#45;&gt;32</title>
<path fill="none" stroke="grey" stroke-width="2" d="M456.6,-431.15C433.16,-422.14 404.47,-411.11 379.53,-401.51"/>
<polygon fill="grey" stroke="grey" stroke-width="2" points="381.04,-398.34 370.45,-398.02 378.53,-404.88 381.04,-398.34"/>
</g>
<!-- 31&#45;&gt;13 -->
<g id="edge29" class="edge">
<title>31&#45;&gt;13</title>
<path fill="none" stroke="grey" stroke-width="2" d="M463.91,-299.48C572.28,-287.24 833.12,-257.79 961.33,-243.32"/>
<polygon fill="grey" stroke="grey" stroke-width="2" points="961.51,-246.82 971.06,-242.22 960.73,-239.86 961.51,-246.82"/>
</g>
<!-- 32&#45;&gt;31 -->
<g id="edge75" class="edge">
<title>32&#45;&gt;31</title>
<path fill="none" stroke="grey" stroke-width="2" d="M344.72,-359.34C355.66,-351.19 368.84,-341.37 380.83,-332.45"/>
<polygon fill="grey" stroke="grey" stroke-width="2" points="382.6,-335.49 388.53,-326.71 378.42,-329.88 382.6,-335.49"/>
</g>
<!-- 33&#45;&gt;31 -->
<g id="edge74" class="edge">
<title>33&#45;&gt;31</title>
<path fill="none" stroke="grey" stroke-width="2" d="M233.13,-431.31C233.13,-411.49 236.23,-379.59 254,-360 279.34,-332.08 319.64,-318.83 353.59,-312.56"/>
<polygon fill="grey" stroke="grey" stroke-width="2" points="353.95,-316.05 363.25,-310.97 352.82,-309.14 353.95,-316.05"/>
</g>
<!-- 34&#45;&gt;31 -->
<g id="edge76" class="edge">
<title>34&#45;&gt;31</title>
<path fill="none" stroke="grey" stroke-width="2" d="M323.21,-431.09C298.51,-420.59 271.9,-407.22 265,-396 256.61,-382.37 255.76,-373.06 265,-360 285.06,-331.63 321.63,-318.35 353.64,-312.17"/>
<polygon fill="grey" stroke="grey" stroke-width="2" points="353.83,-315.69 363.11,-310.57 352.66,-308.78 353.83,-315.69"/>
</g>
<!-- 35&#45;&gt;13 -->
<g id="edge22" class="edge">
<title>35&#45;&gt;13</title>
<path fill="none" stroke="grey" stroke-width="2" d="M109.7,-431.03C153.43,-396.03 256.6,-319.41 358,-288 468.93,-253.64 810.06,-240.78 961.39,-236.67"/>
<polygon fill="grey" stroke="grey" stroke-width="2" points="961.2,-240.18 971.1,-236.42 961.01,-233.18 961.2,-240.18"/>
</g>
<!-- 36&#45;&gt;13 -->
<g id="edge28" class="edge">
<title>36&#45;&gt;13</title>
<path fill="none" stroke="grey" stroke-width="2" d="M1389.02,-359C1352.28,-339.5 1290.7,-308.43 1235,-288 1193.95,-272.94 1146.71,-260.22 1108.46,-251.01"/>
<polygon fill="grey" stroke="grey" stroke-width="2" points="1109.33,-247.63 1098.79,-248.73 1107.72,-254.44 1109.33,-247.63"/>
</g>
<!-- 37&#45;&gt;36 -->
<g id="edge90" class="edge">
<title>37&#45;&gt;36</title>
<path fill="none" stroke="grey" stroke-width="2" d="M1303.53,-431.15C1323.55,-422.34 1347.94,-411.61 1369.37,-402.17"/>
<polygon fill="grey" stroke="grey" stroke-width="2" points="1370.75,-405.39 1378.49,-398.15 1367.93,-398.98 1370.75,-405.39"/>
</g>
<!-- 38&#45;&gt;13 -->
<g id="edge19" class="edge">
<title>38&#45;&gt;13</title>
<path fill="none" stroke="grey" stroke-width="2" d="M1397.46,-295.27C1322.08,-282.73 1191.02,-260.94 1108.86,-247.28"/>
<polygon fill="grey" stroke="grey" stroke-width="2" points="1109.54,-243.85 1099.1,-245.66 1108.39,-250.75 1109.54,-243.85"/>
</g>
<!-- 39&#45;&gt;38 -->
<g id="edge94" class="edge">
<title>39&#45;&gt;38</title>
<path fill="none" stroke="grey" stroke-width="2" d="M1327.1,-359.15C1349.18,-350.22 1376.16,-339.31 1399.71,-329.77"/>
<polygon fill="grey" stroke="grey" stroke-width="2" points="1400.91,-333.06 1408.87,-326.07 1398.29,-326.58 1400.91,-333.06"/>
</g>
<!-- 40 -->
<g id="node41" class="node">
<title>40</title>
<path fill="none" stroke="#56b9d8" stroke-width="2" d="M1529.75,-468C1529.75,-468 1428.25,-468 1428.25,-468 1422.25,-468 1416.25,-462 1416.25,-456 1416.25,-456 1416.25,-444 1416.25,-444 1416.25,-438 1422.25,-432 1428.25,-432 1428.25,-432 1529.75,-432 1529.75,-432 1535.75,-432 1541.75,-438 1541.75,-444 1541.75,-444 1541.75,-456 1541.75,-456 1541.75,-462 1535.75,-468 1529.75,-468"/>
<text xml:space="preserve" text-anchor="middle" x="1479" y="-446.12" font-family="sans" font-size="10.00">build_industrial_database</text>
</g>
<!-- 40&#45;&gt;38 -->
<g id="edge95" class="edge">
<title>40&#45;&gt;38</title>
<path fill="none" stroke="grey" stroke-width="2" d="M1492.11,-431.33C1503.88,-413.18 1517.9,-384.22 1508,-360 1504.02,-350.27 1497.3,-341.36 1489.99,-333.73"/>
<polygon fill="grey" stroke="grey" stroke-width="2" points="1492.43,-331.22 1482.77,-326.88 1487.61,-336.3 1492.43,-331.22"/>
</g>
<!-- 40&#45;&gt;39 -->
<g id="edge99" class="edge">
<title>40&#45;&gt;39</title>
<path fill="none" stroke="grey" stroke-width="2" d="M1428.78,-431.06C1403.3,-421.97 1372.13,-410.83 1345.15,-401.2"/>
<polygon fill="grey" stroke="grey" stroke-width="2" points="1346.54,-397.97 1335.94,-397.91 1344.18,-404.57 1346.54,-397.97"/>
</g>
<!-- 41 -->
<g id="node42" class="node">
<title>41</title>
<path fill="none" stroke="#5692d8" stroke-width="2" d="M1579.75,-540C1579.75,-540 1472.25,-540 1472.25,-540 1466.25,-540 1460.25,-534 1460.25,-528 1460.25,-528 1460.25,-516 1460.25,-516 1460.25,-510 1466.25,-504 1472.25,-504 1472.25,-504 1579.75,-504 1579.75,-504 1585.75,-504 1591.75,-510 1591.75,-516 1591.75,-516 1591.75,-528 1591.75,-528 1591.75,-534 1585.75,-540 1579.75,-540"/>
<text xml:space="preserve" text-anchor="middle" x="1526" y="-518.12" font-family="sans" font-size="10.00">build_ammonia_production</text>
</g>
<!-- 41&#45;&gt;38 -->
<g id="edge97" class="edge">
<title>41&#45;&gt;38</title>
<path fill="none" stroke="grey" stroke-width="2" d="M1536.89,-503.08C1542.29,-493.13 1548.24,-480.31 1551,-468 1554.5,-452.39 1553.85,-447.74 1551,-432 1544.9,-398.37 1544.24,-387.54 1524,-360 1516.43,-349.71 1506.36,-340.38 1496.28,-332.53"/>
<polygon fill="grey" stroke="grey" stroke-width="2" points="1498.46,-329.79 1488.33,-326.69 1494.31,-335.43 1498.46,-329.79"/>
</g>
<!-- 41&#45;&gt;40 -->
<g id="edge102" class="edge">
<title>41&#45;&gt;40</title>
<path fill="none" stroke="grey" stroke-width="2" d="M1514.14,-503.34C1509.28,-496.1 1503.53,-487.53 1498.1,-479.45"/>
<polygon fill="grey" stroke="grey" stroke-width="2" points="1501.19,-477.77 1492.71,-471.41 1495.38,-481.67 1501.19,-477.77"/>
</g>
<!-- 42 -->
<g id="node43" class="node">
<title>42</title>
<path fill="none" stroke="#56d88a" stroke-width="2" d="M1691,-612C1691,-612 1585,-612 1585,-612 1579,-612 1573,-606 1573,-600 1573,-600 1573,-588 1573,-588 1573,-582 1579,-576 1585,-576 1585,-576 1691,-576 1691,-576 1697,-576 1703,-582 1703,-588 1703,-588 1703,-600 1703,-600 1703,-606 1697,-612 1691,-612"/>
<text xml:space="preserve" text-anchor="middle" x="1638" y="-590.12" font-family="sans" font-size="10.00">retrieve_us_cities_dataset</text>
</g>
<!-- 42&#45;&gt;41 -->
<g id="edge104" class="edge">
<title>42&#45;&gt;41</title>
<path fill="none" stroke="grey" stroke-width="2" d="M1609.45,-575.15C1596.02,-566.76 1579.79,-556.62 1565.24,-547.52"/>
<polygon fill="grey" stroke="grey" stroke-width="2" points="1567.4,-544.75 1557.07,-542.42 1563.69,-550.68 1567.4,-544.75"/>
</g>
<!-- 43 -->
<g id="node44" class="node">
<title>43</title>
<path fill="none" stroke="#56b1d8" stroke-width="2" d="M1543.38,-612C1543.38,-612 1436.62,-612 1436.62,-612 1430.62,-612 1424.62,-606 1424.62,-600 1424.62,-600 1424.62,-588 1424.62,-588 1424.62,-582 1430.62,-576 1436.62,-576 1436.62,-576 1543.38,-576 1543.38,-576 1549.38,-576 1555.38,-582 1555.38,-588 1555.38,-588 1555.38,-600 1555.38,-600 1555.38,-606 1549.38,-612 1543.38,-612"/>
<text xml:space="preserve" text-anchor="middle" x="1490" y="-590.12" font-family="sans" font-size="10.00">retrieve_ammonia_dataset</text>
</g>
<!-- 43&#45;&gt;41 -->
<g id="edge103" class="edge">
<title>43&#45;&gt;41</title>
<path fill="none" stroke="grey" stroke-width="2" d="M1499.08,-575.34C1502.68,-568.34 1506.91,-560.12 1510.94,-552.28"/>
<polygon fill="grey" stroke="grey" stroke-width="2" points="1513.95,-554.09 1515.41,-543.59 1507.72,-550.89 1513.95,-554.09"/>
</g>
<!-- 44&#45;&gt;38 -->
<g id="edge98" class="edge">
<title>44&#45;&gt;38</title>
<path fill="none" stroke="grey" stroke-width="2" d="M1188.64,-361.82C1191.46,-361.2 1194.26,-360.59 1197,-360 1260.42,-346.33 1332.76,-331.59 1384.84,-321.14"/>
<polygon fill="grey" stroke="grey" stroke-width="2" points="1385.21,-324.64 1394.33,-319.24 1383.83,-317.77 1385.21,-324.64"/>
</g>
<!-- 45 -->
<g id="node46" class="node">
<title>45</title>
<path fill="none" stroke="#70d856" stroke-width="2" d="M1180.88,-324C1180.88,-324 1119.12,-324 1119.12,-324 1113.12,-324 1107.12,-318 1107.12,-312 1107.12,-312 1107.12,-300 1107.12,-300 1107.12,-294 1113.12,-288 1119.12,-288 1119.12,-288 1180.88,-288 1180.88,-288 1186.88,-288 1192.88,-294 1192.88,-300 1192.88,-300 1192.88,-312 1192.88,-312 1192.88,-318 1186.88,-324 1180.88,-324"/>
<text xml:space="preserve" text-anchor="middle" x="1150" y="-302.12" font-family="sans" font-size="10.00">prepare_airports</text>
</g>
<!-- 45&#45;&gt;13 -->
<g id="edge24" class="edge">
<title>45&#45;&gt;13</title>
<path fill="none" stroke="grey" stroke-width="2" d="M1120.68,-287.15C1106.9,-278.76 1090.24,-268.62 1075.29,-259.52"/>
<polygon fill="grey" stroke="grey" stroke-width="2" points="1077.21,-256.6 1066.85,-254.39 1073.57,-262.58 1077.21,-256.6"/>
</g>
<!-- 46&#45;&gt;13 -->
<g id="edge20" class="edge">
<title>46&#45;&gt;13</title>
<path fill="none" stroke="grey" stroke-width="2" d="M1035,-287.34C1035,-280.75 1035,-273.08 1035,-265.67"/>
<polygon fill="grey" stroke="grey" stroke-width="2" points="1038.5,-265.93 1035,-255.93 1031.5,-265.93 1038.5,-265.93"/>
</g>
<!-- 47 -->
<g id="node48" class="node">
<title>47</title>
<path fill="none" stroke="#56c9d8" stroke-width="2" d="M1751.25,-180C1751.25,-180 1706.75,-180 1706.75,-180 1700.75,-180 1694.75,-174 1694.75,-168 1694.75,-168 1694.75,-156 1694.75,-156 1694.75,-150 1700.75,-144 1706.75,-144 1706.75,-144 1751.25,-144 1751.25,-144 1757.25,-144 1763.25,-150 1763.25,-156 1763.25,-156 1763.25,-168 1763.25,-168 1763.25,-174 1757.25,-180 1751.25,-180"/>
<text xml:space="preserve" text-anchor="middle" x="1729" y="-158.12" font-family="sans" font-size="10.00">copy_config</text>
</g>
<!-- 47&#45;&gt;1 -->
<g id="edge2" class="edge">
<title>47&#45;&gt;1</title>
<path fill="none" stroke="grey" stroke-width="2" d="M1707.8,-143.34C1698.23,-135.36 1686.72,-125.77 1676.19,-116.99"/>
<polygon fill="grey" stroke="grey" stroke-width="2" points="1678.73,-114.55 1668.81,-110.84 1674.25,-119.93 1678.73,-114.55"/>
</g>
</g>
</svg>
