<?xml version="1.0" encoding="UTF-8" standalone="no"?>
<!DOCTYPE svg PUBLIC "-//W3C//DTD SVG 1.1//EN"
 "http://www.w3.org/Graphics/SVG/1.1/DTD/svg11.dtd">
<!-- Generated by graphviz version 14.1.4 (20260321.0153)
 -->
<!-- Title: snakemake_dag Pages: 1 -->
<svg width="2088pt" height="1268pt"
 viewBox="0.00 0.00 2088.00 1268.00" xmlns="http://www.w3.org/2000/svg" xmlns:xlink="http://www.w3.org/1999/xlink">
<g id="graph0" class="graph" transform="scale(1 1) rotate(0) translate(4 1264)">
<title>snakemake_dag</title>
<polygon fill="white" stroke="none" points="-4,4 -4,-1264 2084,-1264 2084,4 -4,4"/>
<!-- 0 -->
<g id="node1" class="node">
<title>0</title>
<path fill="none" stroke="#d8c356" stroke-width="2" d="M1168.62,-36C1168.62,-36 1039.38,-36 1039.38,-36 1033.38,-36 1027.38,-30 1027.38,-24 1027.38,-24 1027.38,-12 1027.38,-12 1027.38,-6 1033.38,0 1039.38,0 1039.38,0 1168.62,0 1168.62,0 1174.62,0 1180.62,-6 1180.62,-12 1180.62,-12 1180.62,-24 1180.62,-24 1180.62,-30 1174.62,-36 1168.62,-36"/>
<text xml:space="preserve" text-anchor="middle" x="1104" y="-14.12" font-family="sans" font-size="10.00">solve_sector_networks_myopic</text>
</g>
<!-- 1 -->
<g id="node2" class="node">
<title>1</title>
<path fill="none" stroke="#565bd8" stroke-width="2" d="M1125.88,-108C1125.88,-108 1034.12,-108 1034.12,-108 1028.12,-108 1022.12,-102 1022.12,-96 1022.12,-96 1022.12,-84 1022.12,-84 1022.12,-78 1028.12,-72 1034.12,-72 1034.12,-72 1125.88,-72 1125.88,-72 1131.88,-72 1137.88,-78 1137.88,-84 1137.88,-84 1137.88,-96 1137.88,-96 1137.88,-102 1131.88,-108 1125.88,-108"/>
<text xml:space="preserve" text-anchor="middle" x="1080" y="-86.12" font-family="sans" font-size="10.00">solve_network_myopic</text>
</g>
<!-- 1&#45;&gt;0 -->
<g id="edge1" class="edge">
<title>1&#45;&gt;0</title>
<path fill="none" stroke="grey" stroke-width="2" d="M1086.06,-71.34C1088.37,-64.59 1091.08,-56.69 1093.68,-49.11"/>
<polygon fill="grey" stroke="grey" stroke-width="2" points="1096.95,-50.36 1096.88,-39.77 1090.33,-48.09 1096.95,-50.36"/>
</g>
<!-- 49 -->
<g id="node50" class="node">
<title>49</title>
<path fill="none" stroke="#5692d8" stroke-width="2" d="M997.62,-36C997.62,-36 940.38,-36 940.38,-36 934.38,-36 928.38,-30 928.38,-24 928.38,-24 928.38,-12 928.38,-12 928.38,-6 934.38,0 940.38,0 940.38,0 997.62,0 997.62,0 1003.62,0 1009.62,-6 1009.62,-12 1009.62,-12 1009.62,-24 1009.62,-24 1009.62,-30 1003.62,-36 997.62,-36"/>
<text xml:space="preserve" text-anchor="middle" x="969" y="-14.12" font-family="sans" font-size="10.00">add_brownfield</text>
</g>
<!-- 1&#45;&gt;49 -->
<g id="edge119" class="edge">
<title>1&#45;&gt;49</title>
<path fill="none" stroke="grey" stroke-width="2" d="M1045.73,-71.15C1031.73,-62.84 1015.67,-52.82 1001.82,-43.79"/>
<polygon fill="grey" stroke="grey" stroke-width="2" points="1004.07,-41.08 993.8,-38.48 1000.21,-46.92 1004.07,-41.08"/>
</g>
<!-- 2 -->
<g id="node3" class="node">
<title>2</title>
<path fill="none" stroke="#569ad8" stroke-width="2" d="M1543.88,-180C1543.88,-180 1452.12,-180 1452.12,-180 1446.12,-180 1440.12,-174 1440.12,-168 1440.12,-168 1440.12,-156 1440.12,-156 1440.12,-150 1446.12,-144 1452.12,-144 1452.12,-144 1543.88,-144 1543.88,-144 1549.88,-144 1555.88,-150 1555.88,-156 1555.88,-156 1555.88,-168 1555.88,-168 1555.88,-174 1549.88,-180 1543.88,-180"/>
<text xml:space="preserve" text-anchor="middle" x="1498" y="-158.12" font-family="sans" font-size="10.00">add_existing_baseyear</text>
</g>
<!-- 2&#45;&gt;1 -->
<g id="edge5" class="edge">
<title>2&#45;&gt;1</title>
<path fill="none" stroke="grey" stroke-width="2" d="M1439.44,-151.19C1363.94,-138.55 1232.72,-116.58 1151.44,-102.96"/>
<polygon fill="grey" stroke="grey" stroke-width="2" points="1152.26,-99.55 1141.82,-101.35 1151.11,-106.46 1152.26,-99.55"/>
</g>
<!-- 3 -->
<g id="node4" class="node">
<title>3</title>
<path fill="none" stroke="#d86656" stroke-width="2" d="M1912,-468C1912,-468 1842,-468 1842,-468 1836,-468 1830,-462 1830,-456 1830,-456 1830,-444 1830,-444 1830,-438 1836,-432 1842,-432 1842,-432 1912,-432 1912,-432 1918,-432 1924,-438 1924,-444 1924,-444 1924,-456 1924,-456 1924,-462 1918,-468 1912,-468"/>
<text xml:space="preserve" text-anchor="middle" x="1877" y="-446.12" font-family="sans" font-size="10.00">build_cop_profiles</text>
</g>
<!-- 3&#45;&gt;2 -->
<g id="edge7" class="edge">
<title>3&#45;&gt;2</title>
<path fill="none" stroke="grey" stroke-width="2" d="M1867.29,-431.01C1846.89,-393.72 1799.47,-309.65 1775,-288 1715.23,-235.13 1629.4,-201.1 1569.17,-182.1"/>
<polygon fill="grey" stroke="grey" stroke-width="2" points="1570.2,-178.76 1559.61,-179.17 1568.14,-185.45 1570.2,-178.76"/>
</g>
<!-- 26 -->
<g id="node27" class="node">
<title>26</title>
<path fill="none" stroke="#56d863" stroke-width="2" d="M1724.12,-396C1724.12,-396 1651.88,-396 1651.88,-396 1645.88,-396 1639.88,-390 1639.88,-384 1639.88,-384 1639.88,-372 1639.88,-372 1639.88,-366 1645.88,-360 1651.88,-360 1651.88,-360 1724.12,-360 1724.12,-360 1730.12,-360 1736.12,-366 1736.12,-372 1736.12,-372 1736.12,-384 1736.12,-384 1736.12,-390 1730.12,-396 1724.12,-396"/>
<text xml:space="preserve" text-anchor="middle" x="1688" y="-374.12" font-family="sans" font-size="10.00">prepare_heat_data</text>
</g>
<!-- 3&#45;&gt;26 -->
<g id="edge62" class="edge">
<title>3&#45;&gt;26</title>
<path fill="none" stroke="grey" stroke-width="2" d="M1829.31,-431.34C1804.76,-422.25 1774.58,-411.07 1748.42,-401.38"/>
<polygon fill="grey" stroke="grey" stroke-width="2" points="1749.77,-398.14 1739.17,-397.95 1747.34,-404.71 1749.77,-398.14"/>
</g>
<!-- 3&#45;&gt;49 -->
<g id="edge114" class="edge">
<title>3&#45;&gt;49</title>
<path fill="none" stroke="grey" stroke-width="2" d="M1874.51,-431.11C1871,-404.22 1865,-351.78 1865,-307 1865,-307 1865,-307 1865,-161 1865,25.27 1230.31,-76.76 1023.26,-36.78"/>
<polygon fill="grey" stroke="grey" stroke-width="2" points="1024.02,-33.36 1013.5,-34.65 1022.53,-40.2 1024.02,-33.36"/>
</g>
<!-- 4 -->
<g id="node5" class="node">
<title>4</title>
<path fill="none" stroke="#70d856" stroke-width="2" d="M2068,-540C2068,-540 1962,-540 1962,-540 1956,-540 1950,-534 1950,-528 1950,-528 1950,-516 1950,-516 1950,-510 1956,-504 1962,-504 1962,-504 2068,-504 2068,-504 2074,-504 2080,-510 2080,-516 2080,-516 2080,-528 2080,-528 2080,-534 2074,-540 2068,-540"/>
<text xml:space="preserve" text-anchor="middle" x="2015" y="-518.12" font-family="sans" font-size="10.00">build_temperature_profiles</text>
</g>
<!-- 4&#45;&gt;3 -->
<g id="edge13" class="edge">
<title>4&#45;&gt;3</title>
<path fill="none" stroke="grey" stroke-width="2" d="M1979.82,-503.15C1962.71,-494.47 1941.91,-483.92 1923.5,-474.59"/>
<polygon fill="grey" stroke="grey" stroke-width="2" points="1925.32,-471.58 1914.82,-470.18 1922.15,-477.83 1925.32,-471.58"/>
</g>
<!-- 4&#45;&gt;26 -->
<g id="edge64" class="edge">
<title>4&#45;&gt;26</title>
<path fill="none" stroke="grey" stroke-width="2" d="M1949.19,-504.62C1897.55,-491.51 1832.53,-474.3 1821,-468 1800.01,-456.54 1800.39,-446 1781,-432 1766.59,-421.6 1749.97,-411.57 1734.8,-403.09"/>
<polygon fill="grey" stroke="grey" stroke-width="2" points="1736.65,-400.11 1726.2,-398.38 1733.29,-406.25 1736.65,-400.11"/>
</g>
<!-- 35 -->
<g id="node36" class="node">
<title>35</title>
<path fill="none" stroke="#d89556" stroke-width="2" d="M1121.88,-396C1121.88,-396 1030.12,-396 1030.12,-396 1024.12,-396 1018.12,-390 1018.12,-384 1018.12,-384 1018.12,-372 1018.12,-372 1018.12,-366 1024.12,-360 1030.12,-360 1030.12,-360 1121.88,-360 1121.88,-360 1127.88,-360 1133.88,-366 1133.88,-372 1133.88,-372 1133.88,-384 1133.88,-384 1133.88,-390 1127.88,-396 1121.88,-396"/>
<text xml:space="preserve" text-anchor="middle" x="1076" y="-374.12" font-family="sans" font-size="10.00">prepare_transport_data</text>
</g>
<!-- 4&#45;&gt;35 -->
<g id="edge93" class="edge">
<title>4&#45;&gt;35</title>
<path fill="none" stroke="grey" stroke-width="2" d="M1949.29,-505.6C1946.49,-505.04 1943.72,-504.51 1941,-504 1605.99,-441.8 1518.9,-446.98 1182,-396 1170.89,-394.32 1159.13,-392.49 1147.64,-390.67"/>
<polygon fill="grey" stroke="grey" stroke-width="2" points="1148.26,-387.22 1137.83,-389.1 1147.16,-394.13 1148.26,-387.22"/>
</g>
<!-- 5 -->
<g id="node6" class="node">
<title>5</title>
<path fill="none" stroke="#56d8d0" stroke-width="2" d="M1795.25,-612C1795.25,-612 1696.75,-612 1696.75,-612 1690.75,-612 1684.75,-606 1684.75,-600 1684.75,-600 1684.75,-588 1684.75,-588 1684.75,-582 1690.75,-576 1696.75,-576 1696.75,-576 1795.25,-576 1795.25,-576 1801.25,-576 1807.25,-582 1807.25,-588 1807.25,-588 1807.25,-600 1807.25,-600 1807.25,-606 1801.25,-612 1795.25,-612"/>
<text xml:space="preserve" text-anchor="middle" x="1746" y="-590.12" font-family="sans" font-size="10.00">build_population_layouts</text>
</g>
<!-- 5&#45;&gt;4 -->
<g id="edge16" class="edge">
<title>5&#45;&gt;4</title>
<path fill="none" stroke="grey" stroke-width="2" d="M1808.05,-576.85C1846.3,-566.9 1895.69,-554.05 1936.62,-543.4"/>
<polygon fill="grey" stroke="grey" stroke-width="2" points="1937.31,-546.83 1946.1,-540.93 1935.55,-540.06 1937.31,-546.83"/>
</g>
<!-- 25 -->
<g id="node26" class="node">
<title>25</title>
<path fill="none" stroke="#afd856" stroke-width="2" d="M1533.75,-540C1533.75,-540 1390.25,-540 1390.25,-540 1384.25,-540 1378.25,-534 1378.25,-528 1378.25,-528 1378.25,-516 1378.25,-516 1378.25,-510 1384.25,-504 1390.25,-504 1390.25,-504 1533.75,-504 1533.75,-504 1539.75,-504 1545.75,-510 1545.75,-516 1545.75,-516 1545.75,-528 1545.75,-528 1545.75,-534 1539.75,-540 1533.75,-540"/>
<text xml:space="preserve" text-anchor="middle" x="1462" y="-518.12" font-family="sans" font-size="10.00">build_clustered_population_layouts</text>
</g>
<!-- 5&#45;&gt;25 -->
<g id="edge61" class="edge">
<title>5&#45;&gt;25</title>
<path fill="none" stroke="grey" stroke-width="2" d="M1684.03,-577.72C1643.98,-567.85 1591.33,-554.88 1547.35,-544.04"/>
<polygon fill="grey" stroke="grey" stroke-width="2" points="1548.38,-540.69 1537.83,-541.69 1546.71,-547.48 1548.38,-540.69"/>
</g>
<!-- 29 -->
<g id="node30" class="node">
<title>29</title>
<path fill="none" stroke="#56d89a" stroke-width="2" d="M1802.38,-540C1802.38,-540 1689.62,-540 1689.62,-540 1683.62,-540 1677.62,-534 1677.62,-528 1677.62,-528 1677.62,-516 1677.62,-516 1677.62,-510 1683.62,-504 1689.62,-504 1689.62,-504 1802.38,-504 1802.38,-504 1808.38,-504 1814.38,-510 1814.38,-516 1814.38,-516 1814.38,-528 1814.38,-528 1814.38,-534 1808.38,-540 1802.38,-540"/>
<text xml:space="preserve" text-anchor="middle" x="1746" y="-518.12" font-family="sans" font-size="10.00">build_solar_thermal_profiles</text>
</g>
<!-- 5&#45;&gt;29 -->
<g id="edge72" class="edge">
<title>5&#45;&gt;29</title>
<path fill="none" stroke="grey" stroke-width="2" d="M1746,-575.34C1746,-568.75 1746,-561.08 1746,-553.67"/>
<polygon fill="grey" stroke="grey" stroke-width="2" points="1749.5,-553.93 1746,-543.93 1742.5,-553.93 1749.5,-553.93"/>
</g>
<!-- 30 -->
<g id="node31" class="node">
<title>30</title>
<path fill="none" stroke="#d89c56" stroke-width="2" d="M1920,-540C1920,-540 1844,-540 1844,-540 1838,-540 1832,-534 1832,-528 1832,-528 1832,-516 1832,-516 1832,-510 1838,-504 1844,-504 1844,-504 1920,-504 1920,-504 1926,-504 1932,-510 1932,-516 1932,-516 1932,-528 1932,-528 1932,-534 1926,-540 1920,-540"/>
<text xml:space="preserve" text-anchor="middle" x="1882" y="-518.12" font-family="sans" font-size="10.00">build_heat_demand</text>
</g>
<!-- 5&#45;&gt;30 -->
<g id="edge75" class="edge">
<title>5&#45;&gt;30</title>
<path fill="none" stroke="grey" stroke-width="2" d="M1780.67,-575.15C1797.46,-566.52 1817.84,-556.02 1835.91,-546.72"/>
<polygon fill="grey" stroke="grey" stroke-width="2" points="1837.41,-549.89 1844.7,-542.2 1834.21,-543.66 1837.41,-549.89"/>
</g>
<!-- 6 -->
<g id="node7" class="node">
<title>6</title>
<path fill="none" stroke="#70d856" stroke-width="2" d="M1308.5,-1188C1308.5,-1188 1259.5,-1188 1259.5,-1188 1253.5,-1188 1247.5,-1182 1247.5,-1176 1247.5,-1176 1247.5,-1164 1247.5,-1164 1247.5,-1158 1253.5,-1152 1259.5,-1152 1259.5,-1152 1308.5,-1152 1308.5,-1152 1314.5,-1152 1320.5,-1158 1320.5,-1164 1320.5,-1164 1320.5,-1176 1320.5,-1176 1320.5,-1182 1314.5,-1188 1308.5,-1188"/>
<text xml:space="preserve" text-anchor="middle" x="1284" y="-1166.12" font-family="sans" font-size="10.00">build_shapes</text>
</g>
<!-- 6&#45;&gt;5 -->
<g id="edge17" class="edge">
<title>6&#45;&gt;5</title>
<path fill="none" stroke="grey" stroke-width="2" d="M1321.37,-1157.79C1328.22,-1155.81 1335.31,-1153.8 1342,-1152 1481.46,-1114.39 1642,-1171.44 1642,-1027 1642,-1027 1642,-1027 1642,-737 1642,-696.46 1638.63,-681.13 1662,-648 1670.07,-636.57 1681.46,-627.05 1693.26,-619.4"/>
<polygon fill="grey" stroke="grey" stroke-width="2" points="1694.76,-622.58 1701.54,-614.44 1691.16,-616.58 1694.76,-622.58"/>
</g>
<!-- 9 -->
<g id="node10" class="node">
<title>9</title>
<path fill="none" stroke="#d6d856" stroke-width="2" d="M1842.25,-900C1842.25,-900 1785.75,-900 1785.75,-900 1779.75,-900 1773.75,-894 1773.75,-888 1773.75,-888 1773.75,-876 1773.75,-876 1773.75,-870 1779.75,-864 1785.75,-864 1785.75,-864 1842.25,-864 1842.25,-864 1848.25,-864 1854.25,-870 1854.25,-876 1854.25,-876 1854.25,-888 1854.25,-888 1854.25,-894 1848.25,-900 1842.25,-900"/>
<text xml:space="preserve" text-anchor="middle" x="1814" y="-878.12" font-family="sans" font-size="10.00">retrieve_cutout</text>
</g>
<!-- 6&#45;&gt;9 -->
<g id="edge21" class="edge">
<title>6&#45;&gt;9</title>
<path fill="none" stroke="grey" stroke-width="2" d="M1321.21,-1157.08C1328.07,-1155.17 1335.21,-1153.37 1342,-1152 1410.84,-1138.07 1595.92,-1152.38 1656,-1116 1734.84,-1068.25 1783.26,-964.41 1803.3,-913.03"/>
<polygon fill="grey" stroke="grey" stroke-width="2" points="1806.56,-914.3 1806.82,-903.71 1800.01,-911.83 1806.56,-914.3"/>
</g>
<!-- 10 -->
<g id="node11" class="node">
<title>10</title>
<path fill="none" stroke="#5673d8" stroke-width="2" d="M1323.5,-612C1323.5,-612 1262.5,-612 1262.5,-612 1256.5,-612 1250.5,-606 1250.5,-600 1250.5,-600 1250.5,-588 1250.5,-588 1250.5,-582 1256.5,-576 1262.5,-576 1262.5,-576 1323.5,-576 1323.5,-576 1329.5,-576 1335.5,-582 1335.5,-588 1335.5,-588 1335.5,-600 1335.5,-600 1335.5,-606 1329.5,-612 1323.5,-612"/>
<text xml:space="preserve" text-anchor="middle" x="1293" y="-590.12" font-family="sans" font-size="10.00">cluster_network</text>
</g>
<!-- 6&#45;&gt;10 -->
<g id="edge24" class="edge">
<title>6&#45;&gt;10</title>
<path fill="none" stroke="grey" stroke-width="2" d="M1321.25,-1158.01C1371.3,-1143.18 1454.38,-1118.33 1457,-1116 1515.47,-1064.06 1528,-1033.2 1528,-955 1528,-955 1528,-955 1528,-737 1528,-653.64 1418.35,-617.91 1348.85,-603.63"/>
<polygon fill="grey" stroke="grey" stroke-width="2" points="1349.83,-600.26 1339.35,-601.78 1348.5,-607.13 1349.83,-600.26"/>
</g>
<!-- 12 -->
<g id="node13" class="node">
<title>12</title>
<path fill="none" stroke="#bed856" stroke-width="2" d="M1158.5,-756C1158.5,-756 1103.5,-756 1103.5,-756 1097.5,-756 1091.5,-750 1091.5,-744 1091.5,-744 1091.5,-732 1091.5,-732 1091.5,-726 1097.5,-720 1103.5,-720 1103.5,-720 1158.5,-720 1158.5,-720 1164.5,-720 1170.5,-726 1170.5,-732 1170.5,-732 1170.5,-744 1170.5,-744 1170.5,-750 1164.5,-756 1158.5,-756"/>
<text xml:space="preserve" text-anchor="middle" x="1131" y="-734.12" font-family="sans" font-size="10.00">add_electricity</text>
</g>
<!-- 6&#45;&gt;12 -->
<g id="edge33" class="edge">
<title>6&#45;&gt;12</title>
<path fill="none" stroke="grey" stroke-width="2" d="M1255.03,-1151.06C1220.67,-1127.3 1168,-1081.91 1168,-1027 1168,-1027 1168,-1027 1168,-881 1168,-841.23 1154.24,-797.17 1143.51,-768.83"/>
<polygon fill="grey" stroke="grey" stroke-width="2" points="1146.87,-767.83 1139.96,-759.81 1140.36,-770.39 1146.87,-767.83"/>
</g>
<!-- 13 -->
<g id="node14" class="node">
<title>13</title>
<path fill="none" stroke="#56a9d8" stroke-width="2" d="M1341.25,-828C1341.25,-828 1242.75,-828 1242.75,-828 1236.75,-828 1230.75,-822 1230.75,-816 1230.75,-816 1230.75,-804 1230.75,-804 1230.75,-798 1236.75,-792 1242.75,-792 1242.75,-792 1341.25,-792 1341.25,-792 1347.25,-792 1353.25,-798 1353.25,-804 1353.25,-804 1353.25,-816 1353.25,-816 1353.25,-822 1347.25,-828 1341.25,-828"/>
<text xml:space="preserve" text-anchor="middle" x="1292" y="-806.12" font-family="sans" font-size="10.00">build_renewable_profiles</text>
</g>
<!-- 6&#45;&gt;13 -->
<g id="edge36" class="edge">
<title>6&#45;&gt;13</title>
<path fill="none" stroke="grey" stroke-width="2" d="M1266.3,-1151C1243.29,-1125.61 1206,-1076.79 1206,-1027 1206,-1027 1206,-1027 1206,-953 1206,-912.46 1204.55,-898.4 1226,-864 1232.45,-853.65 1241.66,-844.44 1251.15,-836.72"/>
<polygon fill="grey" stroke="grey" stroke-width="2" points="1253.16,-839.59 1259.04,-830.77 1248.95,-834 1253.16,-839.59"/>
</g>
<!-- 15 -->
<g id="node16" class="node">
<title>15</title>
<path fill="none" stroke="#d8d356" stroke-width="2" d="M1090,-900C1090,-900 1020,-900 1020,-900 1014,-900 1008,-894 1008,-888 1008,-888 1008,-876 1008,-876 1008,-870 1014,-864 1020,-864 1020,-864 1090,-864 1090,-864 1096,-864 1102,-870 1102,-876 1102,-876 1102,-888 1102,-888 1102,-894 1096,-900 1090,-900"/>
<text xml:space="preserve" text-anchor="middle" x="1055" y="-878.12" font-family="sans" font-size="10.00">build_bus_regions</text>
</g>
<!-- 6&#45;&gt;15 -->
<g id="edge41" class="edge">
<title>6&#45;&gt;15</title>
<path fill="none" stroke="grey" stroke-width="2" d="M1246.73,-1164.76C1211.88,-1159.05 1160.2,-1145.89 1126,-1116 1072.27,-1069.05 1071.2,-1041.49 1055,-972 1050.54,-952.88 1050.51,-930.82 1051.61,-913.45"/>
<polygon fill="grey" stroke="grey" stroke-width="2" points="1055.08,-913.93 1052.42,-903.68 1048.1,-913.36 1055.08,-913.93"/>
</g>
<!-- 16 -->
<g id="node17" class="node">
<title>16</title>
<path fill="none" stroke="#56b9d8" stroke-width="2" d="M1128.38,-972C1128.38,-972 1075.62,-972 1075.62,-972 1069.62,-972 1063.62,-966 1063.62,-960 1063.62,-960 1063.62,-948 1063.62,-948 1063.62,-942 1069.62,-936 1075.62,-936 1075.62,-936 1128.38,-936 1128.38,-936 1134.38,-936 1140.38,-942 1140.38,-948 1140.38,-948 1140.38,-960 1140.38,-960 1140.38,-966 1134.38,-972 1128.38,-972"/>
<text xml:space="preserve" text-anchor="middle" x="1102" y="-950.12" font-family="sans" font-size="10.00">base_network</text>
</g>
<!-- 6&#45;&gt;16 -->
<g id="edge43" class="edge">
<title>6&#45;&gt;16</title>
<path fill="none" stroke="grey" stroke-width="2" d="M1246.62,-1162.64C1217.62,-1155.84 1178.37,-1142.26 1154,-1116 1120.31,-1079.69 1108.44,-1021.37 1104.26,-985.78"/>
<polygon fill="grey" stroke="grey" stroke-width="2" points="1107.76,-985.53 1103.28,-975.93 1100.79,-986.23 1107.76,-985.53"/>
</g>
<!-- 17 -->
<g id="node18" class="node">
<title>17</title>
<path fill="none" stroke="#56d8d8" stroke-width="2" d="M1322,-1044C1322,-1044 1246,-1044 1246,-1044 1240,-1044 1234,-1038 1234,-1032 1234,-1032 1234,-1020 1234,-1020 1234,-1014 1240,-1008 1246,-1008 1246,-1008 1322,-1008 1322,-1008 1328,-1008 1334,-1014 1334,-1020 1334,-1020 1334,-1032 1334,-1032 1334,-1038 1328,-1044 1322,-1044"/>
<text xml:space="preserve" text-anchor="middle" x="1284" y="-1022.12" font-family="sans" font-size="10.00">build_osm_network</text>
</g>
<!-- 6&#45;&gt;17 -->
<g id="edge45" class="edge">
<title>6&#45;&gt;17</title>
<path fill="none" stroke="grey" stroke-width="2" d="M1284,-1151.02C1284,-1127.54 1284,-1086.11 1284,-1057.64"/>
<polygon fill="grey" stroke="grey" stroke-width="2" points="1287.5,-1057.87 1284,-1047.87 1280.5,-1057.87 1287.5,-1057.87"/>
</g>
<!-- 18 -->
<g id="node19" class="node">
<title>18</title>
<path fill="none" stroke="#568ad8" stroke-width="2" d="M1435.62,-1116C1435.62,-1116 1372.38,-1116 1372.38,-1116 1366.38,-1116 1360.38,-1110 1360.38,-1104 1360.38,-1104 1360.38,-1092 1360.38,-1092 1360.38,-1086 1366.38,-1080 1372.38,-1080 1372.38,-1080 1435.62,-1080 1435.62,-1080 1441.62,-1080 1447.62,-1086 1447.62,-1092 1447.62,-1092 1447.62,-1104 1447.62,-1104 1447.62,-1110 1441.62,-1116 1435.62,-1116"/>
<text xml:space="preserve" text-anchor="middle" x="1404" y="-1094.12" font-family="sans" font-size="10.00">clean_osm_data</text>
</g>
<!-- 6&#45;&gt;18 -->
<g id="edge47" class="edge">
<title>6&#45;&gt;18</title>
<path fill="none" stroke="grey" stroke-width="2" d="M1314.59,-1151.15C1329.12,-1142.68 1346.7,-1132.42 1362.42,-1123.25"/>
<polygon fill="grey" stroke="grey" stroke-width="2" points="1363.98,-1126.4 1370.85,-1118.34 1360.45,-1120.35 1363.98,-1126.4"/>
</g>
<!-- 20 -->
<g id="node21" class="node">
<title>20</title>
<path fill="none" stroke="#56c1d8" stroke-width="2" d="M1450,-900C1450,-900 1380,-900 1380,-900 1374,-900 1368,-894 1368,-888 1368,-888 1368,-876 1368,-876 1368,-870 1374,-864 1380,-864 1380,-864 1450,-864 1450,-864 1456,-864 1462,-870 1462,-876 1462,-876 1462,-888 1462,-888 1462,-894 1456,-900 1450,-900"/>
<text xml:space="preserve" text-anchor="middle" x="1415" y="-878.12" font-family="sans" font-size="10.00">build_powerplants</text>
</g>
<!-- 6&#45;&gt;20 -->
<g id="edge49" class="edge">
<title>6&#45;&gt;20</title>
<path fill="none" stroke="grey" stroke-width="2" d="M1292.52,-1151.25C1304.09,-1127.07 1325.36,-1082.38 1343,-1044 1363.99,-998.32 1387.68,-945 1401.96,-912.64"/>
<polygon fill="grey" stroke="grey" stroke-width="2" points="1405.08,-914.25 1405.91,-903.69 1398.67,-911.43 1405.08,-914.25"/>
</g>
<!-- 23 -->
<g id="node24" class="node">
<title>23</title>
<path fill="none" stroke="#d85e56" stroke-width="2" d="M1023.38,-828C1023.38,-828 934.62,-828 934.62,-828 928.62,-828 922.62,-822 922.62,-816 922.62,-816 922.62,-804 922.62,-804 922.62,-798 928.62,-792 934.62,-792 934.62,-792 1023.38,-792 1023.38,-792 1029.38,-792 1035.38,-798 1035.38,-804 1035.38,-804 1035.38,-816 1035.38,-816 1035.38,-822 1029.38,-828 1023.38,-828"/>
<text xml:space="preserve" text-anchor="middle" x="979" y="-806.12" font-family="sans" font-size="10.00">build_demand_profiles</text>
</g>
<!-- 6&#45;&gt;23 -->
<g id="edge54" class="edge">
<title>6&#45;&gt;23</title>
<path fill="none" stroke="grey" stroke-width="2" d="M1246.75,-1161.79C1158.11,-1143.56 942,-1092.41 942,-1027 942,-1027 942,-1027 942,-953 942,-913.23 955.76,-869.17 966.49,-840.83"/>
<polygon fill="grey" stroke="grey" stroke-width="2" points="969.64,-842.39 970.04,-831.81 963.13,-839.83 969.64,-842.39"/>
</g>
<!-- 7 -->
<g id="node8" class="node">
<title>7</title>
<path fill="none" stroke="#78d856" stroke-width="2" d="M1334,-1260C1334,-1260 1234,-1260 1234,-1260 1228,-1260 1222,-1254 1222,-1248 1222,-1248 1222,-1236 1222,-1236 1222,-1230 1228,-1224 1234,-1224 1234,-1224 1334,-1224 1334,-1224 1340,-1224 1346,-1230 1346,-1236 1346,-1236 1346,-1248 1346,-1248 1346,-1254 1340,-1260 1334,-1260"/>
<text xml:space="preserve" text-anchor="middle" x="1284" y="-1238.12" font-family="sans" font-size="10.00">retrieve_databundle_light</text>
</g>
<!-- 7&#45;&gt;6 -->
<g id="edge20" class="edge">
<title>7&#45;&gt;6</title>
<path fill="none" stroke="grey" stroke-width="2" d="M1284,-1223.34C1284,-1216.75 1284,-1209.08 1284,-1201.67"/>
<polygon fill="grey" stroke="grey" stroke-width="2" points="1287.5,-1201.93 1284,-1191.93 1280.5,-1201.93 1287.5,-1201.93"/>
</g>
<!-- 7&#45;&gt;13 -->
<g id="edge35" class="edge">
<title>7&#45;&gt;13</title>
<path fill="none" stroke="grey" stroke-width="2" d="M1346.9,-1230.81C1393.48,-1221.84 1451.32,-1207.22 1466,-1188 1553.43,-1073.56 1557.18,-979.39 1471,-864 1458.03,-846.63 1409.72,-832.94 1366.56,-823.83"/>
<polygon fill="grey" stroke="grey" stroke-width="2" points="1367.43,-820.43 1356.93,-821.87 1366.03,-827.29 1367.43,-820.43"/>
</g>
<!-- 7&#45;&gt;23 -->
<g id="edge56" class="edge">
<title>7&#45;&gt;23</title>
<path fill="none" stroke="grey" stroke-width="2" d="M1221.42,-1233C1104.81,-1216.33 866,-1173.15 866,-1099 866,-1099 866,-1099 866,-953 866,-903.82 908.02,-861.82 940.81,-836.52"/>
<polygon fill="grey" stroke="grey" stroke-width="2" points="942.69,-839.49 948.64,-830.72 938.52,-833.87 942.69,-839.49"/>
</g>
<!-- 8 -->
<g id="node9" class="node">
<title>8</title>
<path fill="none" stroke="#56a2d8" stroke-width="2" d="M1773.5,-684C1773.5,-684 1682.5,-684 1682.5,-684 1676.5,-684 1670.5,-678 1670.5,-672 1670.5,-672 1670.5,-660 1670.5,-660 1670.5,-654 1676.5,-648 1682.5,-648 1682.5,-648 1773.5,-648 1773.5,-648 1779.5,-648 1785.5,-654 1785.5,-660 1785.5,-660 1785.5,-672 1785.5,-672 1785.5,-678 1779.5,-684 1773.5,-684"/>
<text xml:space="preserve" text-anchor="middle" x="1728" y="-662.12" font-family="sans" font-size="10.00">prepare_urban_percent</text>
</g>
<!-- 8&#45;&gt;5 -->
<g id="edge19" class="edge">
<title>8&#45;&gt;5</title>
<path fill="none" stroke="grey" stroke-width="2" d="M1732.54,-647.34C1734.26,-640.67 1736.26,-632.89 1738.19,-625.39"/>
<polygon fill="grey" stroke="grey" stroke-width="2" points="1741.54,-626.39 1740.64,-615.83 1734.76,-624.65 1741.54,-626.39"/>
</g>
<!-- 9&#45;&gt;4 -->
<g id="edge15" class="edge">
<title>9&#45;&gt;4</title>
<path fill="none" stroke="grey" stroke-width="2" d="M1855,-864.17C1900.32,-842.51 1967,-800.25 1967,-739 1967,-739 1967,-739 1967,-665 1967,-624.2 1985.01,-580.11 1998.96,-552.06"/>
<polygon fill="grey" stroke="grey" stroke-width="2" points="2001.95,-553.91 2003.43,-543.42 1995.73,-550.69 2001.95,-553.91"/>
</g>
<!-- 9&#45;&gt;5 -->
<g id="edge18" class="edge">
<title>9&#45;&gt;5</title>
<path fill="none" stroke="grey" stroke-width="2" d="M1816.36,-863.1C1820.88,-822.73 1827.64,-722.32 1795,-648 1790.82,-638.48 1784.2,-629.56 1777.17,-621.86"/>
<polygon fill="grey" stroke="grey" stroke-width="2" points="1779.84,-619.58 1770.31,-614.95 1774.87,-624.51 1779.84,-619.58"/>
</g>
<!-- 9&#45;&gt;13 -->
<g id="edge39" class="edge">
<title>9&#45;&gt;13</title>
<path fill="none" stroke="grey" stroke-width="2" d="M1773.04,-875.51C1685.42,-863.76 1478.69,-836.03 1366.89,-821.04"/>
<polygon fill="grey" stroke="grey" stroke-width="2" points="1367.45,-817.59 1357.08,-819.73 1366.52,-824.52 1367.45,-817.59"/>
</g>
<!-- 9&#45;&gt;25 -->
<g id="edge60" class="edge">
<title>9&#45;&gt;25</title>
<path fill="none" stroke="grey" stroke-width="2" d="M1796.54,-863.25C1739.31,-805.03 1557.07,-619.69 1488.46,-549.91"/>
<polygon fill="grey" stroke="grey" stroke-width="2" points="1491.19,-547.7 1481.68,-543.02 1486.2,-552.6 1491.19,-547.7"/>
</g>
<!-- 9&#45;&gt;29 -->
<g id="edge71" class="edge">
<title>9&#45;&gt;29</title>
<path fill="none" stroke="grey" stroke-width="2" d="M1822.06,-863.03C1833.21,-836.48 1852,-784.94 1852,-739 1852,-739 1852,-739 1852,-665 1852,-622.33 1841.94,-609.88 1816,-576 1808.01,-565.56 1797.45,-556.14 1786.97,-548.24"/>
<polygon fill="grey" stroke="grey" stroke-width="2" points="1789.25,-545.57 1779.08,-542.61 1785.19,-551.27 1789.25,-545.57"/>
</g>
<!-- 9&#45;&gt;30 -->
<g id="edge74" class="edge">
<title>9&#45;&gt;30</title>
<path fill="none" stroke="grey" stroke-width="2" d="M1830.87,-863.35C1853.26,-837.98 1890,-788.77 1890,-739 1890,-739 1890,-739 1890,-665 1890,-626.59 1887.05,-582.43 1884.73,-553.69"/>
<polygon fill="grey" stroke="grey" stroke-width="2" points="1888.23,-553.6 1883.91,-543.93 1881.26,-554.19 1888.23,-553.6"/>
</g>
<!-- 10&#45;&gt;2 -->
<g id="edge11" class="edge">
<title>10&#45;&gt;2</title>
<path fill="none" stroke="grey" stroke-width="2" d="M1307.55,-575.31C1325.89,-553.13 1356.51,-516.51 1369,-504 1386.37,-486.6 1394.61,-486.32 1411,-468 1436.81,-439.15 1445.66,-431.95 1460,-396 1487.46,-327.17 1495.09,-239.35 1497.2,-193.69"/>
<polygon fill="grey" stroke="grey" stroke-width="2" points="1500.68,-194.09 1497.57,-183.97 1493.69,-193.82 1500.68,-194.09"/>
</g>
<!-- 10&#45;&gt;4 -->
<g id="edge14" class="edge">
<title>10&#45;&gt;4</title>
<path fill="none" stroke="grey" stroke-width="2" d="M1336.48,-591.61C1439.24,-587.86 1705.28,-575.46 1936.6,-540.55"/>
<polygon fill="grey" stroke="grey" stroke-width="2" points="1936.98,-544.04 1946.34,-539.06 1935.92,-537.12 1936.98,-544.04"/>
</g>
<!-- 10&#45;&gt;25 -->
<g id="edge59" class="edge">
<title>10&#45;&gt;25</title>
<path fill="none" stroke="grey" stroke-width="2" d="M1336.08,-575.15C1357.55,-566.26 1383.76,-555.41 1406.7,-545.91"/>
<polygon fill="grey" stroke="grey" stroke-width="2" points="1408.01,-549.15 1415.91,-542.09 1405.33,-542.69 1408.01,-549.15"/>
</g>
<!-- 10&#45;&gt;26 -->
<g id="edge67" class="edge">
<title>10&#45;&gt;26</title>
<path fill="none" stroke="grey" stroke-width="2" d="M1336.48,-591.98C1390.75,-589.02 1484.93,-578.24 1555,-540 1610.71,-509.6 1652.42,-445.49 1673.23,-407.99"/>
<polygon fill="grey" stroke="grey" stroke-width="2" points="1676.14,-409.96 1677.8,-399.49 1669.98,-406.64 1676.14,-409.96"/>
</g>
<!-- 10&#45;&gt;29 -->
<g id="edge70" class="edge">
<title>10&#45;&gt;29</title>
<path fill="none" stroke="grey" stroke-width="2" d="M1336.44,-586.29C1411.78,-574.65 1567.84,-550.53 1664.07,-535.66"/>
<polygon fill="grey" stroke="grey" stroke-width="2" points="1664.32,-539.16 1673.67,-534.18 1663.25,-532.25 1664.32,-539.16"/>
</g>
<!-- 10&#45;&gt;30 -->
<g id="edge73" class="edge">
<title>10&#45;&gt;30</title>
<path fill="none" stroke="grey" stroke-width="2" d="M1336.32,-591.32C1425.2,-587.31 1634.65,-574.95 1818.65,-540.64"/>
<polygon fill="grey" stroke="grey" stroke-width="2" points="1819.15,-544.11 1828.32,-538.81 1817.84,-537.23 1819.15,-544.11"/>
</g>
<!-- 31 -->
<g id="node32" class="node">
<title>31</title>
<path fill="none" stroke="#5663d8" stroke-width="2" d="M1139,-252C1139,-252 1099,-252 1099,-252 1093,-252 1087,-246 1087,-240 1087,-240 1087,-228 1087,-228 1087,-222 1093,-216 1099,-216 1099,-216 1139,-216 1139,-216 1145,-216 1151,-222 1151,-228 1151,-228 1151,-240 1151,-240 1151,-246 1145,-252 1139,-252"/>
<text xml:space="preserve" text-anchor="middle" x="1119" y="-230.12" font-family="sans" font-size="10.00">add_export</text>
</g>
<!-- 10&#45;&gt;31 -->
<g id="edge79" class="edge">
<title>10&#45;&gt;31</title>
<path fill="none" stroke="grey" stroke-width="2" d="M1299.69,-575.03C1307.07,-556.37 1320.06,-526.77 1336,-504 1381.42,-439.11 1484.74,-426.03 1441,-360 1379.5,-267.17 1237.8,-243.24 1164.61,-237.1"/>
<polygon fill="grey" stroke="grey" stroke-width="2" points="1165.02,-233.62 1154.79,-236.37 1164.5,-240.6 1165.02,-233.62"/>
</g>
<!-- 34 -->
<g id="node35" class="node">
<title>34</title>
<path fill="none" stroke="#b6d856" stroke-width="2" d="M1167.12,-324C1167.12,-324 1070.88,-324 1070.88,-324 1064.88,-324 1058.88,-318 1058.88,-312 1058.88,-312 1058.88,-300 1058.88,-300 1058.88,-294 1064.88,-288 1070.88,-288 1070.88,-288 1167.12,-288 1167.12,-288 1173.12,-288 1179.12,-294 1179.12,-300 1179.12,-300 1179.12,-312 1179.12,-312 1179.12,-318 1173.12,-324 1167.12,-324"/>
<text xml:space="preserve" text-anchor="middle" x="1119" y="-302.12" font-family="sans" font-size="10.00">prepare_sector_network</text>
</g>
<!-- 10&#45;&gt;34 -->
<g id="edge90" class="edge">
<title>10&#45;&gt;34</title>
<path fill="none" stroke="grey" stroke-width="2" d="M1282.12,-575.11C1252.88,-527.06 1172.45,-394.85 1136.62,-335.96"/>
<polygon fill="grey" stroke="grey" stroke-width="2" points="1139.64,-334.19 1131.45,-327.47 1133.66,-337.83 1139.64,-334.19"/>
</g>
<!-- 10&#45;&gt;35 -->
<g id="edge95" class="edge">
<title>10&#45;&gt;35</title>
<path fill="none" stroke="grey" stroke-width="2" d="M1263.97,-575.13C1250.22,-565.77 1234.18,-553.46 1222,-540 1184.4,-498.47 1195.86,-472.35 1157,-432 1146.63,-421.23 1133.69,-411.55 1121.21,-403.5"/>
<polygon fill="grey" stroke="grey" stroke-width="2" points="1123.37,-400.72 1113.02,-398.44 1119.7,-406.67 1123.37,-400.72"/>
</g>
<!-- 38 -->
<g id="node39" class="node">
<title>38</title>
<path fill="none" stroke="#d88d56" stroke-width="2" d="M505.62,-540C505.62,-540 412.38,-540 412.38,-540 406.38,-540 400.38,-534 400.38,-528 400.38,-528 400.38,-516 400.38,-516 400.38,-510 406.38,-504 412.38,-504 412.38,-504 505.62,-504 505.62,-504 511.62,-504 517.62,-510 517.62,-516 517.62,-516 517.62,-528 517.62,-528 517.62,-534 511.62,-540 505.62,-540"/>
<text xml:space="preserve" text-anchor="middle" x="459" y="-518.12" font-family="sans" font-size="10.00">add_extra_components</text>
</g>
<!-- 10&#45;&gt;38 -->
<g id="edge100" class="edge">
<title>10&#45;&gt;38</title>
<path fill="none" stroke="grey" stroke-width="2" d="M1249.7,-591.02C1137.28,-585.62 827,-569.05 570,-540 557.43,-538.58 544.11,-536.79 531.21,-534.9"/>
<polygon fill="grey" stroke="grey" stroke-width="2" points="531.91,-531.47 521.5,-533.45 530.87,-538.39 531.91,-531.47"/>
</g>
<!-- 40 -->
<g id="node41" class="node">
<title>40</title>
<path fill="none" stroke="#56d8b1" stroke-width="2" d="M582,-468C582,-468 452,-468 452,-468 446,-468 440,-462 440,-456 440,-456 440,-444 440,-444 440,-438 446,-432 452,-432 452,-432 582,-432 582,-432 588,-432 594,-438 594,-444 594,-444 594,-456 594,-456 594,-462 588,-468 582,-468"/>
<text xml:space="preserve" text-anchor="middle" x="517" y="-446.12" font-family="sans" font-size="10.00">build_industrial_distribution_key</text>
</g>
<!-- 10&#45;&gt;40 -->
<g id="edge106" class="edge">
<title>10&#45;&gt;40</title>
<path fill="none" stroke="grey" stroke-width="2" d="M1249.71,-591.48C1128.95,-586.9 790.33,-571.53 684,-540 635.96,-525.76 585.89,-496.9 553.25,-475.89"/>
<polygon fill="grey" stroke="grey" stroke-width="2" points="555.28,-473.04 545,-470.48 551.45,-478.89 555.28,-473.04"/>
</g>
<!-- 47 -->
<g id="node48" class="node">
<title>47</title>
<path fill="none" stroke="#c6d856" stroke-width="2" d="M1287.5,-396C1287.5,-396 1202.5,-396 1202.5,-396 1196.5,-396 1190.5,-390 1190.5,-384 1190.5,-384 1190.5,-372 1190.5,-372 1190.5,-366 1196.5,-360 1202.5,-360 1202.5,-360 1287.5,-360 1287.5,-360 1293.5,-360 1299.5,-366 1299.5,-372 1299.5,-372 1299.5,-384 1299.5,-384 1299.5,-390 1293.5,-396 1287.5,-396"/>
<text xml:space="preserve" text-anchor="middle" x="1245" y="-374.12" font-family="sans" font-size="10.00">prepare_gas_network</text>
</g>
<!-- 10&#45;&gt;47 -->
<g id="edge113" class="edge">
<title>10&#45;&gt;47</title>
<path fill="none" stroke="grey" stroke-width="2" d="M1291.27,-575.34C1288.07,-545.43 1280.22,-483.05 1266,-432 1263.86,-424.3 1260.98,-416.19 1258.04,-408.69"/>
<polygon fill="grey" stroke="grey" stroke-width="2" points="1261.35,-407.54 1254.31,-399.63 1254.88,-410.21 1261.35,-407.54"/>
</g>
<!-- 10&#45;&gt;49 -->
<g id="edge117" class="edge">
<title>10&#45;&gt;49</title>
<path fill="none" stroke="grey" stroke-width="2" d="M1249.52,-588.52C1137.55,-575.78 848,-534.73 848,-451 848,-451 848,-451 848,-161 848,-110.51 892.86,-68.86 927.95,-44.01"/>
<polygon fill="grey" stroke="grey" stroke-width="2" points="929.67,-47.07 935.97,-38.54 925.73,-41.28 929.67,-47.07"/>
</g>
<!-- 11 -->
<g id="node12" class="node">
<title>11</title>
<path fill="none" stroke="#59d856" stroke-width="2" d="M1129.75,-684C1129.75,-684 1064.25,-684 1064.25,-684 1058.25,-684 1052.25,-678 1052.25,-672 1052.25,-672 1052.25,-660 1052.25,-660 1052.25,-654 1058.25,-648 1064.25,-648 1064.25,-648 1129.75,-648 1129.75,-648 1135.75,-648 1141.75,-654 1141.75,-660 1141.75,-660 1141.75,-672 1141.75,-672 1141.75,-678 1135.75,-684 1129.75,-684"/>
<text xml:space="preserve" text-anchor="middle" x="1097" y="-662.12" font-family="sans" font-size="10.00">simplify_network</text>
</g>
<!-- 11&#45;&gt;2 -->
<g id="edge10" class="edge">
<title>11&#45;&gt;2</title>
<path fill="none" stroke="grey" stroke-width="2" d="M1142.69,-659.75C1248.79,-646.5 1506.55,-607.82 1555,-540 1564.3,-526.98 1556.21,-519.95 1555,-504 1550.77,-447.97 1536,-435.19 1536,-379 1536,-379 1536,-379 1536,-305 1536,-265.16 1521.87,-221.11 1510.85,-192.8"/>
<polygon fill="grey" stroke="grey" stroke-width="2" points="1514.19,-191.73 1507.19,-183.77 1507.7,-194.36 1514.19,-191.73"/>
</g>
<!-- 11&#45;&gt;10 -->
<g id="edge23" class="edge">
<title>11&#45;&gt;10</title>
<path fill="none" stroke="grey" stroke-width="2" d="M1142.46,-648.76C1170.89,-638.61 1207.69,-625.47 1237.78,-614.72"/>
<polygon fill="grey" stroke="grey" stroke-width="2" points="1238.71,-618.1 1246.95,-611.44 1236.36,-611.51 1238.71,-618.1"/>
</g>
<!-- 11&#45;&gt;49 -->
<g id="edge116" class="edge">
<title>11&#45;&gt;49</title>
<path fill="none" stroke="grey" stroke-width="2" d="M1051.42,-660.55C970.73,-650.78 800.31,-621.39 684,-540 634.84,-505.6 649.03,-470.48 603,-432 507.99,-352.58 354,-430.83 354,-307 354,-307 354,-307 354,-161 354,-46.39 764.64,-24.27 914.83,-20.01"/>
<polygon fill="grey" stroke="grey" stroke-width="2" points="914.76,-23.51 924.67,-19.75 914.58,-16.52 914.76,-23.51"/>
</g>
<!-- 12&#45;&gt;11 -->
<g id="edge27" class="edge">
<title>12&#45;&gt;11</title>
<path fill="none" stroke="grey" stroke-width="2" d="M1122.42,-719.34C1119.06,-712.43 1115.12,-704.31 1111.36,-696.56"/>
<polygon fill="grey" stroke="grey" stroke-width="2" points="1114.54,-695.09 1107.02,-687.62 1108.24,-698.15 1114.54,-695.09"/>
</g>
<!-- 13&#45;&gt;12 -->
<g id="edge31" class="edge">
<title>13&#45;&gt;12</title>
<path fill="none" stroke="grey" stroke-width="2" d="M1250.96,-791.15C1230.36,-782.2 1205.19,-771.26 1183.23,-761.71"/>
<polygon fill="grey" stroke="grey" stroke-width="2" points="1184.75,-758.55 1174.19,-757.78 1181.96,-764.97 1184.75,-758.55"/>
</g>
<!-- 14 -->
<g id="node15" class="node">
<title>14</title>
<path fill="none" stroke="#d8bc56" stroke-width="2" d="M1337.5,-900C1337.5,-900 1246.5,-900 1246.5,-900 1240.5,-900 1234.5,-894 1234.5,-888 1234.5,-888 1234.5,-876 1234.5,-876 1234.5,-870 1240.5,-864 1246.5,-864 1246.5,-864 1337.5,-864 1337.5,-864 1343.5,-864 1349.5,-870 1349.5,-876 1349.5,-876 1349.5,-888 1349.5,-888 1349.5,-894 1343.5,-900 1337.5,-900"/>
<text xml:space="preserve" text-anchor="middle" x="1292" y="-878.12" font-family="sans" font-size="10.00">copy_defaultnatura_tiff</text>
</g>
<!-- 14&#45;&gt;13 -->
<g id="edge37" class="edge">
<title>14&#45;&gt;13</title>
<path fill="none" stroke="grey" stroke-width="2" d="M1292,-863.34C1292,-856.75 1292,-849.08 1292,-841.67"/>
<polygon fill="grey" stroke="grey" stroke-width="2" points="1295.5,-841.93 1292,-831.93 1288.5,-841.93 1295.5,-841.93"/>
</g>
<!-- 15&#45;&gt;11 -->
<g id="edge26" class="edge">
<title>15&#45;&gt;11</title>
<path fill="none" stroke="grey" stroke-width="2" d="M1057.61,-863.03C1062.06,-833.18 1071.73,-771.55 1083,-720 1084.65,-712.47 1086.65,-704.4 1088.63,-696.88"/>
<polygon fill="grey" stroke="grey" stroke-width="2" points="1091.93,-698.06 1091.16,-687.5 1085.17,-696.24 1091.93,-698.06"/>
</g>
<!-- 15&#45;&gt;13 -->
<g id="edge38" class="edge">
<title>15&#45;&gt;13</title>
<path fill="none" stroke="grey" stroke-width="2" d="M1102.96,-866.83C1136.26,-857 1181.24,-843.72 1218.97,-832.57"/>
<polygon fill="grey" stroke="grey" stroke-width="2" points="1219.95,-835.93 1228.55,-829.74 1217.97,-829.22 1219.95,-835.93"/>
</g>
<!-- 15&#45;&gt;23 -->
<g id="edge55" class="edge">
<title>15&#45;&gt;23</title>
<path fill="none" stroke="grey" stroke-width="2" d="M1035.82,-863.34C1027.34,-855.52 1017.18,-846.16 1007.81,-837.53"/>
<polygon fill="grey" stroke="grey" stroke-width="2" points="1010.39,-835.15 1000.66,-830.95 1005.65,-840.3 1010.39,-835.15"/>
</g>
<!-- 16&#45;&gt;12 -->
<g id="edge30" class="edge">
<title>16&#45;&gt;12</title>
<path fill="none" stroke="grey" stroke-width="2" d="M1105.2,-935.36C1107.01,-925.07 1109.26,-911.82 1111,-900 1117.66,-854.65 1123.94,-801.89 1127.62,-769.47"/>
<polygon fill="grey" stroke="grey" stroke-width="2" points="1131.06,-770.24 1128.7,-759.91 1124.1,-769.46 1131.06,-770.24"/>
</g>
<!-- 16&#45;&gt;15 -->
<g id="edge40" class="edge">
<title>16&#45;&gt;15</title>
<path fill="none" stroke="grey" stroke-width="2" d="M1090.14,-935.34C1085.28,-928.1 1079.53,-919.53 1074.1,-911.45"/>
<polygon fill="grey" stroke="grey" stroke-width="2" points="1077.19,-909.77 1068.71,-903.41 1071.38,-913.67 1077.19,-909.77"/>
</g>
<!-- 16&#45;&gt;20 -->
<g id="edge48" class="edge">
<title>16&#45;&gt;20</title>
<path fill="none" stroke="grey" stroke-width="2" d="M1141,-946.1C1189.11,-937.35 1273.62,-921.16 1354.67,-900.99"/>
<polygon fill="grey" stroke="grey" stroke-width="2" points="1355.34,-904.43 1364.18,-898.59 1353.63,-897.64 1355.34,-904.43"/>
</g>
<!-- 21 -->
<g id="node22" class="node">
<title>21</title>
<path fill="none" stroke="#d8a456" stroke-width="2" d="M553.25,-828C553.25,-828 478.75,-828 478.75,-828 472.75,-828 466.75,-822 466.75,-816 466.75,-816 466.75,-804 466.75,-804 466.75,-798 472.75,-792 478.75,-792 478.75,-792 553.25,-792 553.25,-792 559.25,-792 565.25,-798 565.25,-804 565.25,-804 565.25,-816 565.25,-816 565.25,-822 559.25,-828 553.25,-828"/>
<text xml:space="preserve" text-anchor="middle" x="516" y="-806.12" font-family="sans" font-size="10.00">process_cost_data</text>
</g>
<!-- 16&#45;&gt;21 -->
<g id="edge51" class="edge">
<title>16&#45;&gt;21</title>
<path fill="none" stroke="grey" stroke-width="2" d="M1062.64,-943.46C962.88,-919.29 699.48,-855.46 578.44,-826.13"/>
<polygon fill="grey" stroke="grey" stroke-width="2" points="579.63,-822.82 569.08,-823.86 577.98,-829.62 579.63,-822.82"/>
</g>
<!-- 16&#45;&gt;23 -->
<g id="edge53" class="edge">
<title>16&#45;&gt;23</title>
<path fill="none" stroke="grey" stroke-width="2" d="M1062.82,-941.96C1040.9,-933.82 1014.87,-920.52 999,-900 986.2,-883.45 981.28,-860.27 979.52,-841.72"/>
<polygon fill="grey" stroke="grey" stroke-width="2" points="983.03,-841.69 978.91,-831.93 976.04,-842.13 983.03,-841.69"/>
</g>
<!-- 17&#45;&gt;16 -->
<g id="edge42" class="edge">
<title>17&#45;&gt;16</title>
<path fill="none" stroke="grey" stroke-width="2" d="M1237.6,-1007.15C1211.87,-997.26 1179.82,-984.93 1153.34,-974.75"/>
<polygon fill="grey" stroke="grey" stroke-width="2" points="1154.64,-971.5 1144.05,-971.17 1152.13,-978.03 1154.64,-971.5"/>
</g>
<!-- 18&#45;&gt;17 -->
<g id="edge44" class="edge">
<title>18&#45;&gt;17</title>
<path fill="none" stroke="grey" stroke-width="2" d="M1373.41,-1079.15C1358.88,-1070.68 1341.3,-1060.42 1325.58,-1051.25"/>
<polygon fill="grey" stroke="grey" stroke-width="2" points="1327.55,-1048.35 1317.15,-1046.34 1324.02,-1054.4 1327.55,-1048.35"/>
</g>
<!-- 18&#45;&gt;20 -->
<g id="edge50" class="edge">
<title>18&#45;&gt;20</title>
<path fill="none" stroke="grey" stroke-width="2" d="M1404.92,-1079.12C1406.8,-1042.62 1411.09,-959.13 1413.42,-913.74"/>
<polygon fill="grey" stroke="grey" stroke-width="2" points="1416.9,-914.17 1413.92,-904 1409.91,-913.81 1416.9,-914.17"/>
</g>
<!-- 19 -->
<g id="node20" class="node">
<title>19</title>
<path fill="none" stroke="#56d8b9" stroke-width="2" d="M1444.62,-1188C1444.62,-1188 1363.38,-1188 1363.38,-1188 1357.38,-1188 1351.38,-1182 1351.38,-1176 1351.38,-1176 1351.38,-1164 1351.38,-1164 1351.38,-1158 1357.38,-1152 1363.38,-1152 1363.38,-1152 1444.62,-1152 1444.62,-1152 1450.62,-1152 1456.62,-1158 1456.62,-1164 1456.62,-1164 1456.62,-1176 1456.62,-1176 1456.62,-1182 1450.62,-1188 1444.62,-1188"/>
<text xml:space="preserve" text-anchor="middle" x="1404" y="-1166.12" font-family="sans" font-size="10.00">download_osm_data</text>
</g>
<!-- 19&#45;&gt;18 -->
<g id="edge46" class="edge">
<title>19&#45;&gt;18</title>
<path fill="none" stroke="grey" stroke-width="2" d="M1404,-1151.34C1404,-1144.75 1404,-1137.08 1404,-1129.67"/>
<polygon fill="grey" stroke="grey" stroke-width="2" points="1407.5,-1129.93 1404,-1119.93 1400.5,-1129.93 1407.5,-1129.93"/>
</g>
<!-- 20&#45;&gt;2 -->
<g id="edge6" class="edge">
<title>20&#45;&gt;2</title>
<path fill="none" stroke="grey" stroke-width="2" d="M1426.58,-863.13C1457.61,-814.04 1542.24,-671.99 1571,-540 1601.81,-398.57 1595.14,-348.99 1538,-216 1534.23,-207.22 1528.7,-198.56 1522.95,-190.88"/>
<polygon fill="grey" stroke="grey" stroke-width="2" points="1525.71,-188.72 1516.73,-183.1 1520.25,-193.1 1525.71,-188.72"/>
</g>
<!-- 20&#45;&gt;12 -->
<g id="edge28" class="edge">
<title>20&#45;&gt;12</title>
<path fill="none" stroke="grey" stroke-width="2" d="M1409.31,-863.35C1401.79,-842.95 1386.56,-809.9 1362,-792 1309.64,-753.86 1234.32,-742.58 1184.08,-739.56"/>
<polygon fill="grey" stroke="grey" stroke-width="2" points="1184.43,-736.07 1174.27,-739.08 1184.09,-743.06 1184.43,-736.07"/>
</g>
<!-- 20&#45;&gt;13 -->
<g id="edge34" class="edge">
<title>20&#45;&gt;13</title>
<path fill="none" stroke="grey" stroke-width="2" d="M1383.64,-863.15C1368.75,-854.68 1350.73,-844.42 1334.62,-835.25"/>
<polygon fill="grey" stroke="grey" stroke-width="2" points="1336.35,-832.21 1325.93,-830.31 1332.89,-838.3 1336.35,-832.21"/>
</g>
<!-- 21&#45;&gt;1 -->
<g id="edge2" class="edge">
<title>21&#45;&gt;1</title>
<path fill="none" stroke="grey" stroke-width="2" d="M522.22,-791.32C531,-764.71 546,-712.61 546,-667 546,-667 546,-667 546,-593 546,-552.55 553.4,-534.64 527,-504 497.26,-469.48 457.07,-505.37 431,-468 390.06,-409.31 430,-378.56 430,-307 430,-307 430,-307 430,-233 430,-115.7 839.14,-95.14 1008.22,-91.66"/>
<polygon fill="grey" stroke="grey" stroke-width="2" points="1008.21,-95.16 1018.14,-91.47 1008.08,-88.16 1008.21,-95.16"/>
</g>
<!-- 21&#45;&gt;2 -->
<g id="edge9" class="edge">
<title>21&#45;&gt;2</title>
<path fill="none" stroke="grey" stroke-width="2" d="M555.35,-791.11C597.98,-768.71 660,-725.99 660,-667 660,-667 660,-667 660,-305 660,-227.53 1223.98,-181.6 1426.59,-167.6"/>
<polygon fill="grey" stroke="grey" stroke-width="2" points="1426.65,-171.1 1436.39,-166.93 1426.17,-164.12 1426.65,-171.1"/>
</g>
<!-- 21&#45;&gt;10 -->
<g id="edge22" class="edge">
<title>21&#45;&gt;10</title>
<path fill="none" stroke="grey" stroke-width="2" d="M566.2,-792.26C597.26,-781.87 637.97,-768.22 674,-756 720.72,-740.16 731.84,-734.5 779,-720 895.25,-684.26 924.8,-676.62 1043,-648 1109.44,-631.91 1186.47,-615.99 1237.27,-605.86"/>
<polygon fill="grey" stroke="grey" stroke-width="2" points="1237.82,-609.32 1246.95,-603.94 1236.46,-602.45 1237.82,-609.32"/>
</g>
<!-- 21&#45;&gt;11 -->
<g id="edge25" class="edge">
<title>21&#45;&gt;11</title>
<path fill="none" stroke="grey" stroke-width="2" d="M566.17,-800.03C619.27,-790.28 705.41,-773.69 779,-756 870.71,-733.96 975.89,-703.49 1039.35,-684.52"/>
<polygon fill="grey" stroke="grey" stroke-width="2" points="1039.99,-687.99 1048.56,-681.76 1037.98,-681.28 1039.99,-687.99"/>
</g>
<!-- 21&#45;&gt;12 -->
<g id="edge32" class="edge">
<title>21&#45;&gt;12</title>
<path fill="none" stroke="grey" stroke-width="2" d="M566.07,-803.3C680.52,-790.27 960.44,-758.41 1077.82,-745.05"/>
<polygon fill="grey" stroke="grey" stroke-width="2" points="1078.1,-748.54 1087.64,-743.93 1077.31,-741.59 1078.1,-748.54"/>
</g>
<!-- 21&#45;&gt;31 -->
<g id="edge78" class="edge">
<title>21&#45;&gt;31</title>
<path fill="none" stroke="grey" stroke-width="2" d="M465.95,-803.58C350.63,-789.72 76,-748.17 76,-667 76,-667 76,-667 76,-449 76,-402.5 91.89,-385.15 131,-360 290.36,-257.51 901.06,-238.89 1073.45,-235.65"/>
<polygon fill="grey" stroke="grey" stroke-width="2" points="1073.28,-239.16 1083.22,-235.48 1073.16,-232.16 1073.28,-239.16"/>
</g>
<!-- 21&#45;&gt;34 -->
<g id="edge85" class="edge">
<title>21&#45;&gt;34</title>
<path fill="none" stroke="grey" stroke-width="2" d="M465.99,-801.67C364.44,-785.66 139.86,-744.11 95,-684 85.43,-671.18 93.79,-663.95 95,-648 99.23,-591.97 114,-579.19 114,-523 114,-523 114,-523 114,-449 114,-393.68 150.48,-382.53 201,-360 284.2,-322.89 910.19,-336.31 1045.4,-324.12"/>
<polygon fill="grey" stroke="grey" stroke-width="2" points="1045.62,-327.62 1055.17,-323.02 1044.84,-320.66 1045.62,-327.62"/>
</g>
<!-- 37 -->
<g id="node38" class="node">
<title>37</title>
<path fill="none" stroke="#56d8c1" stroke-width="2" d="M372,-468C372,-468 308,-468 308,-468 302,-468 296,-462 296,-456 296,-456 296,-444 296,-444 296,-438 302,-432 308,-432 308,-432 372,-432 372,-432 378,-432 384,-438 384,-444 384,-444 384,-456 384,-456 384,-462 378,-468 372,-468"/>
<text xml:space="preserve" text-anchor="middle" x="340" y="-446.12" font-family="sans" font-size="10.00">prepare_network</text>
</g>
<!-- 21&#45;&gt;37 -->
<g id="edge97" class="edge">
<title>21&#45;&gt;37</title>
<path fill="none" stroke="grey" stroke-width="2" d="M507.27,-791.25C479.01,-733.75 389.76,-552.22 354.52,-480.53"/>
<polygon fill="grey" stroke="grey" stroke-width="2" points="357.67,-479.01 350.12,-471.58 351.39,-482.1 357.67,-479.01"/>
</g>
<!-- 21&#45;&gt;38 -->
<g id="edge99" class="edge">
<title>21&#45;&gt;38</title>
<path fill="none" stroke="grey" stroke-width="2" d="M512.43,-791.11C502.94,-743.46 476.95,-613.05 465.07,-553.45"/>
<polygon fill="grey" stroke="grey" stroke-width="2" points="468.54,-552.98 463.16,-543.85 461.68,-554.34 468.54,-552.98"/>
</g>
<!-- 39 -->
<g id="node40" class="node">
<title>39</title>
<path fill="none" stroke="#56d873" stroke-width="2" d="M313.88,-396C313.88,-396 222.12,-396 222.12,-396 216.12,-396 210.12,-390 210.12,-384 210.12,-384 210.12,-372 210.12,-372 210.12,-366 216.12,-360 222.12,-360 222.12,-360 313.88,-360 313.88,-360 319.88,-360 325.88,-366 325.88,-372 325.88,-372 325.88,-384 325.88,-384 325.88,-390 319.88,-396 313.88,-396"/>
<text xml:space="preserve" text-anchor="middle" x="268" y="-374.12" font-family="sans" font-size="10.00">build_industry_demand</text>
</g>
<!-- 21&#45;&gt;39 -->
<g id="edge104" class="edge">
<title>21&#45;&gt;39</title>
<path fill="none" stroke="grey" stroke-width="2" d="M499.49,-791.45C490.37,-781.41 479.08,-768.38 470,-756 392.2,-649.99 389.92,-612.06 315,-504 303.45,-487.34 295.55,-486.38 287,-468 278.43,-449.6 273.68,-427.26 271.07,-409.56"/>
<polygon fill="grey" stroke="grey" stroke-width="2" points="274.56,-409.28 269.82,-399.8 267.62,-410.17 274.56,-409.28"/>
</g>
<!-- 21&#45;&gt;49 -->
<g id="edge115" class="edge">
<title>21&#45;&gt;49</title>
<path fill="none" stroke="grey" stroke-width="2" d="M466.05,-805.92C336.56,-796.58 0,-763.05 0,-667 0,-667 0,-667 0,-161 0,-67.83 710.44,-30.1 914.69,-21.18"/>
<polygon fill="grey" stroke="grey" stroke-width="2" points="914.81,-24.68 924.65,-20.76 914.51,-17.69 914.81,-24.68"/>
</g>
<!-- 22 -->
<g id="node23" class="node">
<title>22</title>
<path fill="none" stroke="#56c9d8" stroke-width="2" d="M552.12,-900C552.12,-900 479.88,-900 479.88,-900 473.88,-900 467.88,-894 467.88,-888 467.88,-888 467.88,-876 467.88,-876 467.88,-870 473.88,-864 479.88,-864 479.88,-864 552.12,-864 552.12,-864 558.12,-864 564.12,-870 564.12,-876 564.12,-876 564.12,-888 564.12,-888 564.12,-894 558.12,-900 552.12,-900"/>
<text xml:space="preserve" text-anchor="middle" x="516" y="-878.12" font-family="sans" font-size="10.00">retrieve_cost_data</text>
</g>
<!-- 22&#45;&gt;21 -->
<g id="edge52" class="edge">
<title>22&#45;&gt;21</title>
<path fill="none" stroke="grey" stroke-width="2" d="M516,-863.34C516,-856.75 516,-849.08 516,-841.67"/>
<polygon fill="grey" stroke="grey" stroke-width="2" points="519.5,-841.93 516,-831.93 512.5,-841.93 519.5,-841.93"/>
</g>
<!-- 23&#45;&gt;12 -->
<g id="edge29" class="edge">
<title>23&#45;&gt;12</title>
<path fill="none" stroke="grey" stroke-width="2" d="M1017.75,-791.15C1036.79,-782.38 1059.98,-771.71 1080.4,-762.3"/>
<polygon fill="grey" stroke="grey" stroke-width="2" points="1081.69,-765.56 1089.31,-758.2 1078.76,-759.2 1081.69,-765.56"/>
</g>
<!-- 24 -->
<g id="node25" class="node">
<title>24</title>
<path fill="none" stroke="#56d88a" stroke-width="2" d="M1754.25,-324C1754.25,-324 1613.75,-324 1613.75,-324 1607.75,-324 1601.75,-318 1601.75,-312 1601.75,-312 1601.75,-300 1601.75,-300 1601.75,-294 1607.75,-288 1613.75,-288 1613.75,-288 1754.25,-288 1754.25,-288 1760.25,-288 1766.25,-294 1766.25,-300 1766.25,-300 1766.25,-312 1766.25,-312 1766.25,-318 1760.25,-324 1754.25,-324"/>
<text xml:space="preserve" text-anchor="middle" x="1684" y="-302.12" font-family="sans" font-size="10.00">build_existing_heating_distribution</text>
</g>
<!-- 24&#45;&gt;2 -->
<g id="edge8" class="edge">
<title>24&#45;&gt;2</title>
<path fill="none" stroke="grey" stroke-width="2" d="M1666.96,-287.05C1648.51,-268.15 1617.72,-238.12 1588,-216 1574.23,-205.75 1558.33,-195.83 1543.76,-187.4"/>
<polygon fill="grey" stroke="grey" stroke-width="2" points="1545.49,-184.36 1535.07,-182.47 1542.04,-190.45 1545.49,-184.36"/>
</g>
<!-- 25&#45;&gt;24 -->
<g id="edge58" class="edge">
<title>25&#45;&gt;24</title>
<path fill="none" stroke="grey" stroke-width="2" d="M1480.55,-503.12C1519.56,-465.52 1610.3,-378.05 1656.26,-333.74"/>
<polygon fill="grey" stroke="grey" stroke-width="2" points="1658.4,-336.54 1663.17,-327.08 1653.54,-331.5 1658.4,-336.54"/>
</g>
<!-- 25&#45;&gt;26 -->
<g id="edge68" class="edge">
<title>25&#45;&gt;26</title>
<path fill="none" stroke="grey" stroke-width="2" d="M1515.41,-503.02C1538.59,-494.1 1565.52,-482.18 1588,-468 1615.75,-450.5 1643.3,-425.24 1662.43,-406.1"/>
<polygon fill="grey" stroke="grey" stroke-width="2" points="1664.75,-408.74 1669.25,-399.15 1659.75,-403.84 1664.75,-408.74"/>
</g>
<!-- 25&#45;&gt;34 -->
<g id="edge91" class="edge">
<title>25&#45;&gt;34</title>
<path fill="none" stroke="grey" stroke-width="2" d="M1445.56,-503.2C1407.78,-462.36 1317.34,-365.02 1309,-360 1273.69,-338.77 1229.6,-325.78 1192.79,-317.99"/>
<polygon fill="grey" stroke="grey" stroke-width="2" points="1193.56,-314.57 1183.06,-316.04 1192.18,-321.44 1193.56,-314.57"/>
</g>
<!-- 25&#45;&gt;35 -->
<g id="edge96" class="edge">
<title>25&#45;&gt;35</title>
<path fill="none" stroke="grey" stroke-width="2" d="M1390.15,-503.07C1355.31,-493.73 1313.09,-481.46 1276,-468 1247.2,-457.55 1175.37,-424.97 1126.11,-402.27"/>
<polygon fill="grey" stroke="grey" stroke-width="2" points="1127.72,-399.16 1117.18,-398.15 1124.79,-405.52 1127.72,-399.16"/>
</g>
<!-- 25&#45;&gt;40 -->
<g id="edge108" class="edge">
<title>25&#45;&gt;40</title>
<path fill="none" stroke="grey" stroke-width="2" d="M1377.34,-516.3C1233.63,-508.09 932.84,-489.9 679,-468 655.82,-466 630.81,-463.53 607.54,-461.1"/>
<polygon fill="grey" stroke="grey" stroke-width="2" points="608.13,-457.64 597.82,-460.07 607.4,-464.6 608.13,-457.64"/>
</g>
<!-- 26&#45;&gt;24 -->
<g id="edge57" class="edge">
<title>26&#45;&gt;24</title>
<path fill="none" stroke="grey" stroke-width="2" d="M1686.99,-359.34C1686.61,-352.75 1686.18,-345.08 1685.75,-337.67"/>
<polygon fill="grey" stroke="grey" stroke-width="2" points="1689.26,-337.71 1685.2,-327.92 1682.27,-338.11 1689.26,-337.71"/>
</g>
<!-- 26&#45;&gt;34 -->
<g id="edge81" class="edge">
<title>26&#45;&gt;34</title>
<path fill="none" stroke="grey" stroke-width="2" d="M1638.99,-370.97C1538.96,-358.66 1310.77,-330.59 1192.75,-316.07"/>
<polygon fill="grey" stroke="grey" stroke-width="2" points="1193.31,-312.62 1182.96,-314.87 1192.46,-319.56 1193.31,-312.62"/>
</g>
<!-- 27 -->
<g id="node28" class="node">
<title>27</title>
<path fill="none" stroke="#5682d8" stroke-width="2" d="M1136,-468C1136,-468 1048,-468 1048,-468 1042,-468 1036,-462 1036,-456 1036,-456 1036,-444 1036,-444 1036,-438 1042,-432 1048,-432 1048,-432 1136,-432 1136,-432 1142,-432 1148,-438 1148,-444 1148,-444 1148,-456 1148,-456 1148,-462 1142,-468 1136,-468"/>
<text xml:space="preserve" text-anchor="middle" x="1092" y="-446.12" font-family="sans" font-size="10.00">prepare_energy_totals</text>
</g>
<!-- 27&#45;&gt;26 -->
<g id="edge66" class="edge">
<title>27&#45;&gt;26</title>
<path fill="none" stroke="grey" stroke-width="2" d="M1148.88,-442.32C1261.08,-429.14 1510.11,-399.89 1626.2,-386.26"/>
<polygon fill="grey" stroke="grey" stroke-width="2" points="1626.48,-389.75 1636.01,-385.11 1625.66,-382.8 1626.48,-389.75"/>
</g>
<!-- 27&#45;&gt;34 -->
<g id="edge88" class="edge">
<title>27&#45;&gt;34</title>
<path fill="none" stroke="grey" stroke-width="2" d="M1035.21,-433.78C980.94,-419.1 907.05,-398.72 905,-396 895.35,-383.24 895.14,-372.6 905,-360 905.14,-359.82 983.63,-340.41 1045.5,-325.13"/>
<polygon fill="grey" stroke="grey" stroke-width="2" points="1046.21,-328.56 1055.08,-322.77 1044.53,-321.77 1046.21,-328.56"/>
</g>
<!-- 27&#45;&gt;35 -->
<g id="edge94" class="edge">
<title>27&#45;&gt;35</title>
<path fill="none" stroke="grey" stroke-width="2" d="M1087.96,-431.34C1086.44,-424.67 1084.66,-416.89 1082.95,-409.39"/>
<polygon fill="grey" stroke="grey" stroke-width="2" points="1086.41,-408.82 1080.77,-399.85 1079.58,-410.38 1086.41,-408.82"/>
</g>
<!-- 28 -->
<g id="node29" class="node">
<title>28</title>
<path fill="none" stroke="#56d8a9" stroke-width="2" d="M807.12,-540C807.12,-540 704.88,-540 704.88,-540 698.88,-540 692.88,-534 692.88,-528 692.88,-528 692.88,-516 692.88,-516 692.88,-510 698.88,-504 704.88,-504 704.88,-504 807.12,-504 807.12,-504 813.12,-504 819.12,-510 819.12,-516 819.12,-516 819.12,-528 819.12,-528 819.12,-534 813.12,-540 807.12,-540"/>
<text xml:space="preserve" text-anchor="middle" x="756" y="-518.12" font-family="sans" font-size="10.00">build_base_energy_totals</text>
</g>
<!-- 28&#45;&gt;27 -->
<g id="edge69" class="edge">
<title>28&#45;&gt;27</title>
<path fill="none" stroke="grey" stroke-width="2" d="M820.03,-509.65C872.19,-500.14 948.03,-485.71 1022.85,-468.88"/>
<polygon fill="grey" stroke="grey" stroke-width="2" points="1023.4,-472.34 1032.38,-466.71 1021.85,-465.51 1023.4,-472.34"/>
</g>
<!-- 45 -->
<g id="node46" class="node">
<title>45</title>
<path fill="none" stroke="#88d856" stroke-width="2" d="M807.75,-468C807.75,-468 700.25,-468 700.25,-468 694.25,-468 688.25,-462 688.25,-456 688.25,-456 688.25,-444 688.25,-444 688.25,-438 694.25,-432 700.25,-432 700.25,-432 807.75,-432 807.75,-432 813.75,-432 819.75,-438 819.75,-444 819.75,-444 819.75,-456 819.75,-456 819.75,-462 813.75,-468 807.75,-468"/>
<text xml:space="preserve" text-anchor="middle" x="754" y="-446.12" font-family="sans" font-size="10.00">build_base_industry_totals</text>
</g>
<!-- 28&#45;&gt;45 -->
<g id="edge112" class="edge">
<title>28&#45;&gt;45</title>
<path fill="none" stroke="grey" stroke-width="2" d="M755.5,-503.34C755.31,-496.75 755.09,-489.08 754.88,-481.67"/>
<polygon fill="grey" stroke="grey" stroke-width="2" points="758.38,-481.82 754.6,-471.93 751.39,-482.02 758.38,-481.82"/>
</g>
<!-- 29&#45;&gt;26 -->
<g id="edge65" class="edge">
<title>29&#45;&gt;26</title>
<path fill="none" stroke="grey" stroke-width="2" d="M1738.65,-503.02C1728.98,-479.33 1711.83,-437.35 1700.2,-408.86"/>
<polygon fill="grey" stroke="grey" stroke-width="2" points="1703.45,-407.57 1696.43,-399.64 1696.97,-410.22 1703.45,-407.57"/>
</g>
<!-- 30&#45;&gt;26 -->
<g id="edge63" class="edge">
<title>30&#45;&gt;26</title>
<path fill="none" stroke="grey" stroke-width="2" d="M1846.09,-503.08C1828.09,-493.53 1806.29,-481.07 1788,-468 1761.63,-449.16 1734.32,-424.44 1714.91,-405.83"/>
<polygon fill="grey" stroke="grey" stroke-width="2" points="1717.58,-403.55 1707.97,-399.09 1712.71,-408.57 1717.58,-403.55"/>
</g>
<!-- 31&#45;&gt;2 -->
<g id="edge12" class="edge">
<title>31&#45;&gt;2</title>
<path fill="none" stroke="grey" stroke-width="2" d="M1151.97,-226.91C1212.91,-215.65 1344.45,-191.36 1426.65,-176.18"/>
<polygon fill="grey" stroke="grey" stroke-width="2" points="1427.23,-179.63 1436.42,-174.37 1425.95,-172.75 1427.23,-179.63"/>
</g>
<!-- 31&#45;&gt;49 -->
<g id="edge118" class="edge">
<title>31&#45;&gt;49</title>
<path fill="none" stroke="grey" stroke-width="2" d="M1101.32,-215.08C1078.93,-191.76 1040.03,-149.14 1013,-108 1000.6,-89.13 989.37,-66.27 981.36,-48.44"/>
<polygon fill="grey" stroke="grey" stroke-width="2" points="984.67,-47.28 977.45,-39.52 978.26,-50.08 984.67,-47.28"/>
</g>
<!-- 32 -->
<g id="node33" class="node">
<title>32</title>
<path fill="none" stroke="#d87d56" stroke-width="2" d="M1419.62,-396C1419.62,-396 1368.38,-396 1368.38,-396 1362.38,-396 1356.38,-390 1356.38,-384 1356.38,-384 1356.38,-372 1356.38,-372 1356.38,-366 1362.38,-360 1368.38,-360 1368.38,-360 1419.62,-360 1419.62,-360 1425.62,-360 1431.62,-366 1431.62,-372 1431.62,-372 1431.62,-384 1431.62,-384 1431.62,-390 1425.62,-396 1419.62,-396"/>
<text xml:space="preserve" text-anchor="middle" x="1394" y="-374.12" font-family="sans" font-size="10.00">prepare_ports</text>
</g>
<!-- 32&#45;&gt;31 -->
<g id="edge77" class="edge">
<title>32&#45;&gt;31</title>
<path fill="none" stroke="grey" stroke-width="2" d="M1359.17,-359.02C1309.35,-333.29 1217.75,-285.99 1163.21,-257.83"/>
<polygon fill="grey" stroke="grey" stroke-width="2" points="1165.02,-254.82 1154.52,-253.34 1161.8,-261.04 1165.02,-254.82"/>
</g>
<!-- 32&#45;&gt;34 -->
<g id="edge83" class="edge">
<title>32&#45;&gt;34</title>
<path fill="none" stroke="grey" stroke-width="2" d="M1355.49,-364.02C1350.96,-362.61 1346.39,-361.24 1342,-360 1292.5,-346.05 1236.14,-332.68 1192.47,-322.85"/>
<polygon fill="grey" stroke="grey" stroke-width="2" points="1193.4,-319.48 1182.88,-320.71 1191.87,-326.31 1193.4,-319.48"/>
</g>
<!-- 33 -->
<g id="node34" class="node">
<title>33</title>
<path fill="none" stroke="#d86e56" stroke-width="2" d="M1028.5,-324C1028.5,-324 961.5,-324 961.5,-324 955.5,-324 949.5,-318 949.5,-312 949.5,-312 949.5,-300 949.5,-300 949.5,-294 955.5,-288 961.5,-288 961.5,-288 1028.5,-288 1028.5,-288 1034.5,-288 1040.5,-294 1040.5,-300 1040.5,-300 1040.5,-312 1040.5,-312 1040.5,-318 1034.5,-324 1028.5,-324"/>
<text xml:space="preserve" text-anchor="middle" x="995" y="-302.12" font-family="sans" font-size="10.00">build_ship_profile</text>
</g>
<!-- 33&#45;&gt;31 -->
<g id="edge76" class="edge">
<title>33&#45;&gt;31</title>
<path fill="none" stroke="grey" stroke-width="2" d="M1026.61,-287.15C1041.77,-278.6 1060.15,-268.22 1076.51,-258.99"/>
<polygon fill="grey" stroke="grey" stroke-width="2" points="1077.82,-262.26 1084.81,-254.3 1074.38,-256.17 1077.82,-262.26"/>
</g>
<!-- 34&#45;&gt;31 -->
<g id="edge80" class="edge">
<title>34&#45;&gt;31</title>
<path fill="none" stroke="grey" stroke-width="2" d="M1119,-287.34C1119,-280.75 1119,-273.08 1119,-265.67"/>
<polygon fill="grey" stroke="grey" stroke-width="2" points="1122.5,-265.93 1119,-255.93 1115.5,-265.93 1122.5,-265.93"/>
</g>
<!-- 35&#45;&gt;34 -->
<g id="edge84" class="edge">
<title>35&#45;&gt;34</title>
<path fill="none" stroke="grey" stroke-width="2" d="M1086.85,-359.34C1091.25,-352.18 1096.44,-343.73 1101.35,-335.73"/>
<polygon fill="grey" stroke="grey" stroke-width="2" points="1104.17,-337.83 1106.42,-327.48 1098.2,-334.17 1104.17,-337.83"/>
</g>
<!-- 36 -->
<g id="node37" class="node">
<title>36</title>
<path fill="none" stroke="#56d8d8" stroke-width="2" d="M1006,-468C1006,-468 888,-468 888,-468 882,-468 876,-462 876,-456 876,-456 876,-444 876,-444 876,-438 882,-432 888,-432 888,-432 1006,-432 1006,-432 1012,-432 1018,-438 1018,-444 1018,-444 1018,-456 1018,-456 1018,-462 1012,-468 1006,-468"/>
<text xml:space="preserve" text-anchor="middle" x="947" y="-446.12" font-family="sans" font-size="10.00">prepare_transport_data_input</text>
</g>
<!-- 36&#45;&gt;35 -->
<g id="edge92" class="edge">
<title>36&#45;&gt;35</title>
<path fill="none" stroke="grey" stroke-width="2" d="M979.89,-431.15C995.66,-422.6 1014.77,-412.22 1031.79,-402.99"/>
<polygon fill="grey" stroke="grey" stroke-width="2" points="1033.39,-406.1 1040.51,-398.26 1030.05,-399.95 1033.39,-406.1"/>
</g>
<!-- 37&#45;&gt;34 -->
<g id="edge87" class="edge">
<title>37&#45;&gt;34</title>
<path fill="none" stroke="grey" stroke-width="2" d="M384.88,-440.51C399.57,-437.75 415.97,-434.71 431,-432 701.66,-383.11 774.51,-381.48 1045.46,-324.89"/>
<polygon fill="grey" stroke="grey" stroke-width="2" points="1046.07,-328.34 1055.14,-322.87 1044.63,-321.49 1046.07,-328.34"/>
</g>
<!-- 38&#45;&gt;37 -->
<g id="edge98" class="edge">
<title>38&#45;&gt;37</title>
<path fill="none" stroke="grey" stroke-width="2" d="M428.66,-503.15C414.26,-494.68 396.82,-484.42 381.23,-475.25"/>
<polygon fill="grey" stroke="grey" stroke-width="2" points="383.28,-472.4 372.89,-470.35 379.74,-478.43 383.28,-472.4"/>
</g>
<!-- 39&#45;&gt;34 -->
<g id="edge82" class="edge">
<title>39&#45;&gt;34</title>
<path fill="none" stroke="grey" stroke-width="2" d="M326.66,-366.82C343.22,-364.26 361.28,-361.74 378,-360 671.28,-329.56 751.88,-366.88 1045.39,-324.52"/>
<polygon fill="grey" stroke="grey" stroke-width="2" points="1045.79,-328 1055.18,-323.08 1044.77,-321.07 1045.79,-328"/>
</g>
<!-- 40&#45;&gt;39 -->
<g id="edge105" class="edge">
<title>40&#45;&gt;39</title>
<path fill="none" stroke="grey" stroke-width="2" d="M453.2,-431.06C418.27,-421.24 374.9,-409.05 338.91,-398.93"/>
<polygon fill="grey" stroke="grey" stroke-width="2" points="340,-395.61 329.43,-396.27 338.11,-402.35 340,-395.61"/>
</g>
<!-- 41 -->
<g id="node42" class="node">
<title>41</title>
<path fill="none" stroke="#56b1d8" stroke-width="2" d="M293.75,-540C293.75,-540 192.25,-540 192.25,-540 186.25,-540 180.25,-534 180.25,-528 180.25,-528 180.25,-516 180.25,-516 180.25,-510 186.25,-504 192.25,-504 192.25,-504 293.75,-504 293.75,-504 299.75,-504 305.75,-510 305.75,-516 305.75,-516 305.75,-528 305.75,-528 305.75,-534 299.75,-540 293.75,-540"/>
<text xml:space="preserve" text-anchor="middle" x="243" y="-518.12" font-family="sans" font-size="10.00">build_industrial_database</text>
</g>
<!-- 41&#45;&gt;39 -->
<g id="edge103" class="edge">
<title>41&#45;&gt;39</title>
<path fill="none" stroke="grey" stroke-width="2" d="M244.49,-503.16C246.16,-485.11 249.28,-456.46 254,-432 255.46,-424.43 257.4,-416.35 259.37,-408.83"/>
<polygon fill="grey" stroke="grey" stroke-width="2" points="262.67,-410.02 261.93,-399.45 255.92,-408.17 262.67,-410.02"/>
</g>
<!-- 41&#45;&gt;40 -->
<g id="edge107" class="edge">
<title>41&#45;&gt;40</title>
<path fill="none" stroke="grey" stroke-width="2" d="M306.55,-504.76C344.52,-495.07 393.17,-482.64 434.13,-472.17"/>
<polygon fill="grey" stroke="grey" stroke-width="2" points="434.82,-475.61 443.64,-469.74 433.08,-468.83 434.82,-475.61"/>
</g>
<!-- 42 -->
<g id="node43" class="node">
<title>42</title>
<path fill="none" stroke="#d87556" stroke-width="2" d="M279.75,-612C279.75,-612 172.25,-612 172.25,-612 166.25,-612 160.25,-606 160.25,-600 160.25,-600 160.25,-588 160.25,-588 160.25,-582 166.25,-576 172.25,-576 172.25,-576 279.75,-576 279.75,-576 285.75,-576 291.75,-582 291.75,-588 291.75,-588 291.75,-600 291.75,-600 291.75,-606 285.75,-612 279.75,-612"/>
<text xml:space="preserve" text-anchor="middle" x="226" y="-590.12" font-family="sans" font-size="10.00">build_ammonia_production</text>
</g>
<!-- 42&#45;&gt;39 -->
<g id="edge102" class="edge">
<title>42&#45;&gt;39</title>
<path fill="none" stroke="grey" stroke-width="2" d="M199.47,-575.01C188.47,-565.94 176.91,-553.91 171,-540 164.74,-525.28 165.82,-519.14 171,-504 184.3,-465.17 215.12,-429.09 238.47,-405.77"/>
<polygon fill="grey" stroke="grey" stroke-width="2" points="240.72,-408.47 245.46,-398.99 235.85,-403.44 240.72,-408.47"/>
</g>
<!-- 42&#45;&gt;41 -->
<g id="edge109" class="edge">
<title>42&#45;&gt;41</title>
<path fill="none" stroke="grey" stroke-width="2" d="M230.29,-575.34C231.91,-568.67 233.8,-560.89 235.62,-553.39"/>
<polygon fill="grey" stroke="grey" stroke-width="2" points="238.98,-554.39 237.94,-543.84 232.18,-552.73 238.98,-554.39"/>
</g>
<!-- 43 -->
<g id="node44" class="node">
<title>43</title>
<path fill="none" stroke="#d85656" stroke-width="2" d="M370,-684C370,-684 264,-684 264,-684 258,-684 252,-678 252,-672 252,-672 252,-660 252,-660 252,-654 258,-648 264,-648 264,-648 370,-648 370,-648 376,-648 382,-654 382,-660 382,-660 382,-672 382,-672 382,-678 376,-684 370,-684"/>
<text xml:space="preserve" text-anchor="middle" x="317" y="-662.12" font-family="sans" font-size="10.00">retrieve_us_cities_dataset</text>
</g>
<!-- 43&#45;&gt;42 -->
<g id="edge110" class="edge">
<title>43&#45;&gt;42</title>
<path fill="none" stroke="grey" stroke-width="2" d="M294.04,-647.34C283.56,-639.27 270.94,-629.57 259.43,-620.72"/>
<polygon fill="grey" stroke="grey" stroke-width="2" points="261.73,-618.07 251.67,-614.75 257.46,-623.62 261.73,-618.07"/>
</g>
<!-- 44 -->
<g id="node45" class="node">
<title>44</title>
<path fill="none" stroke="#d8a456" stroke-width="2" d="M222.38,-684C222.38,-684 115.62,-684 115.62,-684 109.62,-684 103.62,-678 103.62,-672 103.62,-672 103.62,-660 103.62,-660 103.62,-654 109.62,-648 115.62,-648 115.62,-648 222.38,-648 222.38,-648 228.38,-648 234.38,-654 234.38,-660 234.38,-660 234.38,-672 234.38,-672 234.38,-678 228.38,-684 222.38,-684"/>
<text xml:space="preserve" text-anchor="middle" x="169" y="-662.12" font-family="sans" font-size="10.00">retrieve_ammonia_dataset</text>
</g>
<!-- 44&#45;&gt;42 -->
<g id="edge111" class="edge">
<title>44&#45;&gt;42</title>
<path fill="none" stroke="grey" stroke-width="2" d="M183.38,-647.34C189.41,-639.93 196.57,-631.14 203.28,-622.9"/>
<polygon fill="grey" stroke="grey" stroke-width="2" points="205.91,-625.21 209.51,-615.25 200.48,-620.79 205.91,-625.21"/>
</g>
<!-- 45&#45;&gt;39 -->
<g id="edge101" class="edge">
<title>45&#45;&gt;39</title>
<path fill="none" stroke="grey" stroke-width="2" d="M687.44,-439.41C596.2,-426.27 432.94,-402.76 339.28,-389.27"/>
<polygon fill="grey" stroke="grey" stroke-width="2" points="339.93,-385.82 329.54,-387.86 338.94,-392.75 339.93,-385.82"/>
</g>
<!-- 46 -->
<g id="node47" class="node">
<title>46</title>
<path fill="none" stroke="#68d856" stroke-width="2" d="M987.88,-396C987.88,-396 926.12,-396 926.12,-396 920.12,-396 914.12,-390 914.12,-384 914.12,-384 914.12,-372 914.12,-372 914.12,-366 920.12,-360 926.12,-360 926.12,-360 987.88,-360 987.88,-360 993.88,-360 999.88,-366 999.88,-372 999.88,-372 999.88,-384 999.88,-384 999.88,-390 993.88,-396 987.88,-396"/>
<text xml:space="preserve" text-anchor="middle" x="957" y="-374.12" font-family="sans" font-size="10.00">prepare_airports</text>
</g>
<!-- 46&#45;&gt;34 -->
<g id="edge86" class="edge">
<title>46&#45;&gt;34</title>
<path fill="none" stroke="grey" stroke-width="2" d="M998.3,-359.15C1018.78,-350.3 1043.77,-339.51 1065.69,-330.04"/>
<polygon fill="grey" stroke="grey" stroke-width="2" points="1066.93,-333.31 1074.72,-326.13 1064.15,-326.89 1066.93,-333.31"/>
</g>
<!-- 47&#45;&gt;34 -->
<g id="edge89" class="edge">
<title>47&#45;&gt;34</title>
<path fill="none" stroke="grey" stroke-width="2" d="M1212.88,-359.15C1197.48,-350.6 1178.8,-340.22 1162.18,-330.99"/>
<polygon fill="grey" stroke="grey" stroke-width="2" points="1164.15,-328.08 1153.71,-326.28 1160.75,-334.2 1164.15,-328.08"/>
</g>
<!-- 48 -->
<g id="node49" class="node">
<title>48</title>
<path fill="none" stroke="#61d856" stroke-width="2" d="M1630.25,-180C1630.25,-180 1585.75,-180 1585.75,-180 1579.75,-180 1573.75,-174 1573.75,-168 1573.75,-168 1573.75,-156 1573.75,-156 1573.75,-150 1579.75,-144 1585.75,-144 1585.75,-144 1630.25,-144 1630.25,-144 1636.25,-144 1642.25,-150 1642.25,-156 1642.25,-156 1642.25,-168 1642.25,-168 1642.25,-174 1636.25,-180 1630.25,-180"/>
<text xml:space="preserve" text-anchor="middle" x="1608" y="-158.12" font-family="sans" font-size="10.00">copy_config</text>
</g>
<!-- 48&#45;&gt;1 -->
<g id="edge4" class="edge">
<title>48&#45;&gt;1</title>
<path fill="none" stroke="grey" stroke-width="2" d="M1573.05,-146.3C1570.35,-145.44 1567.65,-144.66 1565,-144 1421.1,-108.38 1247.27,-96.69 1151.69,-92.86"/>
<polygon fill="grey" stroke="grey" stroke-width="2" points="1151.89,-89.37 1141.76,-92.49 1151.62,-96.36 1151.89,-89.37"/>
</g>
<!-- 49&#45;&gt;1 -->
<g id="edge3" class="edge">
<title>49&#45;&gt;1</title>
<path fill="none" stroke="grey" stroke-width="2" d="M1003.21,-36.81C1017.21,-45.12 1033.27,-55.14 1047.12,-64.17"/>
<polygon fill="grey" stroke="grey" stroke-width="2" points="1044.88,-66.89 1055.15,-69.48 1048.74,-61.05 1044.88,-66.89"/>
</g>
</g>
</svg>
