<?xml version="1.0" encoding="UTF-8" standalone="no"?>
<!DOCTYPE svg PUBLIC "-//W3C//DTD SVG 1.1//EN"
 "http://www.w3.org/Graphics/SVG/1.1/DTD/svg11.dtd">
<!-- Generated by graphviz version 14.1.4 (20260321.0153)
 -->
<!-- Title: snakemake_dag Pages: 1 -->
<svg width="844pt" height="980pt"
 viewBox="0.00 0.00 844.00 980.00" xmlns="http://www.w3.org/2000/svg" xmlns:xlink="http://www.w3.org/1999/xlink">
<g id="graph0" class="graph" transform="scale(1 1) rotate(0) translate(4 976)">
<title>snakemake_dag</title>
<polygon fill="white" stroke="none" points="-4,4 -4,-976 840.12,-976 840.12,4 -4,4"/>
<!-- 0 -->
<g id="node1" class="node">
<title>0</title>
<path fill="none" stroke="#d86656" stroke-width="2" d="M701.62,-36C701.62,-36 626.38,-36 626.38,-36 620.38,-36 614.38,-30 614.38,-24 614.38,-24 614.38,-12 614.38,-12 614.38,-6 620.38,0 626.38,0 626.38,0 701.62,0 701.62,0 707.62,0 713.62,-6 713.62,-12 713.62,-12 713.62,-24 713.62,-24 713.62,-30 707.62,-36 701.62,-36"/>
<text xml:space="preserve" text-anchor="middle" x="664" y="-14.12" font-family="sans" font-size="10.00">solve_all_networks</text>
</g>
<!-- 1 -->
<g id="node2" class="node">
<title>1</title>
<path fill="none" stroke="#d86e56" stroke-width="2" d="M691.5,-108C691.5,-108 636.5,-108 636.5,-108 630.5,-108 624.5,-102 624.5,-96 624.5,-96 624.5,-84 624.5,-84 624.5,-78 630.5,-72 636.5,-72 636.5,-72 691.5,-72 691.5,-72 697.5,-72 703.5,-78 703.5,-84 703.5,-84 703.5,-96 703.5,-96 703.5,-102 697.5,-108 691.5,-108"/>
<text xml:space="preserve" text-anchor="middle" x="664" y="-86.12" font-family="sans" font-size="10.00">solve_network</text>
</g>
<!-- 1&#45;&gt;0 -->
<g id="edge1" class="edge">
<title>1&#45;&gt;0</title>
<path fill="none" stroke="grey" stroke-width="2" d="M664,-71.34C664,-64.75 664,-57.08 664,-49.67"/>
<polygon fill="grey" stroke="grey" stroke-width="2" points="667.5,-49.93 664,-39.93 660.5,-49.93 667.5,-49.93"/>
</g>
<!-- 2 -->
<g id="node3" class="node">
<title>2</title>
<path fill="none" stroke="#56a2d8" stroke-width="2" d="M696,-180C696,-180 632,-180 632,-180 626,-180 620,-174 620,-168 620,-168 620,-156 620,-156 620,-150 626,-144 632,-144 632,-144 696,-144 696,-144 702,-144 708,-150 708,-156 708,-156 708,-168 708,-168 708,-174 702,-180 696,-180"/>
<text xml:space="preserve" text-anchor="middle" x="664" y="-158.12" font-family="sans" font-size="10.00">prepare_network</text>
</g>
<!-- 2&#45;&gt;1 -->
<g id="edge2" class="edge">
<title>2&#45;&gt;1</title>
<path fill="none" stroke="grey" stroke-width="2" d="M664,-143.34C664,-136.75 664,-129.08 664,-121.67"/>
<polygon fill="grey" stroke="grey" stroke-width="2" points="667.5,-121.93 664,-111.93 660.5,-121.93 667.5,-121.93"/>
</g>
<!-- 3 -->
<g id="node4" class="node">
<title>3</title>
<path fill="none" stroke="#5673d8" stroke-width="2" d="M667.62,-252C667.62,-252 574.38,-252 574.38,-252 568.38,-252 562.38,-246 562.38,-240 562.38,-240 562.38,-228 562.38,-228 562.38,-222 568.38,-216 574.38,-216 574.38,-216 667.62,-216 667.62,-216 673.62,-216 679.62,-222 679.62,-228 679.62,-228 679.62,-240 679.62,-240 679.62,-246 673.62,-252 667.62,-252"/>
<text xml:space="preserve" text-anchor="middle" x="621" y="-230.12" font-family="sans" font-size="10.00">add_extra_components</text>
</g>
<!-- 3&#45;&gt;2 -->
<g id="edge4" class="edge">
<title>3&#45;&gt;2</title>
<path fill="none" stroke="grey" stroke-width="2" d="M631.85,-215.34C636.25,-208.18 641.44,-199.73 646.35,-191.73"/>
<polygon fill="grey" stroke="grey" stroke-width="2" points="649.17,-193.83 651.42,-183.48 643.2,-190.17 649.17,-193.83"/>
</g>
<!-- 4 -->
<g id="node5" class="node">
<title>4</title>
<path fill="none" stroke="#70d856" stroke-width="2" d="M582.5,-324C582.5,-324 521.5,-324 521.5,-324 515.5,-324 509.5,-318 509.5,-312 509.5,-312 509.5,-300 509.5,-300 509.5,-294 515.5,-288 521.5,-288 521.5,-288 582.5,-288 582.5,-288 588.5,-288 594.5,-294 594.5,-300 594.5,-300 594.5,-312 594.5,-312 594.5,-318 588.5,-324 582.5,-324"/>
<text xml:space="preserve" text-anchor="middle" x="552" y="-302.12" font-family="sans" font-size="10.00">cluster_network</text>
</g>
<!-- 4&#45;&gt;3 -->
<g id="edge6" class="edge">
<title>4&#45;&gt;3</title>
<path fill="none" stroke="grey" stroke-width="2" d="M569.41,-287.34C576.95,-279.69 585.95,-270.56 594.31,-262.08"/>
<polygon fill="grey" stroke="grey" stroke-width="2" points="596.7,-264.64 601.23,-255.06 591.72,-259.72 596.7,-264.64"/>
</g>
<!-- 5 -->
<g id="node6" class="node">
<title>5</title>
<path fill="none" stroke="#d89556" stroke-width="2" d="M548.75,-396C548.75,-396 483.25,-396 483.25,-396 477.25,-396 471.25,-390 471.25,-384 471.25,-384 471.25,-372 471.25,-372 471.25,-366 477.25,-360 483.25,-360 483.25,-360 548.75,-360 548.75,-360 554.75,-360 560.75,-366 560.75,-372 560.75,-372 560.75,-384 560.75,-384 560.75,-390 554.75,-396 548.75,-396"/>
<text xml:space="preserve" text-anchor="middle" x="516" y="-374.12" font-family="sans" font-size="10.00">simplify_network</text>
</g>
<!-- 5&#45;&gt;4 -->
<g id="edge8" class="edge">
<title>5&#45;&gt;4</title>
<path fill="none" stroke="grey" stroke-width="2" d="M525.08,-359.34C528.68,-352.34 532.91,-344.12 536.94,-336.28"/>
<polygon fill="grey" stroke="grey" stroke-width="2" points="539.95,-338.09 541.41,-327.59 533.72,-334.89 539.95,-338.09"/>
</g>
<!-- 6 -->
<g id="node7" class="node">
<title>6</title>
<path fill="none" stroke="#d8b456" stroke-width="2" d="M459.5,-468C459.5,-468 404.5,-468 404.5,-468 398.5,-468 392.5,-462 392.5,-456 392.5,-456 392.5,-444 392.5,-444 392.5,-438 398.5,-432 404.5,-432 404.5,-432 459.5,-432 459.5,-432 465.5,-432 471.5,-438 471.5,-444 471.5,-444 471.5,-456 471.5,-456 471.5,-462 465.5,-468 459.5,-468"/>
<text xml:space="preserve" text-anchor="middle" x="432" y="-446.12" font-family="sans" font-size="10.00">add_electricity</text>
</g>
<!-- 6&#45;&gt;5 -->
<g id="edge10" class="edge">
<title>6&#45;&gt;5</title>
<path fill="none" stroke="grey" stroke-width="2" d="M453.2,-431.34C462.77,-423.36 474.28,-413.77 484.81,-404.99"/>
<polygon fill="grey" stroke="grey" stroke-width="2" points="486.75,-407.93 492.19,-398.84 482.27,-402.55 486.75,-407.93"/>
</g>
<!-- 7 -->
<g id="node8" class="node">
<title>7</title>
<path fill="none" stroke="#d8a456" stroke-width="2" d="M260.25,-540C260.25,-540 161.75,-540 161.75,-540 155.75,-540 149.75,-534 149.75,-528 149.75,-528 149.75,-516 149.75,-516 149.75,-510 155.75,-504 161.75,-504 161.75,-504 260.25,-504 260.25,-504 266.25,-504 272.25,-510 272.25,-516 272.25,-516 272.25,-528 272.25,-528 272.25,-534 266.25,-540 260.25,-540"/>
<text xml:space="preserve" text-anchor="middle" x="211" y="-518.12" font-family="sans" font-size="10.00">build_renewable_profiles</text>
</g>
<!-- 7&#45;&gt;6 -->
<g id="edge16" class="edge">
<title>7&#45;&gt;6</title>
<path fill="none" stroke="grey" stroke-width="2" d="M267.63,-503.06C301.99,-492.18 345.55,-478.38 379.19,-467.73"/>
<polygon fill="grey" stroke="grey" stroke-width="2" points="380.2,-471.08 388.68,-464.72 378.09,-464.41 380.2,-471.08"/>
</g>
<!-- 8 -->
<g id="node9" class="node">
<title>8</title>
<path fill="none" stroke="#afd856" stroke-width="2" d="M131.5,-756C131.5,-756 40.5,-756 40.5,-756 34.5,-756 28.5,-750 28.5,-744 28.5,-744 28.5,-732 28.5,-732 28.5,-726 34.5,-720 40.5,-720 40.5,-720 131.5,-720 131.5,-720 137.5,-720 143.5,-726 143.5,-732 143.5,-732 143.5,-744 143.5,-744 143.5,-750 137.5,-756 131.5,-756"/>
<text xml:space="preserve" text-anchor="middle" x="86" y="-734.12" font-family="sans" font-size="10.00">copy_defaultnatura_tiff</text>
</g>
<!-- 8&#45;&gt;7 -->
<g id="edge19" class="edge">
<title>8&#45;&gt;7</title>
<path fill="none" stroke="grey" stroke-width="2" d="M96.44,-719.12C118.04,-682.14 167.8,-596.96 194.06,-552"/>
<polygon fill="grey" stroke="grey" stroke-width="2" points="196.95,-553.99 198.97,-543.59 190.91,-550.46 196.95,-553.99"/>
</g>
<!-- 9 -->
<g id="node10" class="node">
<title>9</title>
<path fill="none" stroke="#a7d856" stroke-width="2" d="M285,-972C285,-972 185,-972 185,-972 179,-972 173,-966 173,-960 173,-960 173,-948 173,-948 173,-942 179,-936 185,-936 185,-936 285,-936 285,-936 291,-936 297,-942 297,-948 297,-948 297,-960 297,-960 297,-966 291,-972 285,-972"/>
<text xml:space="preserve" text-anchor="middle" x="235" y="-950.12" font-family="sans" font-size="10.00">retrieve_databundle_light</text>
</g>
<!-- 9&#45;&gt;7 -->
<g id="edge20" class="edge">
<title>9&#45;&gt;7</title>
<path fill="none" stroke="grey" stroke-width="2" d="M172.02,-942.86C102.41,-927.64 0,-891.56 0,-811 0,-811 0,-811 0,-665 0,-597.25 75.79,-559.71 136.53,-540.49"/>
<polygon fill="grey" stroke="grey" stroke-width="2" points="137.37,-543.89 145.94,-537.65 135.35,-537.19 137.37,-543.89"/>
</g>
<!-- 9&#45;&gt;8 -->
<g id="edge25" class="edge">
<title>9&#45;&gt;8</title>
<path fill="none" stroke="grey" stroke-width="2" d="M222.55,-935.12C196.7,-897.99 136.99,-812.24 105.8,-767.43"/>
<polygon fill="grey" stroke="grey" stroke-width="2" points="108.83,-765.67 100.25,-759.46 103.09,-769.67 108.83,-765.67"/>
</g>
<!-- 10 -->
<g id="node11" class="node">
<title>10</title>
<path fill="none" stroke="#56d0d8" stroke-width="2" d="M360.5,-900C360.5,-900 311.5,-900 311.5,-900 305.5,-900 299.5,-894 299.5,-888 299.5,-888 299.5,-876 299.5,-876 299.5,-870 305.5,-864 311.5,-864 311.5,-864 360.5,-864 360.5,-864 366.5,-864 372.5,-870 372.5,-876 372.5,-876 372.5,-888 372.5,-888 372.5,-894 366.5,-900 360.5,-900"/>
<text xml:space="preserve" text-anchor="middle" x="336" y="-878.12" font-family="sans" font-size="10.00">build_shapes</text>
</g>
<!-- 9&#45;&gt;10 -->
<g id="edge26" class="edge">
<title>9&#45;&gt;10</title>
<path fill="none" stroke="grey" stroke-width="2" d="M260.75,-935.15C272.62,-926.93 286.92,-917.02 299.84,-908.06"/>
<polygon fill="grey" stroke="grey" stroke-width="2" points="301.59,-911.11 307.81,-902.54 297.6,-905.36 301.59,-911.11"/>
</g>
<!-- 20 -->
<g id="node21" class="node">
<title>20</title>
<path fill="none" stroke="#565bd8" stroke-width="2" d="M628.38,-540C628.38,-540 539.62,-540 539.62,-540 533.62,-540 527.62,-534 527.62,-528 527.62,-528 527.62,-516 527.62,-516 527.62,-510 533.62,-504 539.62,-504 539.62,-504 628.38,-504 628.38,-504 634.38,-504 640.38,-510 640.38,-516 640.38,-516 640.38,-528 640.38,-528 640.38,-534 634.38,-540 628.38,-540"/>
<text xml:space="preserve" text-anchor="middle" x="584" y="-518.12" font-family="sans" font-size="10.00">build_demand_profiles</text>
</g>
<!-- 9&#45;&gt;20 -->
<g id="edge42" class="edge">
<title>9&#45;&gt;20</title>
<path fill="none" stroke="grey" stroke-width="2" d="M297.74,-951.97C369.37,-948.89 488.92,-937.88 584,-900 648.37,-874.35 712,-880.29 712,-811 712,-811 712,-811 712,-665 712,-613.34 664.69,-572.01 627.59,-547.54"/>
<polygon fill="grey" stroke="grey" stroke-width="2" points="629.84,-544.82 619.52,-542.42 626.09,-550.73 629.84,-544.82"/>
</g>
<!-- 10&#45;&gt;4 -->
<g id="edge9" class="edge">
<title>10&#45;&gt;4</title>
<path fill="none" stroke="grey" stroke-width="2" d="M298.53,-870.55C274.13,-862.23 242.89,-848.52 221,-828 167.9,-778.22 165.42,-753.25 143,-684 120.78,-615.35 122,-595.16 122,-523 122,-523 122,-523 122,-449 122,-371.12 379.53,-328.74 495.99,-313.55"/>
<polygon fill="grey" stroke="grey" stroke-width="2" points="496.32,-317.04 505.8,-312.3 495.44,-310.09 496.32,-317.04"/>
</g>
<!-- 10&#45;&gt;6 -->
<g id="edge17" class="edge">
<title>10&#45;&gt;6</title>
<path fill="none" stroke="grey" stroke-width="2" d="M327.94,-863.03C316.79,-836.48 298,-784.94 298,-739 298,-739 298,-739 298,-665 298,-624.55 298.43,-611.93 317,-576 337.41,-536.51 373.66,-500.19 400.01,-476.99"/>
<polygon fill="grey" stroke="grey" stroke-width="2" points="401.98,-479.91 407.28,-470.74 397.42,-474.61 401.98,-479.91"/>
</g>
<!-- 10&#45;&gt;7 -->
<g id="edge24" class="edge">
<title>10&#45;&gt;7</title>
<path fill="none" stroke="grey" stroke-width="2" d="M313.81,-863.15C303.39,-853.7 291.62,-841.31 284,-828 263.66,-792.44 260,-779.97 260,-739 260,-739 260,-739 260,-665 260,-624.11 241.62,-580.04 227.37,-552.02"/>
<polygon fill="grey" stroke="grey" stroke-width="2" points="230.57,-550.59 222.81,-543.38 224.38,-553.86 230.57,-550.59"/>
</g>
<!-- 11 -->
<g id="node12" class="node">
<title>11</title>
<path fill="none" stroke="#567bd8" stroke-width="2" d="M558,-612C558,-612 488,-612 488,-612 482,-612 476,-606 476,-600 476,-600 476,-588 476,-588 476,-582 482,-576 488,-576 488,-576 558,-576 558,-576 564,-576 570,-582 570,-588 570,-588 570,-600 570,-600 570,-606 564,-612 558,-612"/>
<text xml:space="preserve" text-anchor="middle" x="523" y="-590.12" font-family="sans" font-size="10.00">build_bus_regions</text>
</g>
<!-- 10&#45;&gt;11 -->
<g id="edge28" class="edge">
<title>10&#45;&gt;11</title>
<path fill="none" stroke="grey" stroke-width="2" d="M345.26,-863.02C366.26,-822.91 420,-723.68 476,-648 482.38,-639.38 489.86,-630.48 496.96,-622.5"/>
<polygon fill="grey" stroke="grey" stroke-width="2" points="499.46,-624.96 503.6,-615.2 494.28,-620.25 499.46,-624.96"/>
</g>
<!-- 12 -->
<g id="node13" class="node">
<title>12</title>
<path fill="none" stroke="#b6d856" stroke-width="2" d="M549.38,-684C549.38,-684 496.62,-684 496.62,-684 490.62,-684 484.62,-678 484.62,-672 484.62,-672 484.62,-660 484.62,-660 484.62,-654 490.62,-648 496.62,-648 496.62,-648 549.38,-648 549.38,-648 555.38,-648 561.38,-654 561.38,-660 561.38,-660 561.38,-672 561.38,-672 561.38,-678 555.38,-684 549.38,-684"/>
<text xml:space="preserve" text-anchor="middle" x="523" y="-662.12" font-family="sans" font-size="10.00">base_network</text>
</g>
<!-- 10&#45;&gt;12 -->
<g id="edge30" class="edge">
<title>10&#45;&gt;12</title>
<path fill="none" stroke="grey" stroke-width="2" d="M354.42,-863.41C364.65,-853.35 377.42,-840.32 388,-828 427.1,-782.49 429.48,-765.14 469,-720 476.71,-711.19 485.6,-702.09 493.91,-693.97"/>
<polygon fill="grey" stroke="grey" stroke-width="2" points="496.32,-696.51 501.11,-687.06 491.47,-691.46 496.32,-696.51"/>
</g>
<!-- 13 -->
<g id="node14" class="node">
<title>13</title>
<path fill="none" stroke="#68d856" stroke-width="2" d="M566,-756C566,-756 490,-756 490,-756 484,-756 478,-750 478,-744 478,-744 478,-732 478,-732 478,-726 484,-720 490,-720 490,-720 566,-720 566,-720 572,-720 578,-726 578,-732 578,-732 578,-744 578,-744 578,-750 572,-756 566,-756"/>
<text xml:space="preserve" text-anchor="middle" x="528" y="-734.12" font-family="sans" font-size="10.00">build_osm_network</text>
</g>
<!-- 10&#45;&gt;13 -->
<g id="edge32" class="edge">
<title>10&#45;&gt;13</title>
<path fill="none" stroke="grey" stroke-width="2" d="M369.84,-863.04C387.12,-853.38 408.2,-840.83 426,-828 433.6,-822.52 471.29,-789.35 498.65,-765.1"/>
<polygon fill="grey" stroke="grey" stroke-width="2" points="500.76,-767.91 505.92,-758.65 496.12,-762.67 500.76,-767.91"/>
</g>
<!-- 14 -->
<g id="node15" class="node">
<title>14</title>
<path fill="none" stroke="#56c1d8" stroke-width="2" d="M553.62,-828C553.62,-828 490.38,-828 490.38,-828 484.38,-828 478.38,-822 478.38,-816 478.38,-816 478.38,-804 478.38,-804 478.38,-798 484.38,-792 490.38,-792 490.38,-792 553.62,-792 553.62,-792 559.62,-792 565.62,-798 565.62,-804 565.62,-804 565.62,-816 565.62,-816 565.62,-822 559.62,-828 553.62,-828"/>
<text xml:space="preserve" text-anchor="middle" x="522" y="-806.12" font-family="sans" font-size="10.00">clean_osm_data</text>
</g>
<!-- 10&#45;&gt;14 -->
<g id="edge34" class="edge">
<title>10&#45;&gt;14</title>
<path fill="none" stroke="grey" stroke-width="2" d="M373.19,-867C399.66,-857.04 435.68,-843.48 465.66,-832.2"/>
<polygon fill="grey" stroke="grey" stroke-width="2" points="466.71,-835.55 474.83,-828.75 464.24,-829 466.71,-835.55"/>
</g>
<!-- 16 -->
<g id="node17" class="node">
<title>16</title>
<path fill="none" stroke="#8fd856" stroke-width="2" d="M220.25,-684C220.25,-684 163.75,-684 163.75,-684 157.75,-684 151.75,-678 151.75,-672 151.75,-672 151.75,-660 151.75,-660 151.75,-654 157.75,-648 163.75,-648 163.75,-648 220.25,-648 220.25,-648 226.25,-648 232.25,-654 232.25,-660 232.25,-660 232.25,-672 232.25,-672 232.25,-678 226.25,-684 220.25,-684"/>
<text xml:space="preserve" text-anchor="middle" x="192" y="-662.12" font-family="sans" font-size="10.00">retrieve_cutout</text>
</g>
<!-- 10&#45;&gt;16 -->
<g id="edge35" class="edge">
<title>10&#45;&gt;16</title>
<path fill="none" stroke="grey" stroke-width="2" d="M298.84,-866.55C280.68,-857.82 259.82,-845.05 246,-828 214.86,-789.58 201.35,-732.39 195.73,-697.52"/>
<polygon fill="grey" stroke="grey" stroke-width="2" points="199.23,-697.29 194.32,-687.9 192.3,-698.3 199.23,-697.29"/>
</g>
<!-- 17 -->
<g id="node18" class="node">
<title>17</title>
<path fill="none" stroke="#56d8c1" stroke-width="2" d="M408,-612C408,-612 338,-612 338,-612 332,-612 326,-606 326,-600 326,-600 326,-588 326,-588 326,-582 332,-576 338,-576 338,-576 408,-576 408,-576 414,-576 420,-582 420,-588 420,-588 420,-600 420,-600 420,-606 414,-612 408,-612"/>
<text xml:space="preserve" text-anchor="middle" x="373" y="-590.12" font-family="sans" font-size="10.00">build_powerplants</text>
</g>
<!-- 10&#45;&gt;17 -->
<g id="edge38" class="edge">
<title>10&#45;&gt;17</title>
<path fill="none" stroke="grey" stroke-width="2" d="M338.31,-863.11C344.48,-815.46 361.35,-685.05 369.06,-625.45"/>
<polygon fill="grey" stroke="grey" stroke-width="2" points="372.49,-626.25 370.3,-615.89 365.54,-625.35 372.49,-626.25"/>
</g>
<!-- 10&#45;&gt;20 -->
<g id="edge43" class="edge">
<title>10&#45;&gt;20</title>
<path fill="none" stroke="grey" stroke-width="2" d="M373.36,-875.1C431.39,-865.55 540.14,-845.94 575,-828 627.61,-800.93 674,-798.17 674,-739 674,-739 674,-739 674,-665 674,-619.25 640.26,-576.29 614.09,-549.85"/>
<polygon fill="grey" stroke="grey" stroke-width="2" points="616.65,-547.46 607.04,-543 611.77,-552.48 616.65,-547.46"/>
</g>
<!-- 11&#45;&gt;5 -->
<g id="edge12" class="edge">
<title>11&#45;&gt;5</title>
<path fill="none" stroke="grey" stroke-width="2" d="M521.42,-575.35C520.55,-565.05 519.55,-551.8 519,-540 516.87,-494.75 516.24,-442.29 516.06,-409.87"/>
<polygon fill="grey" stroke="grey" stroke-width="2" points="519.56,-409.89 516.01,-399.91 512.56,-409.92 519.56,-409.89"/>
</g>
<!-- 11&#45;&gt;7 -->
<g id="edge22" class="edge">
<title>11&#45;&gt;7</title>
<path fill="none" stroke="grey" stroke-width="2" d="M475.27,-582.29C424.78,-570.96 344.42,-552.93 285.56,-539.73"/>
<polygon fill="grey" stroke="grey" stroke-width="2" points="286.45,-536.34 275.93,-537.57 284.92,-543.17 286.45,-536.34"/>
</g>
<!-- 11&#45;&gt;20 -->
<g id="edge44" class="edge">
<title>11&#45;&gt;20</title>
<path fill="none" stroke="grey" stroke-width="2" d="M538.39,-575.34C544.92,-567.85 552.67,-558.95 559.92,-550.63"/>
<polygon fill="grey" stroke="grey" stroke-width="2" points="562.48,-553.02 566.41,-543.18 557.2,-548.42 562.48,-553.02"/>
</g>
<!-- 12&#45;&gt;6 -->
<g id="edge13" class="edge">
<title>12&#45;&gt;6</title>
<path fill="none" stroke="grey" stroke-width="2" d="M498.2,-647.16C487.05,-637.88 474.69,-625.64 467,-612 443.66,-570.61 435.87,-515.15 433.28,-481.3"/>
<polygon fill="grey" stroke="grey" stroke-width="2" points="436.8,-481.41 432.67,-471.66 429.81,-481.86 436.8,-481.41"/>
</g>
<!-- 12&#45;&gt;11 -->
<g id="edge27" class="edge">
<title>12&#45;&gt;11</title>
<path fill="none" stroke="grey" stroke-width="2" d="M523,-647.34C523,-640.75 523,-633.08 523,-625.67"/>
<polygon fill="grey" stroke="grey" stroke-width="2" points="526.5,-625.93 523,-615.93 519.5,-625.93 526.5,-625.93"/>
</g>
<!-- 12&#45;&gt;17 -->
<g id="edge36" class="edge">
<title>12&#45;&gt;17</title>
<path fill="none" stroke="grey" stroke-width="2" d="M484.76,-647.15C466.06,-638.43 443.3,-627.81 423.21,-618.43"/>
<polygon fill="grey" stroke="grey" stroke-width="2" points="424.72,-615.27 414.17,-614.21 421.75,-621.61 424.72,-615.27"/>
</g>
<!-- 18 -->
<g id="node19" class="node">
<title>18</title>
<path fill="none" stroke="#d87556" stroke-width="2" d="M745.25,-540C745.25,-540 670.75,-540 670.75,-540 664.75,-540 658.75,-534 658.75,-528 658.75,-528 658.75,-516 658.75,-516 658.75,-510 664.75,-504 670.75,-504 670.75,-504 745.25,-504 745.25,-504 751.25,-504 757.25,-510 757.25,-516 757.25,-516 757.25,-528 757.25,-528 757.25,-534 751.25,-540 745.25,-540"/>
<text xml:space="preserve" text-anchor="middle" x="708" y="-518.12" font-family="sans" font-size="10.00">process_cost_data</text>
</g>
<!-- 12&#45;&gt;18 -->
<g id="edge39" class="edge">
<title>12&#45;&gt;18</title>
<path fill="none" stroke="grey" stroke-width="2" d="M548.59,-647.18C562.96,-637.06 581.13,-624.03 597,-612 624.36,-591.26 654.73,-566.81 676.78,-548.78"/>
<polygon fill="grey" stroke="grey" stroke-width="2" points="678.72,-551.71 684.24,-542.67 674.29,-546.3 678.72,-551.71"/>
</g>
<!-- 12&#45;&gt;20 -->
<g id="edge41" class="edge">
<title>12&#45;&gt;20</title>
<path fill="none" stroke="grey" stroke-width="2" d="M549.35,-647.18C560.56,-638.08 572.52,-625.96 579,-612 587.37,-593.97 588.6,-571.62 587.75,-553.83"/>
<polygon fill="grey" stroke="grey" stroke-width="2" points="591.25,-553.7 586.98,-544.01 584.27,-554.25 591.25,-553.7"/>
</g>
<!-- 13&#45;&gt;12 -->
<g id="edge29" class="edge">
<title>13&#45;&gt;12</title>
<path fill="none" stroke="grey" stroke-width="2" d="M526.74,-719.34C526.27,-712.75 525.72,-705.08 525.19,-697.67"/>
<polygon fill="grey" stroke="grey" stroke-width="2" points="528.7,-697.65 524.49,-687.92 521.72,-698.15 528.7,-697.65"/>
</g>
<!-- 14&#45;&gt;13 -->
<g id="edge31" class="edge">
<title>14&#45;&gt;13</title>
<path fill="none" stroke="grey" stroke-width="2" d="M523.51,-791.34C524.08,-784.75 524.74,-777.08 525.37,-769.67"/>
<polygon fill="grey" stroke="grey" stroke-width="2" points="528.84,-770.18 526.21,-759.92 521.87,-769.58 528.84,-770.18"/>
</g>
<!-- 14&#45;&gt;17 -->
<g id="edge37" class="edge">
<title>14&#45;&gt;17</title>
<path fill="none" stroke="grey" stroke-width="2" d="M501.91,-791.17C491.45,-781.36 478.83,-768.63 469,-756 435.53,-713.01 404.77,-657.38 387.5,-624.04"/>
<polygon fill="grey" stroke="grey" stroke-width="2" points="390.81,-622.83 383.14,-615.52 384.58,-626.02 390.81,-622.83"/>
</g>
<!-- 15 -->
<g id="node16" class="node">
<title>15</title>
<path fill="none" stroke="#56a9d8" stroke-width="2" d="M562.62,-900C562.62,-900 481.38,-900 481.38,-900 475.38,-900 469.38,-894 469.38,-888 469.38,-888 469.38,-876 469.38,-876 469.38,-870 475.38,-864 481.38,-864 481.38,-864 562.62,-864 562.62,-864 568.62,-864 574.62,-870 574.62,-876 574.62,-876 574.62,-888 574.62,-888 574.62,-894 568.62,-900 562.62,-900"/>
<text xml:space="preserve" text-anchor="middle" x="522" y="-878.12" font-family="sans" font-size="10.00">download_osm_data</text>
</g>
<!-- 15&#45;&gt;14 -->
<g id="edge33" class="edge">
<title>15&#45;&gt;14</title>
<path fill="none" stroke="grey" stroke-width="2" d="M522,-863.34C522,-856.75 522,-849.08 522,-841.67"/>
<polygon fill="grey" stroke="grey" stroke-width="2" points="525.5,-841.93 522,-831.93 518.5,-841.93 525.5,-841.93"/>
</g>
<!-- 16&#45;&gt;7 -->
<g id="edge21" class="edge">
<title>16&#45;&gt;7</title>
<path fill="none" stroke="grey" stroke-width="2" d="M194.41,-647.02C197.55,-623.54 203.09,-582.11 206.9,-553.64"/>
<polygon fill="grey" stroke="grey" stroke-width="2" points="210.35,-554.21 208.21,-543.84 203.42,-553.29 210.35,-554.21"/>
</g>
<!-- 17&#45;&gt;6 -->
<g id="edge15" class="edge">
<title>17&#45;&gt;6</title>
<path fill="none" stroke="grey" stroke-width="2" d="M380.47,-575.02C390.31,-551.33 407.75,-509.35 419.59,-480.86"/>
<polygon fill="grey" stroke="grey" stroke-width="2" points="422.82,-482.21 423.43,-471.63 416.36,-479.53 422.82,-482.21"/>
</g>
<!-- 17&#45;&gt;7 -->
<g id="edge23" class="edge">
<title>17&#45;&gt;7</title>
<path fill="none" stroke="grey" stroke-width="2" d="M331.7,-575.15C311.22,-566.3 286.23,-555.51 264.31,-546.04"/>
<polygon fill="grey" stroke="grey" stroke-width="2" points="265.85,-542.89 255.28,-542.13 263.07,-549.31 265.85,-542.89"/>
</g>
<!-- 18&#45;&gt;2 -->
<g id="edge3" class="edge">
<title>18&#45;&gt;2</title>
<path fill="none" stroke="grey" stroke-width="2" d="M708,-503.07C708,-476.13 708,-423.62 708,-379 708,-379 708,-379 708,-305 708,-264.55 701.94,-254.32 689,-216 686.34,-208.12 682.83,-199.88 679.29,-192.3"/>
<polygon fill="grey" stroke="grey" stroke-width="2" points="682.49,-190.88 674.95,-183.44 676.21,-193.96 682.49,-190.88"/>
</g>
<!-- 18&#45;&gt;3 -->
<g id="edge5" class="edge">
<title>18&#45;&gt;3</title>
<path fill="none" stroke="grey" stroke-width="2" d="M702.56,-503.11C688.03,-455.36 648.23,-324.51 630.15,-265.08"/>
<polygon fill="grey" stroke="grey" stroke-width="2" points="633.58,-264.33 627.32,-255.78 626.88,-266.37 633.58,-264.33"/>
</g>
<!-- 18&#45;&gt;4 -->
<g id="edge7" class="edge">
<title>18&#45;&gt;4</title>
<path fill="none" stroke="grey" stroke-width="2" d="M682.88,-503.15C670.55,-493.61 656.02,-481.14 645,-468 610.25,-426.54 581.14,-370.37 565.18,-336.51"/>
<polygon fill="grey" stroke="grey" stroke-width="2" points="568.37,-335.06 560.99,-327.45 562.01,-338 568.37,-335.06"/>
</g>
<!-- 18&#45;&gt;5 -->
<g id="edge11" class="edge">
<title>18&#45;&gt;5</title>
<path fill="none" stroke="grey" stroke-width="2" d="M657.78,-503.98C636.02,-495.21 611,-483.14 591,-468 568.64,-451.08 548.49,-426.35 534.71,-407.25"/>
<polygon fill="grey" stroke="grey" stroke-width="2" points="537.71,-405.43 529.11,-399.24 531.97,-409.44 537.71,-405.43"/>
</g>
<!-- 18&#45;&gt;6 -->
<g id="edge14" class="edge">
<title>18&#45;&gt;6</title>
<path fill="none" stroke="grey" stroke-width="2" d="M657.83,-506.39C654.84,-505.57 651.88,-504.77 649,-504 593.06,-489.12 528.58,-473.57 484.54,-463.19"/>
<polygon fill="grey" stroke="grey" stroke-width="2" points="485.6,-459.85 475.07,-460.97 484,-466.66 485.6,-459.85"/>
</g>
<!-- 19 -->
<g id="node20" class="node">
<title>19</title>
<path fill="none" stroke="#61d856" stroke-width="2" d="M824.12,-612C824.12,-612 751.88,-612 751.88,-612 745.88,-612 739.88,-606 739.88,-600 739.88,-600 739.88,-588 739.88,-588 739.88,-582 745.88,-576 751.88,-576 751.88,-576 824.12,-576 824.12,-576 830.12,-576 836.12,-582 836.12,-588 836.12,-588 836.12,-600 836.12,-600 836.12,-606 830.12,-612 824.12,-612"/>
<text xml:space="preserve" text-anchor="middle" x="788" y="-590.12" font-family="sans" font-size="10.00">retrieve_cost_data</text>
</g>
<!-- 19&#45;&gt;18 -->
<g id="edge40" class="edge">
<title>19&#45;&gt;18</title>
<path fill="none" stroke="grey" stroke-width="2" d="M767.81,-575.34C758.79,-567.44 747.96,-557.96 738.01,-549.26"/>
<polygon fill="grey" stroke="grey" stroke-width="2" points="740.57,-546.85 730.74,-542.9 735.96,-552.11 740.57,-546.85"/>
</g>
<!-- 20&#45;&gt;6 -->
<g id="edge18" class="edge">
<title>20&#45;&gt;6</title>
<path fill="none" stroke="grey" stroke-width="2" d="M545.25,-503.15C526.21,-494.38 503.02,-483.71 482.6,-474.3"/>
<polygon fill="grey" stroke="grey" stroke-width="2" points="484.24,-471.2 473.69,-470.2 481.31,-477.56 484.24,-471.2"/>
</g>
</g>
</svg>
